{"glyphs":{"0":{"ha":1017,"x_min":73,"x_max":943,"o":"m 764 0 l 419 0 l 419 180 l 644 180 l 644 900 l 764 900 l 943 720 l 943 180 l 764 0 z m 373 0 l 254 0 l 73 180 l 73 720 l 254 900 l 597 900 l 597 720 l 373 720 l 373 0 z "},"1":{"ha":791,"x_min":96,"x_max":696,"o":"m 546 221 l 246 221 l 246 720 l 96 720 l 96 810 l 186 900 l 546 900 l 546 221 z m 696 0 l 96 0 l 96 180 l 696 180 l 696 0 z "},"2":{"ha":993,"x_min":73,"x_max":920,"o":"m 373 0 l 73 0 l 73 323 l 265 503 l 620 503 l 620 900 l 740 900 l 920 720 l 920 498 l 740 318 l 373 318 l 373 0 z m 373 607 l 73 607 l 73 720 l 254 900 l 572 900 l 572 738 l 373 738 l 373 607 z m 920 0 l 420 0 l 420 162 l 920 162 l 920 0 z "},"3":{"ha":1014,"x_min":71,"x_max":941,"o":"m 760 0 l 640 0 l 640 380 l 431 380 l 431 536 l 640 536 l 640 900 l 760 900 l 941 720 l 941 543 l 834 453 l 941 361 l 941 179 l 760 0 z m 370 577 l 71 577 l 71 720 l 250 900 l 593 900 l 593 709 l 370 709 l 370 577 z m 593 0 l 250 0 l 71 180 l 71 319 l 370 319 l 370 192 l 593 192 l 593 0 z "},"4":{"ha":944,"x_min":9,"x_max":907,"o":"m 805 0 l 517 0 l 517 900 l 805 900 l 805 301 l 907 301 l 907 125 l 805 125 l 805 0 z m 469 125 l 80 125 l 9 292 l 469 839 l 469 483 l 306 301 l 469 301 l 469 125 z "},"5":{"ha":1016,"x_min":73,"x_max":925,"o":"m 343 403 l 73 403 l 73 900 l 884 900 l 884 720 l 343 720 l 343 403 z m 745 0 l 625 0 l 625 403 l 391 403 l 391 571 l 745 571 l 925 391 l 925 180 l 745 0 z m 578 0 l 253 0 l 73 180 l 73 281 l 373 281 l 373 180 l 578 180 l 578 0 z "},"6":{"ha":1017,"x_min":73,"x_max":943,"o":"m 486 0 l 254 0 l 73 180 l 73 720 l 254 900 l 486 900 l 486 720 l 373 720 l 373 180 l 486 180 l 486 0 z m 943 654 l 644 654 l 644 720 l 534 720 l 534 900 l 764 900 l 943 720 l 943 654 z m 764 0 l 534 0 l 534 180 l 655 180 l 655 391 l 419 391 l 419 559 l 767 559 l 943 394 l 943 180 l 764 0 z "},"7":{"ha":881,"x_min":35,"x_max":846,"o":"m 329 583 l 35 583 l 35 810 l 124 900 l 846 900 l 846 720 l 329 720 l 329 583 z m 552 0 l 235 0 l 536 674 l 824 674 l 552 0 z "},"8":{"ha":1045,"x_min":73,"x_max":972,"o":"m 500 0 l 254 0 l 73 180 l 73 367 l 181 456 l 73 544 l 73 720 l 254 900 l 500 900 l 500 720 l 370 720 l 370 540 l 500 540 l 500 372 l 370 372 l 370 180 l 500 180 l 500 0 z m 792 0 l 548 0 l 548 180 l 687 180 l 687 372 l 548 372 l 548 540 l 687 540 l 687 720 l 548 720 l 548 900 l 792 900 l 972 720 l 972 545 l 865 455 l 972 365 l 972 179 l 792 0 z "},"9":{"ha":1017,"x_min":73,"x_max":943,"o":"m 764 0 l 531 0 l 531 180 l 644 180 l 644 720 l 531 720 l 531 900 l 764 900 l 943 720 l 943 180 l 764 0 z m 597 336 l 254 336 l 73 517 l 73 720 l 254 900 l 485 900 l 485 720 l 373 720 l 373 517 l 597 517 l 597 336 z m 485 0 l 254 0 l 73 180 l 73 240 l 373 240 l 373 180 l 485 180 l 485 0 z "},"A":{"ha":1017,"x_min":6,"x_max":1011,"o":"m 1011 0 l 708 0 l 670 98 l 376 98 l 438 277 l 601 277 l 360 900 l 652 900 l 1011 0 z m 296 0 l 6 0 l 328 859 l 460 502 l 296 0 z "},"Á":{"ha":1017,"x_min":6,"x_max":1011,"o":"m 1011 0 l 708 0 l 670 98 l 376 98 l 438 277 l 601 277 l 360 900 l 652 900 l 1011 0 z m 296 0 l 6 0 l 328 859 l 460 502 l 296 0 z m 773 1032 l 432 954 l 397 1037 l 700 1200 l 805 1147 l 773 1032 z "},"Ă":{"ha":1017,"x_min":6,"x_max":1011,"o":"m 1011 0 l 708 0 l 670 98 l 376 98 l 438 277 l 601 277 l 360 900 l 652 900 l 1011 0 z m 296 0 l 6 0 l 328 859 l 460 502 l 296 0 z m 627 951 l 382 951 l 283 1049 l 245 1206 l 339 1232 l 395 1109 l 615 1109 l 671 1232 l 764 1206 l 726 1049 l 627 951 z "},"Ắ":{"ha":1017,"x_min":6,"x_max":1011,"o":"m 1011 0 l 708 0 l 670 98 l 376 98 l 438 277 l 601 277 l 360 900 l 652 900 l 1011 0 z m 296 0 l 6 0 l 328 859 l 460 502 l 296 0 z m 759 1351 l 488 1253 l 434 1326 l 688 1514 l 789 1467 l 759 1351 z m 620 991 l 391 991 l 299 1082 l 264 1229 l 351 1253 l 403 1138 l 608 1138 l 660 1253 l 747 1229 l 712 1082 l 620 991 z "},"Ặ":{"ha":1017,"x_min":6,"x_max":1011,"o":"m 1011 0 l 708 0 l 670 98 l 376 98 l 438 277 l 601 277 l 360 900 l 652 900 l 1011 0 z m 296 0 l 6 0 l 328 859 l 460 502 l 296 0 z m 659 -273 l 358 -273 l 358 -81 l 659 -81 l 659 -273 z m 627 951 l 382 951 l 283 1049 l 245 1206 l 339 1232 l 395 1109 l 615 1109 l 671 1232 l 764 1206 l 726 1049 l 627 951 z "},"Ằ":{"ha":1017,"x_min":6,"x_max":1011,"o":"m 1011 0 l 708 0 l 670 98 l 376 98 l 438 277 l 601 277 l 360 900 l 652 900 l 1011 0 z m 296 0 l 6 0 l 328 859 l 460 502 l 296 0 z m 599 1326 l 545 1253 l 274 1351 l 244 1467 l 345 1514 l 599 1326 z m 620 991 l 391 991 l 299 1082 l 264 1229 l 351 1253 l 403 1138 l 608 1138 l 660 1253 l 747 1229 l 712 1082 l 620 991 z "},"Ẳ":{"ha":1017,"x_min":6,"x_max":1011,"o":"m 1011 0 l 708 0 l 670 98 l 376 98 l 438 277 l 601 277 l 360 900 l 652 900 l 1011 0 z m 296 0 l 6 0 l 328 859 l 460 502 l 296 0 z m 570 1251 l 456 1251 l 456 1343 l 294 1343 l 294 1503 l 471 1503 l 570 1390 l 570 1251 z m 620 991 l 391 991 l 299 1082 l 264 1229 l 351 1253 l 403 1138 l 608 1138 l 660 1253 l 747 1229 l 712 1082 l 620 991 z "},"Ẵ":{"ha":1017,"x_min":6,"x_max":1011,"o":"m 1011 0 l 708 0 l 670 98 l 376 98 l 438 277 l 601 277 l 360 900 l 652 900 l 1011 0 z m 296 0 l 6 0 l 328 859 l 460 502 l 296 0 z m 631 1261 l 477 1261 l 418 1343 l 382 1343 l 307 1281 l 260 1329 l 366 1444 l 520 1444 l 578 1362 l 615 1362 l 690 1426 l 737 1378 l 631 1261 z m 620 964 l 391 964 l 299 1055 l 264 1202 l 351 1226 l 403 1111 l 608 1111 l 660 1226 l 747 1202 l 712 1055 l 620 964 z "},"Ǎ":{"ha":1017,"x_min":6,"x_max":1011,"o":"m 1011 0 l 708 0 l 670 98 l 376 98 l 438 277 l 601 277 l 360 900 l 652 900 l 1011 0 z m 296 0 l 6 0 l 328 859 l 460 502 l 296 0 z m 592 965 l 421 965 l 249 1142 l 301 1195 l 506 1088 l 713 1195 l 766 1141 l 592 965 z "},"Â":{"ha":1017,"x_min":6,"x_max":1011,"o":"m 1011 0 l 708 0 l 670 98 l 376 98 l 438 277 l 601 277 l 360 900 l 652 900 l 1011 0 z m 296 0 l 6 0 l 328 859 l 460 502 l 296 0 z m 510 1053 l 302 945 l 250 999 l 424 1175 l 595 1175 l 767 998 l 715 945 l 510 1053 z "},"Ấ":{"ha":1017,"x_min":6,"x_max":1011,"o":"m 1011 0 l 708 0 l 670 98 l 376 98 l 438 277 l 601 277 l 360 900 l 652 900 l 1011 0 z m 296 0 l 6 0 l 328 859 l 460 502 l 296 0 z m 963 1208 l 692 1109 l 638 1183 l 892 1371 l 993 1324 l 963 1208 z m 505 1059 l 309 942 l 256 996 l 420 1181 l 589 1181 l 753 996 l 701 942 l 505 1059 z "},"Ậ":{"ha":1017,"x_min":6,"x_max":1011,"o":"m 1011 0 l 708 0 l 670 98 l 376 98 l 438 277 l 601 277 l 360 900 l 652 900 l 1011 0 z m 296 0 l 6 0 l 328 859 l 460 502 l 296 0 z m 659 -273 l 358 -273 l 358 -81 l 659 -81 l 659 -273 z m 510 1053 l 302 945 l 250 999 l 424 1175 l 595 1175 l 767 998 l 715 945 l 510 1053 z "},"Ầ":{"ha":1017,"x_min":-3,"x_max":1011,"o":"m 1011 0 l 708 0 l 670 98 l 376 98 l 438 277 l 601 277 l 360 900 l 652 900 l 1011 0 z m 296 0 l 6 0 l 328 859 l 460 502 l 296 0 z m 351 1181 l 297 1107 l 26 1206 l -3 1322 l 98 1369 l 351 1181 z m 503 1059 l 307 942 l 255 996 l 419 1181 l 587 1181 l 751 996 l 700 942 l 503 1059 z "},"Ẩ":{"ha":1017,"x_min":6,"x_max":1011,"o":"m 1011 0 l 708 0 l 670 98 l 376 98 l 438 277 l 601 277 l 360 900 l 652 900 l 1011 0 z m 296 0 l 6 0 l 328 859 l 460 502 l 296 0 z m 569 1206 l 455 1206 l 455 1285 l 294 1285 l 294 1411 l 490 1411 l 569 1332 l 569 1206 z m 503 1059 l 307 942 l 255 996 l 419 1181 l 587 1181 l 751 996 l 700 942 l 503 1059 z "},"Ẫ":{"ha":1017,"x_min":6,"x_max":1011,"o":"m 1011 0 l 708 0 l 670 98 l 376 98 l 438 277 l 601 277 l 360 900 l 652 900 l 1011 0 z m 296 0 l 6 0 l 328 859 l 460 502 l 296 0 z m 631 1217 l 477 1217 l 418 1298 l 382 1298 l 307 1236 l 260 1284 l 366 1400 l 519 1400 l 578 1318 l 614 1318 l 689 1381 l 736 1333 l 631 1217 z m 503 1059 l 307 942 l 255 996 l 419 1181 l 587 1181 l 751 996 l 700 942 l 503 1059 z "},"Ȁ":{"ha":1017,"x_min":6,"x_max":1011,"o":"m 1011 0 l 708 0 l 670 98 l 376 98 l 438 277 l 601 277 l 360 900 l 652 900 l 1011 0 z m 296 0 l 6 0 l 328 859 l 460 502 l 296 0 z m 728 1048 l 668 972 l 435 1084 l 441 1181 l 536 1211 l 728 1048 z m 373 1048 l 313 972 l 79 1084 l 84 1179 l 181 1211 l 373 1048 z "},"Ä":{"ha":1017,"x_min":6,"x_max":1011,"o":"m 1011 0 l 708 0 l 670 98 l 376 98 l 438 277 l 601 277 l 360 900 l 652 900 l 1011 0 z m 296 0 l 6 0 l 328 859 l 460 502 l 296 0 z m 800 970 l 572 970 l 572 1120 l 800 1120 l 800 970 z m 440 970 l 212 970 l 212 1120 l 440 1120 l 440 970 z "},"Ǟ":{"ha":1017,"x_min":6,"x_max":1011,"o":"m 1011 0 l 708 0 l 670 98 l 376 98 l 438 277 l 601 277 l 360 900 l 652 900 l 1011 0 z m 296 0 l 6 0 l 328 859 l 460 502 l 296 0 z m 800 970 l 572 970 l 572 1120 l 800 1120 l 800 970 z m 440 970 l 212 970 l 212 1120 l 440 1120 l 440 970 z m 753 1218 l 258 1218 l 258 1333 l 753 1333 l 753 1218 z "},"Ạ":{"ha":1017,"x_min":6,"x_max":1011,"o":"m 1011 0 l 708 0 l 670 98 l 376 98 l 438 277 l 601 277 l 360 900 l 652 900 l 1011 0 z m 296 0 l 6 0 l 328 859 l 460 502 l 296 0 z m 659 -273 l 358 -273 l 358 -81 l 659 -81 l 659 -273 z "},"À":{"ha":1017,"x_min":6,"x_max":1011,"o":"m 1011 0 l 708 0 l 670 98 l 376 98 l 438 277 l 601 277 l 360 900 l 652 900 l 1011 0 z m 296 0 l 6 0 l 328 859 l 460 502 l 296 0 z m 614 1036 l 579 953 l 239 1031 l 207 1145 l 312 1198 l 614 1036 z "},"Ả":{"ha":1017,"x_min":6,"x_max":1011,"o":"m 1011 0 l 708 0 l 670 98 l 376 98 l 438 277 l 601 277 l 360 900 l 652 900 l 1011 0 z m 296 0 l 6 0 l 328 859 l 460 502 l 296 0 z m 664 935 l 527 935 l 527 1046 l 334 1046 l 334 1237 l 545 1237 l 664 1101 l 664 935 z "},"Ȃ":{"ha":1017,"x_min":6,"x_max":1011,"o":"m 1011 0 l 708 0 l 670 98 l 376 98 l 438 277 l 601 277 l 360 900 l 652 900 l 1011 0 z m 296 0 l 6 0 l 328 859 l 460 502 l 296 0 z m 395 1103 l 340 980 l 246 1006 l 284 1163 l 383 1261 l 628 1261 l 727 1163 l 765 1006 l 671 980 l 616 1103 l 395 1103 z "},"Ɑ":{"ha":1008,"x_min":58,"x_max":928,"o":"m 581 0 l 239 0 l 58 180 l 58 720 l 239 900 l 581 900 l 581 720 l 359 720 l 359 180 l 581 180 l 581 0 z m 928 0 l 629 0 l 629 900 l 928 900 l 928 0 z "},"Ā":{"ha":1017,"x_min":6,"x_max":1011,"o":"m 1011 0 l 708 0 l 670 98 l 376 98 l 438 277 l 601 277 l 360 900 l 652 900 l 1011 0 z m 296 0 l 6 0 l 328 859 l 460 502 l 296 0 z m 753 986 l 258 986 l 258 1101 l 753 1101 l 753 986 z "},"Ą":{"ha":1017,"x_min":6,"x_max":1011,"o":"m 1011 0 l 708 0 l 670 98 l 376 98 l 438 277 l 601 277 l 360 900 l 652 900 l 1011 0 z m 296 0 l 6 0 l 328 859 l 460 502 l 296 0 z m 916 -337 l 704 -337 l 585 -201 l 585 -35 l 722 -35 l 722 -146 l 916 -146 l 916 -337 z "},"Å":{"ha":1017,"x_min":6,"x_max":1011,"o":"m 1011 0 l 708 0 l 670 98 l 376 98 l 438 277 l 601 277 l 360 900 l 652 900 l 1011 0 z m 296 0 l 6 0 l 328 859 l 460 502 l 296 0 z m 608 925 l 528 925 l 528 1031 l 581 1031 l 581 1147 l 528 1147 l 528 1252 l 608 1252 l 702 1159 l 702 1018 l 608 925 z m 481 925 l 401 925 l 308 1018 l 308 1159 l 401 1252 l 481 1252 l 481 1147 l 429 1147 l 429 1031 l 481 1031 l 481 925 z "},"Ǻ":{"ha":1017,"x_min":6,"x_max":1011,"o":"m 1011 0 l 708 0 l 670 98 l 376 98 l 438 277 l 601 277 l 360 900 l 652 900 l 1011 0 z m 296 0 l 6 0 l 328 859 l 460 502 l 296 0 z m 605 870 l 526 870 l 526 976 l 578 976 l 578 1092 l 526 1092 l 526 1197 l 596 1197 l 684 1305 l 769 1276 l 787 1197 l 682 1122 l 699 1104 l 699 963 l 605 870 z m 479 870 l 398 870 l 305 963 l 305 1104 l 398 1197 l 479 1197 l 479 1092 l 427 1092 l 427 976 l 479 976 l 479 870 z "},"Ã":{"ha":1017,"x_min":6,"x_max":1011,"o":"m 1011 0 l 708 0 l 670 98 l 376 98 l 438 277 l 601 277 l 360 900 l 652 900 l 1011 0 z m 296 0 l 6 0 l 328 859 l 460 502 l 296 0 z m 657 966 l 518 966 l 410 1045 l 382 1045 l 259 973 l 216 1026 l 356 1171 l 495 1171 l 604 1092 l 631 1092 l 754 1164 l 798 1112 l 657 966 z "},"Æ":{"ha":1563,"x_min":6,"x_max":1523,"o":"m 315 0 l 6 0 l 435 900 l 637 900 l 637 713 l 460 321 l 637 321 l 637 143 l 380 143 l 315 0 z m 983 0 l 683 0 l 683 900 l 983 900 l 983 541 l 1282 541 l 1282 359 l 983 359 l 983 0 z m 1523 630 l 1223 630 l 1223 720 l 1028 720 l 1028 900 l 1523 900 l 1523 630 z m 1523 0 l 1028 0 l 1028 180 l 1223 180 l 1223 270 l 1523 270 l 1523 0 z "},"Ǽ":{"ha":1563,"x_min":6,"x_max":1523,"o":"m 315 0 l 6 0 l 435 900 l 637 900 l 637 713 l 460 321 l 637 321 l 637 143 l 380 143 l 315 0 z m 983 0 l 683 0 l 683 900 l 983 900 l 983 541 l 1282 541 l 1282 359 l 983 359 l 983 0 z m 1523 630 l 1223 630 l 1223 720 l 1028 720 l 1028 900 l 1523 900 l 1523 630 z m 1523 0 l 1028 0 l 1028 180 l 1223 180 l 1223 270 l 1523 270 l 1523 0 z m 1105 1032 l 764 954 l 730 1037 l 1032 1200 l 1137 1147 l 1105 1032 z "},"B":{"ha":1014,"x_min":79,"x_max":955,"o":"m 774 0 l 427 0 l 427 180 l 649 180 l 649 372 l 427 372 l 427 528 l 649 528 l 649 720 l 427 720 l 427 900 l 774 900 l 955 720 l 955 537 l 865 447 l 955 357 l 955 180 l 774 0 z m 379 0 l 79 0 l 79 900 l 379 900 l 379 0 z "},"Ḅ":{"ha":1014,"x_min":79,"x_max":955,"o":"m 774 0 l 427 0 l 427 180 l 649 180 l 649 372 l 427 372 l 427 528 l 649 528 l 649 720 l 427 720 l 427 900 l 774 900 l 955 720 l 955 537 l 865 447 l 955 357 l 955 180 l 774 0 z m 379 0 l 79 0 l 79 900 l 379 900 l 379 0 z m 657 -273 l 357 -273 l 357 -81 l 657 -81 l 657 -273 z "},"C":{"ha":977,"x_min":66,"x_max":912,"o":"m 366 0 l 246 0 l 66 180 l 66 720 l 246 900 l 366 900 l 366 0 z m 912 539 l 612 539 l 612 720 l 413 720 l 413 900 l 732 900 l 912 720 l 912 539 z m 732 0 l 413 0 l 413 180 l 612 180 l 612 311 l 912 311 l 912 180 l 732 0 z "},"Ć":{"ha":977,"x_min":66,"x_max":912,"o":"m 366 0 l 246 0 l 66 180 l 66 720 l 246 900 l 366 900 l 366 0 z m 912 539 l 612 539 l 612 720 l 413 720 l 413 900 l 732 900 l 912 720 l 912 539 z m 732 0 l 413 0 l 413 180 l 612 180 l 612 311 l 912 311 l 912 180 l 732 0 z m 753 1032 l 412 954 l 378 1037 l 680 1200 l 785 1147 l 753 1032 z "},"Č":{"ha":977,"x_min":66,"x_max":912,"o":"m 366 0 l 246 0 l 66 180 l 66 720 l 246 900 l 366 900 l 366 0 z m 912 539 l 612 539 l 612 720 l 413 720 l 413 900 l 732 900 l 912 720 l 912 539 z m 732 0 l 413 0 l 413 180 l 612 180 l 612 311 l 912 311 l 912 180 l 732 0 z m 572 965 l 401 965 l 229 1142 l 281 1195 l 486 1088 l 694 1195 l 747 1141 l 572 965 z "},"Ç":{"ha":977,"x_min":66,"x_max":912,"o":"m 366 0 l 246 0 l 66 180 l 66 720 l 246 900 l 366 900 l 366 0 z m 912 539 l 612 539 l 612 720 l 413 720 l 413 900 l 732 900 l 912 720 l 912 539 z m 732 0 l 413 0 l 413 180 l 612 180 l 612 311 l 912 311 l 912 180 l 732 0 z m 534 -344 l 323 -344 l 323 -153 l 516 -153 l 516 -42 l 653 -42 l 653 -208 l 534 -344 z "},"Ḉ":{"ha":977,"x_min":66,"x_max":912,"o":"m 366 0 l 246 0 l 66 180 l 66 720 l 246 900 l 366 900 l 366 0 z m 912 539 l 612 539 l 612 720 l 413 720 l 413 900 l 732 900 l 912 720 l 912 539 z m 732 0 l 413 0 l 413 180 l 612 180 l 612 311 l 912 311 l 912 180 l 732 0 z m 534 -344 l 323 -344 l 323 -153 l 516 -153 l 516 -42 l 653 -42 l 653 -208 l 534 -344 z m 753 1032 l 412 954 l 378 1037 l 680 1200 l 785 1147 l 753 1032 z "},"Ĉ":{"ha":977,"x_min":66,"x_max":912,"o":"m 366 0 l 246 0 l 66 180 l 66 720 l 246 900 l 366 900 l 366 0 z m 912 539 l 612 539 l 612 720 l 413 720 l 413 900 l 732 900 l 912 720 l 912 539 z m 732 0 l 413 0 l 413 180 l 612 180 l 612 311 l 912 311 l 912 180 l 732 0 z m 490 1053 l 283 945 l 231 999 l 404 1175 l 575 1175 l 747 998 l 696 945 l 490 1053 z "},"Ċ":{"ha":977,"x_min":66,"x_max":912,"o":"m 366 0 l 246 0 l 66 180 l 66 720 l 246 900 l 366 900 l 366 0 z m 912 539 l 612 539 l 612 720 l 413 720 l 413 900 l 732 900 l 912 720 l 912 539 z m 732 0 l 413 0 l 413 180 l 612 180 l 612 311 l 912 311 l 912 180 l 732 0 z m 635 964 l 335 964 l 335 1155 l 635 1155 l 635 964 z "},"D":{"ha":1008,"x_min":79,"x_max":949,"o":"m 769 0 l 427 0 l 427 180 l 649 180 l 649 720 l 427 720 l 427 900 l 769 900 l 949 720 l 949 180 l 769 0 z m 379 0 l 79 0 l 79 900 l 379 900 l 379 0 z "},"Ǆ":{"ha":1872,"x_min":79,"x_max":1837,"o":"m 769 0 l 427 0 l 427 180 l 649 180 l 649 720 l 427 720 l 427 900 l 769 900 l 949 720 l 949 180 l 769 0 z m 379 0 l 79 0 l 79 900 l 379 900 l 379 0 z m 1243 0 l 1046 0 l 1046 168 l 1634 900 l 1837 900 l 1837 726 l 1243 0 z m 1404 703 l 1064 703 l 1064 900 l 1575 900 l 1404 703 z m 1825 0 l 1303 0 l 1474 197 l 1825 197 l 1825 0 z m 1536 965 l 1365 965 l 1193 1142 l 1245 1195 l 1450 1088 l 1657 1195 l 1710 1141 l 1536 965 z "},"Ɖ":{"ha":1015,"x_min":20,"x_max":949,"o":"m 769 0 l 427 0 l 427 180 l 649 180 l 649 720 l 427 720 l 427 900 l 769 900 l 949 720 l 949 180 l 769 0 z m 379 0 l 79 0 l 79 387 l 20 387 l 20 513 l 79 513 l 79 900 l 379 900 l 379 513 l 525 513 l 525 387 l 379 387 l 379 0 z "},"ɖ":{"ha":1015,"x_min":20,"x_max":949,"o":"m 769 0 l 427 0 l 427 180 l 649 180 l 649 720 l 427 720 l 427 900 l 769 900 l 949 720 l 949 180 l 769 0 z m 379 0 l 79 0 l 79 387 l 20 387 l 20 513 l 79 513 l 79 900 l 379 900 l 379 513 l 525 513 l 525 387 l 379 387 l 379 0 z "},"Ð":{"ha":1015,"x_min":20,"x_max":949,"o":"m 769 0 l 427 0 l 427 180 l 649 180 l 649 720 l 427 720 l 427 900 l 769 900 l 949 720 l 949 180 l 769 0 z m 379 0 l 79 0 l 79 387 l 20 387 l 20 513 l 79 513 l 79 900 l 379 900 l 379 513 l 525 513 l 525 387 l 379 387 l 379 0 z "},"Ď":{"ha":1008,"x_min":79,"x_max":949,"o":"m 769 0 l 427 0 l 427 180 l 649 180 l 649 720 l 427 720 l 427 900 l 769 900 l 949 720 l 949 180 l 769 0 z m 379 0 l 79 0 l 79 900 l 379 900 l 379 0 z m 579 965 l 408 965 l 236 1142 l 288 1195 l 493 1088 l 701 1195 l 753 1141 l 579 965 z "},"Ḓ":{"ha":1008,"x_min":79,"x_max":949,"o":"m 769 0 l 427 0 l 427 180 l 649 180 l 649 720 l 427 720 l 427 900 l 769 900 l 949 720 l 949 180 l 769 0 z m 379 0 l 79 0 l 79 900 l 379 900 l 379 0 z m 504 -229 l 264 -372 l 201 -306 l 401 -79 l 607 -79 l 807 -306 l 744 -372 l 504 -229 z "},"Đ":{"ha":1015,"x_min":20,"x_max":949,"o":"m 769 0 l 427 0 l 427 180 l 649 180 l 649 720 l 427 720 l 427 900 l 769 900 l 949 720 l 949 180 l 769 0 z m 379 0 l 79 0 l 79 387 l 20 387 l 20 513 l 79 513 l 79 900 l 379 900 l 379 513 l 525 513 l 525 387 l 379 387 l 379 0 z "},"Ḍ":{"ha":1008,"x_min":79,"x_max":949,"o":"m 769 0 l 427 0 l 427 180 l 649 180 l 649 720 l 427 720 l 427 900 l 769 900 l 949 720 l 949 180 l 769 0 z m 379 0 l 79 0 l 79 900 l 379 900 l 379 0 z m 654 -273 l 353 -273 l 353 -81 l 654 -81 l 654 -273 z "},"Ḏ":{"ha":1008,"x_min":79,"x_max":949,"o":"m 769 0 l 427 0 l 427 180 l 649 180 l 649 720 l 427 720 l 427 900 l 769 900 l 949 720 l 949 180 l 769 0 z m 379 0 l 79 0 l 79 900 l 379 900 l 379 0 z m 751 -182 l 256 -182 l 256 -67 l 751 -67 l 751 -182 z "},"ǅ":{"ha":1800,"x_min":79,"x_max":1742,"o":"m 769 0 l 427 0 l 427 180 l 649 180 l 649 720 l 427 720 l 427 900 l 769 900 l 949 720 l 949 180 l 769 0 z m 379 0 l 79 0 l 79 900 l 379 900 l 379 0 z m 1267 0 l 1067 0 l 1067 174 l 1535 720 l 1742 720 l 1742 541 l 1267 0 z m 1323 541 l 1074 541 l 1074 720 l 1478 720 l 1323 541 z m 1742 0 l 1323 0 l 1482 180 l 1742 180 l 1742 0 z m 1541 782 l 1335 782 l 1135 1008 l 1198 1074 l 1437 932 l 1677 1074 l 1741 1008 l 1541 782 z "},"E":{"ha":960,"x_min":79,"x_max":895,"o":"m 379 0 l 79 0 l 79 900 l 379 900 l 379 543 l 666 543 l 666 370 l 379 370 l 379 0 z m 895 640 l 613 640 l 613 726 l 427 726 l 427 900 l 895 900 l 895 640 z m 895 0 l 427 0 l 427 180 l 595 180 l 595 270 l 895 270 l 895 0 z "},"É":{"ha":960,"x_min":79,"x_max":895,"o":"m 379 0 l 79 0 l 79 900 l 379 900 l 379 543 l 666 543 l 666 370 l 379 370 l 379 0 z m 895 640 l 613 640 l 613 726 l 427 726 l 427 900 l 895 900 l 895 640 z m 895 0 l 427 0 l 427 180 l 595 180 l 595 270 l 895 270 l 895 0 z m 766 1032 l 425 954 l 390 1037 l 692 1200 l 798 1147 l 766 1032 z "},"Ĕ":{"ha":960,"x_min":79,"x_max":895,"o":"m 379 0 l 79 0 l 79 900 l 379 900 l 379 543 l 666 543 l 666 370 l 379 370 l 379 0 z m 895 640 l 613 640 l 613 726 l 427 726 l 427 900 l 895 900 l 895 640 z m 895 0 l 427 0 l 427 180 l 595 180 l 595 270 l 895 270 l 895 0 z m 620 951 l 375 951 l 276 1049 l 238 1206 l 332 1232 l 387 1109 l 608 1109 l 663 1232 l 757 1206 l 719 1049 l 620 951 z "},"Ě":{"ha":960,"x_min":79,"x_max":895,"o":"m 379 0 l 79 0 l 79 900 l 379 900 l 379 543 l 666 543 l 666 370 l 379 370 l 379 0 z m 895 640 l 613 640 l 613 726 l 427 726 l 427 900 l 895 900 l 895 640 z m 895 0 l 427 0 l 427 180 l 595 180 l 595 270 l 895 270 l 895 0 z m 585 965 l 414 965 l 241 1142 l 294 1195 l 498 1088 l 706 1195 l 759 1141 l 585 965 z "},"Ȩ":{"ha":960,"x_min":79,"x_max":895,"o":"m 379 0 l 79 0 l 79 900 l 379 900 l 379 543 l 666 543 l 666 370 l 379 370 l 379 0 z m 895 640 l 613 640 l 613 726 l 427 726 l 427 900 l 895 900 l 895 640 z m 895 0 l 427 0 l 427 180 l 595 180 l 595 270 l 895 270 l 895 0 z m 526 -344 l 315 -344 l 315 -153 l 508 -153 l 508 -42 l 645 -42 l 645 -208 l 526 -344 z "},"Ê":{"ha":960,"x_min":79,"x_max":895,"o":"m 379 0 l 79 0 l 79 900 l 379 900 l 379 543 l 666 543 l 666 370 l 379 370 l 379 0 z m 895 640 l 613 640 l 613 726 l 427 726 l 427 900 l 895 900 l 895 640 z m 895 0 l 427 0 l 427 180 l 595 180 l 595 270 l 895 270 l 895 0 z m 503 1053 l 295 945 l 243 999 l 416 1175 l 587 1175 l 760 998 l 708 945 l 503 1053 z "},"Ế":{"ha":960,"x_min":79,"x_max":985,"o":"m 379 0 l 79 0 l 79 900 l 379 900 l 379 543 l 666 543 l 666 370 l 379 370 l 379 0 z m 895 640 l 613 640 l 613 726 l 427 726 l 427 900 l 895 900 l 895 640 z m 895 0 l 427 0 l 427 180 l 595 180 l 595 270 l 895 270 l 895 0 z m 956 1208 l 685 1109 l 631 1183 l 884 1371 l 985 1324 l 956 1208 z m 497 1059 l 301 942 l 249 996 l 413 1181 l 581 1181 l 745 996 l 694 942 l 497 1059 z "},"Ệ":{"ha":960,"x_min":79,"x_max":895,"o":"m 379 0 l 79 0 l 79 900 l 379 900 l 379 543 l 666 543 l 666 370 l 379 370 l 379 0 z m 895 640 l 613 640 l 613 726 l 427 726 l 427 900 l 895 900 l 895 640 z m 895 0 l 427 0 l 427 180 l 595 180 l 595 270 l 895 270 l 895 0 z m 630 -273 l 330 -273 l 330 -81 l 630 -81 l 630 -273 z m 503 1053 l 295 945 l 243 999 l 416 1175 l 587 1175 l 760 998 l 708 945 l 503 1053 z "},"Ề":{"ha":960,"x_min":-11,"x_max":895,"o":"m 379 0 l 79 0 l 79 900 l 379 900 l 379 543 l 666 543 l 666 370 l 379 370 l 379 0 z m 895 640 l 613 640 l 613 726 l 427 726 l 427 900 l 895 900 l 895 640 z m 895 0 l 427 0 l 427 180 l 595 180 l 595 270 l 895 270 l 895 0 z m 344 1181 l 290 1107 l 19 1206 l -11 1322 l 90 1369 l 344 1181 z m 496 1059 l 300 942 l 248 996 l 412 1181 l 580 1181 l 744 996 l 692 942 l 496 1059 z "},"Ể":{"ha":960,"x_min":79,"x_max":895,"o":"m 379 0 l 79 0 l 79 900 l 379 900 l 379 543 l 666 543 l 666 370 l 379 370 l 379 0 z m 895 640 l 613 640 l 613 726 l 427 726 l 427 900 l 895 900 l 895 640 z m 895 0 l 427 0 l 427 180 l 595 180 l 595 270 l 895 270 l 895 0 z m 562 1206 l 448 1206 l 448 1285 l 286 1285 l 286 1411 l 483 1411 l 562 1332 l 562 1206 z m 496 1059 l 300 942 l 248 996 l 412 1181 l 580 1181 l 744 996 l 692 942 l 496 1059 z "},"Ễ":{"ha":960,"x_min":79,"x_max":895,"o":"m 379 0 l 79 0 l 79 900 l 379 900 l 379 543 l 666 543 l 666 370 l 379 370 l 379 0 z m 895 640 l 613 640 l 613 726 l 427 726 l 427 900 l 895 900 l 895 640 z m 895 0 l 427 0 l 427 180 l 595 180 l 595 270 l 895 270 l 895 0 z m 623 1217 l 469 1217 l 410 1298 l 374 1298 l 299 1236 l 252 1284 l 358 1400 l 512 1400 l 570 1318 l 607 1318 l 682 1381 l 729 1333 l 623 1217 z m 496 1059 l 300 942 l 248 996 l 412 1181 l 580 1181 l 744 996 l 692 942 l 496 1059 z "},"Ȅ":{"ha":960,"x_min":72,"x_max":895,"o":"m 379 0 l 79 0 l 79 900 l 379 900 l 379 543 l 666 543 l 666 370 l 379 370 l 379 0 z m 895 640 l 613 640 l 613 726 l 427 726 l 427 900 l 895 900 l 895 640 z m 895 0 l 427 0 l 427 180 l 595 180 l 595 270 l 895 270 l 895 0 z m 721 1048 l 661 972 l 427 1084 l 434 1181 l 529 1211 l 721 1048 z m 366 1048 l 305 972 l 72 1084 l 77 1179 l 174 1211 l 366 1048 z "},"Ë":{"ha":960,"x_min":79,"x_max":895,"o":"m 379 0 l 79 0 l 79 900 l 379 900 l 379 543 l 666 543 l 666 370 l 379 370 l 379 0 z m 895 640 l 613 640 l 613 726 l 427 726 l 427 900 l 895 900 l 895 640 z m 895 0 l 427 0 l 427 180 l 595 180 l 595 270 l 895 270 l 895 0 z m 792 970 l 564 970 l 564 1120 l 792 1120 l 792 970 z m 433 970 l 205 970 l 205 1120 l 433 1120 l 433 970 z "},"Ė":{"ha":960,"x_min":79,"x_max":895,"o":"m 379 0 l 79 0 l 79 900 l 379 900 l 379 543 l 666 543 l 666 370 l 379 370 l 379 0 z m 895 640 l 613 640 l 613 726 l 427 726 l 427 900 l 895 900 l 895 640 z m 895 0 l 427 0 l 427 180 l 595 180 l 595 270 l 895 270 l 895 0 z m 648 964 l 347 964 l 347 1155 l 648 1155 l 648 964 z "},"Ẹ":{"ha":960,"x_min":79,"x_max":895,"o":"m 379 0 l 79 0 l 79 900 l 379 900 l 379 543 l 666 543 l 666 370 l 379 370 l 379 0 z m 895 640 l 613 640 l 613 726 l 427 726 l 427 900 l 895 900 l 895 640 z m 895 0 l 427 0 l 427 180 l 595 180 l 595 270 l 895 270 l 895 0 z m 630 -273 l 330 -273 l 330 -81 l 630 -81 l 630 -273 z "},"È":{"ha":960,"x_min":79,"x_max":895,"o":"m 379 0 l 79 0 l 79 900 l 379 900 l 379 543 l 666 543 l 666 370 l 379 370 l 379 0 z m 895 640 l 613 640 l 613 726 l 427 726 l 427 900 l 895 900 l 895 640 z m 895 0 l 427 0 l 427 180 l 595 180 l 595 270 l 895 270 l 895 0 z m 607 1036 l 572 953 l 231 1031 l 199 1145 l 304 1198 l 607 1036 z "},"Ẻ":{"ha":960,"x_min":79,"x_max":895,"o":"m 379 0 l 79 0 l 79 900 l 379 900 l 379 543 l 666 543 l 666 370 l 379 370 l 379 0 z m 895 640 l 613 640 l 613 726 l 427 726 l 427 900 l 895 900 l 895 640 z m 895 0 l 427 0 l 427 180 l 595 180 l 595 270 l 895 270 l 895 0 z m 656 935 l 519 935 l 519 1046 l 326 1046 l 326 1237 l 538 1237 l 656 1101 l 656 935 z "},"Ȇ":{"ha":960,"x_min":79,"x_max":895,"o":"m 379 0 l 79 0 l 79 900 l 379 900 l 379 543 l 666 543 l 666 370 l 379 370 l 379 0 z m 895 640 l 613 640 l 613 726 l 427 726 l 427 900 l 895 900 l 895 640 z m 895 0 l 427 0 l 427 180 l 595 180 l 595 270 l 895 270 l 895 0 z m 388 1103 l 332 980 l 239 1006 l 277 1163 l 376 1261 l 621 1261 l 720 1163 l 758 1006 l 664 980 l 608 1103 l 388 1103 z "},"Ē":{"ha":960,"x_min":79,"x_max":895,"o":"m 379 0 l 79 0 l 79 900 l 379 900 l 379 543 l 666 543 l 666 370 l 379 370 l 379 0 z m 895 640 l 613 640 l 613 726 l 427 726 l 427 900 l 895 900 l 895 640 z m 895 0 l 427 0 l 427 180 l 595 180 l 595 270 l 895 270 l 895 0 z m 745 986 l 251 986 l 251 1101 l 745 1101 l 745 986 z "},"Ę":{"ha":960,"x_min":79,"x_max":895,"o":"m 379 0 l 79 0 l 79 900 l 379 900 l 379 543 l 666 543 l 666 370 l 379 370 l 379 0 z m 895 640 l 613 640 l 613 726 l 427 726 l 427 900 l 895 900 l 895 640 z m 895 0 l 427 0 l 427 180 l 595 180 l 595 270 l 895 270 l 895 0 z m 864 -337 l 652 -337 l 534 -201 l 534 -35 l 671 -35 l 671 -146 l 864 -146 l 864 -337 z "},"Ɛ":{"ha":1014,"x_min":71,"x_max":941,"o":"m 371 0 l 251 0 l 71 179 l 71 361 l 177 453 l 71 543 l 71 720 l 251 900 l 371 900 l 371 536 l 580 536 l 580 380 l 371 380 l 371 0 z m 941 577 l 641 577 l 641 709 l 418 709 l 418 900 l 761 900 l 941 720 l 941 577 z m 761 0 l 418 0 l 418 192 l 641 192 l 641 319 l 941 319 l 941 180 l 761 0 z "},"Ǝ":{"ha":960,"x_min":64,"x_max":880,"o":"m 880 0 l 581 0 l 581 370 l 294 370 l 294 543 l 581 543 l 581 900 l 880 900 l 880 0 z m 347 640 l 64 640 l 64 900 l 533 900 l 533 726 l 347 726 l 347 640 z m 533 0 l 64 0 l 64 270 l 364 270 l 364 180 l 533 180 l 533 0 z "},"Ẽ":{"ha":960,"x_min":79,"x_max":895,"o":"m 379 0 l 79 0 l 79 900 l 379 900 l 379 543 l 666 543 l 666 370 l 379 370 l 379 0 z m 895 640 l 613 640 l 613 726 l 427 726 l 427 900 l 895 900 l 895 640 z m 895 0 l 427 0 l 427 180 l 595 180 l 595 270 l 895 270 l 895 0 z m 650 966 l 511 966 l 402 1045 l 374 1045 l 252 973 l 208 1026 l 349 1171 l 488 1171 l 596 1092 l 624 1092 l 747 1164 l 790 1112 l 650 966 z "},"F":{"ha":901,"x_min":79,"x_max":884,"o":"m 379 0 l 79 0 l 79 900 l 379 900 l 379 498 l 656 498 l 656 321 l 379 321 l 379 0 z m 884 602 l 584 602 l 584 720 l 427 720 l 427 900 l 884 900 l 884 602 z "},"G":{"ha":1014,"x_min":78,"x_max":948,"o":"m 635 0 l 258 0 l 78 180 l 78 720 l 258 900 l 378 900 l 378 180 l 635 180 l 635 0 z m 948 630 l 648 630 l 648 720 l 425 720 l 425 900 l 791 900 l 948 720 l 948 630 z m 948 0 l 682 0 l 682 321 l 536 321 l 536 499 l 948 499 l 948 0 z "},"Ğ":{"ha":1014,"x_min":78,"x_max":948,"o":"m 635 0 l 258 0 l 78 180 l 78 720 l 258 900 l 378 900 l 378 180 l 635 180 l 635 0 z m 948 630 l 648 630 l 648 720 l 425 720 l 425 900 l 791 900 l 948 720 l 948 630 z m 948 0 l 682 0 l 682 321 l 536 321 l 536 499 l 948 499 l 948 0 z m 658 951 l 413 951 l 314 1049 l 276 1206 l 370 1232 l 425 1109 l 646 1109 l 701 1232 l 795 1206 l 757 1049 l 658 951 z "},"Ǧ":{"ha":1014,"x_min":78,"x_max":948,"o":"m 635 0 l 258 0 l 78 180 l 78 720 l 258 900 l 378 900 l 378 180 l 635 180 l 635 0 z m 948 630 l 648 630 l 648 720 l 425 720 l 425 900 l 791 900 l 948 720 l 948 630 z m 948 0 l 682 0 l 682 321 l 536 321 l 536 499 l 948 499 l 948 0 z m 623 965 l 452 965 l 279 1142 l 332 1195 l 536 1088 l 744 1195 l 797 1141 l 623 965 z "},"Ĝ":{"ha":1014,"x_min":78,"x_max":948,"o":"m 635 0 l 258 0 l 78 180 l 78 720 l 258 900 l 378 900 l 378 180 l 635 180 l 635 0 z m 948 630 l 648 630 l 648 720 l 425 720 l 425 900 l 791 900 l 948 720 l 948 630 z m 948 0 l 682 0 l 682 321 l 536 321 l 536 499 l 948 499 l 948 0 z m 541 1053 l 333 945 l 281 999 l 454 1175 l 625 1175 l 798 998 l 746 945 l 541 1053 z "},"Ģ":{"ha":1014,"x_min":78,"x_max":948,"o":"m 635 0 l 258 0 l 78 180 l 78 720 l 258 900 l 378 900 l 378 180 l 635 180 l 635 0 z m 948 630 l 648 630 l 648 720 l 425 720 l 425 900 l 791 900 l 948 720 l 948 630 z m 948 0 l 682 0 l 682 321 l 536 321 l 536 499 l 948 499 l 948 0 z m 571 -433 l 450 -433 l 492 -278 l 385 -278 l 385 -80 l 684 -80 l 684 -248 l 571 -433 z "},"Ġ":{"ha":1014,"x_min":78,"x_max":948,"o":"m 635 0 l 258 0 l 78 180 l 78 720 l 258 900 l 378 900 l 378 180 l 635 180 l 635 0 z m 948 630 l 648 630 l 648 720 l 425 720 l 425 900 l 791 900 l 948 720 l 948 630 z m 948 0 l 682 0 l 682 321 l 536 321 l 536 499 l 948 499 l 948 0 z m 686 964 l 385 964 l 385 1155 l 686 1155 l 686 964 z "},"Ḡ":{"ha":1014,"x_min":78,"x_max":948,"o":"m 635 0 l 258 0 l 78 180 l 78 720 l 258 900 l 378 900 l 378 180 l 635 180 l 635 0 z m 948 630 l 648 630 l 648 720 l 425 720 l 425 900 l 791 900 l 948 720 l 948 630 z m 948 0 l 682 0 l 682 321 l 536 321 l 536 499 l 948 499 l 948 0 z m 783 986 l 289 986 l 289 1101 l 783 1101 l 783 986 z "},"H":{"ha":1028,"x_min":79,"x_max":949,"o":"m 949 0 l 649 0 l 649 366 l 427 366 l 427 546 l 647 546 l 647 900 l 949 900 l 949 0 z m 379 0 l 79 0 l 79 900 l 379 900 l 379 0 z "},"Ħ":{"ha":1028,"x_min":0,"x_max":1028,"o":"m 949 0 l 649 0 l 649 366 l 427 366 l 427 546 l 647 546 l 647 648 l 427 648 l 427 776 l 647 776 l 647 900 l 949 900 l 949 776 l 1028 776 l 1028 648 l 949 648 l 949 0 z m 379 0 l 79 0 l 79 648 l 0 648 l 0 776 l 79 776 l 79 900 l 379 900 l 379 0 z "},"Ĥ":{"ha":1028,"x_min":79,"x_max":949,"o":"m 949 0 l 649 0 l 649 366 l 427 366 l 427 546 l 647 546 l 647 900 l 949 900 l 949 0 z m 379 0 l 79 0 l 79 900 l 379 900 l 379 0 z m 519 1053 l 311 945 l 259 999 l 433 1175 l 604 1175 l 776 998 l 724 945 l 519 1053 z "},"Ḥ":{"ha":1028,"x_min":79,"x_max":949,"o":"m 949 0 l 649 0 l 649 366 l 427 366 l 427 546 l 647 546 l 647 900 l 949 900 l 949 0 z m 379 0 l 79 0 l 79 900 l 379 900 l 379 0 z m 664 -273 l 363 -273 l 363 -81 l 664 -81 l 664 -273 z "},"I":{"ha":612,"x_min":66,"x_max":546,"o":"m 546 0 l 66 0 l 66 192 l 156 192 l 156 709 l 66 709 l 66 900 l 546 900 l 546 709 l 456 709 l 456 192 l 546 192 l 546 0 z "},"Ĳ":{"ha":996,"x_min":79,"x_max":925,"o":"m 745 0 l 79 0 l 79 180 l 625 180 l 625 900 l 925 900 l 925 180 l 745 0 z m 391 293 l 79 293 l 79 900 l 391 900 l 391 293 z "},"Í":{"ha":612,"x_min":66,"x_max":605,"o":"m 546 0 l 66 0 l 66 192 l 156 192 l 156 709 l 66 709 l 66 900 l 546 900 l 546 709 l 456 709 l 456 192 l 546 192 l 546 0 z m 573 1031 l 232 954 l 197 1036 l 500 1199 l 605 1146 l 573 1031 z "},"Ĭ":{"ha":612,"x_min":45,"x_max":564,"o":"m 546 0 l 66 0 l 66 192 l 156 192 l 156 709 l 66 709 l 66 900 l 546 900 l 546 709 l 456 709 l 456 192 l 546 192 l 546 0 z m 427 951 l 182 951 l 83 1048 l 45 1205 l 139 1232 l 195 1108 l 415 1108 l 471 1232 l 564 1205 l 526 1048 l 427 951 z "},"Ǐ":{"ha":612,"x_min":49,"x_max":566,"o":"m 546 0 l 66 0 l 66 192 l 156 192 l 156 709 l 66 709 l 66 900 l 546 900 l 546 709 l 456 709 l 456 192 l 546 192 l 546 0 z m 392 964 l 221 964 l 49 1141 l 101 1194 l 306 1087 l 513 1194 l 566 1141 l 392 964 z "},"Î":{"ha":612,"x_min":50,"x_max":567,"o":"m 546 0 l 66 0 l 66 192 l 156 192 l 156 709 l 66 709 l 66 900 l 546 900 l 546 709 l 456 709 l 456 192 l 546 192 l 546 0 z m 310 1052 l 102 944 l 50 998 l 224 1174 l 395 1174 l 567 998 l 515 944 l 310 1052 z "},"Ȉ":{"ha":612,"x_min":-121,"x_max":546,"o":"m 546 0 l 66 0 l 66 192 l 156 192 l 156 709 l 66 709 l 66 900 l 546 900 l 546 709 l 456 709 l 456 192 l 546 192 l 546 0 z m 528 1048 l 468 972 l 235 1084 l 241 1181 l 336 1211 l 528 1048 z m 173 1048 l 113 972 l -121 1084 l -116 1178 l -19 1211 l 173 1048 z "},"Ï":{"ha":612,"x_min":12,"x_max":600,"o":"m 546 0 l 66 0 l 66 192 l 156 192 l 156 709 l 66 709 l 66 900 l 546 900 l 546 709 l 456 709 l 456 192 l 546 192 l 546 0 z m 600 970 l 372 970 l 372 1120 l 600 1120 l 600 970 z m 240 970 l 12 970 l 12 1120 l 240 1120 l 240 970 z "},"Ḯ":{"ha":612,"x_min":12,"x_max":605,"o":"m 546 0 l 66 0 l 66 192 l 156 192 l 156 709 l 66 709 l 66 900 l 546 900 l 546 709 l 456 709 l 456 192 l 546 192 l 546 0 z m 600 970 l 372 970 l 372 1120 l 600 1120 l 600 970 z m 240 970 l 12 970 l 12 1120 l 240 1120 l 240 970 z m 573 1263 l 232 1185 l 197 1268 l 500 1431 l 605 1378 l 573 1263 z "},"İ":{"ha":612,"x_min":66,"x_max":546,"o":"m 546 0 l 66 0 l 66 192 l 156 192 l 156 709 l 66 709 l 66 900 l 546 900 l 546 709 l 456 709 l 456 192 l 546 192 l 546 0 z m 455 963 l 155 963 l 155 1154 l 455 1154 l 455 963 z "},"Ị":{"ha":612,"x_min":66,"x_max":546,"o":"m 546 0 l 66 0 l 66 192 l 156 192 l 156 709 l 66 709 l 66 900 l 546 900 l 546 709 l 456 709 l 456 192 l 546 192 l 546 0 z m 456 -273 l 155 -273 l 155 -81 l 456 -81 l 456 -273 z "},"Ì":{"ha":612,"x_min":7,"x_max":546,"o":"m 546 0 l 66 0 l 66 192 l 156 192 l 156 709 l 66 709 l 66 900 l 546 900 l 546 709 l 456 709 l 456 192 l 546 192 l 546 0 z m 414 1035 l 379 952 l 39 1030 l 7 1145 l 112 1198 l 414 1035 z "},"Ỉ":{"ha":612,"x_min":66,"x_max":546,"o":"m 546 0 l 66 0 l 66 192 l 156 192 l 156 709 l 66 709 l 66 900 l 546 900 l 546 709 l 456 709 l 456 192 l 546 192 l 546 0 z m 464 935 l 327 935 l 327 1045 l 134 1045 l 134 1236 l 345 1236 l 464 1101 l 464 935 z "},"Ȋ":{"ha":612,"x_min":46,"x_max":565,"o":"m 546 0 l 66 0 l 66 192 l 156 192 l 156 709 l 66 709 l 66 900 l 546 900 l 546 709 l 456 709 l 456 192 l 546 192 l 546 0 z m 195 1103 l 140 979 l 46 1006 l 84 1162 l 183 1260 l 428 1260 l 527 1162 l 565 1006 l 471 979 l 416 1103 l 195 1103 z "},"Ī":{"ha":612,"x_min":58,"x_max":553,"o":"m 546 0 l 66 0 l 66 192 l 156 192 l 156 709 l 66 709 l 66 900 l 546 900 l 546 709 l 456 709 l 456 192 l 546 192 l 546 0 z m 553 985 l 58 985 l 58 1101 l 553 1101 l 553 985 z "},"Į":{"ha":612,"x_min":66,"x_max":551,"o":"m 546 0 l 66 0 l 66 192 l 156 192 l 156 709 l 66 709 l 66 900 l 546 900 l 546 709 l 456 709 l 456 192 l 546 192 l 546 0 z m 551 -337 l 339 -337 l 220 -201 l 220 -35 l 357 -35 l 357 -146 l 551 -146 l 551 -337 z "},"Ɨ":{"ha":612,"x_min":58,"x_max":553,"o":"m 546 0 l 66 0 l 66 192 l 156 192 l 156 709 l 66 709 l 66 900 l 546 900 l 546 709 l 456 709 l 456 192 l 546 192 l 546 0 z m 553 394 l 58 394 l 58 509 l 553 509 l 553 394 z "},"Ĩ":{"ha":612,"x_min":16,"x_max":597,"o":"m 546 0 l 66 0 l 66 192 l 156 192 l 156 709 l 66 709 l 66 900 l 546 900 l 546 709 l 456 709 l 456 192 l 546 192 l 546 0 z m 457 966 l 318 966 l 210 1044 l 182 1044 l 59 972 l 16 1025 l 156 1171 l 295 1171 l 404 1091 l 431 1091 l 554 1164 l 597 1111 l 457 966 z "},"J":{"ha":928,"x_min":35,"x_max":858,"o":"m 678 0 l 558 0 l 558 704 l 144 704 l 144 900 l 858 900 l 858 180 l 678 0 z m 511 0 l 216 0 l 35 180 l 35 377 l 347 377 l 347 180 l 511 180 l 511 0 z "},"Ĵ":{"ha":928,"x_min":35,"x_max":858,"o":"m 678 0 l 558 0 l 558 704 l 144 704 l 144 900 l 858 900 l 858 180 l 678 0 z m 511 0 l 216 0 l 35 180 l 35 377 l 347 377 l 347 180 l 511 180 l 511 0 z m 523 1052 l 315 944 l 263 998 l 437 1174 l 608 1174 l 780 998 l 728 944 l 523 1052 z "},"K":{"ha":929,"x_min":79,"x_max":962,"o":"m 947 900 l 425 127 l 425 565 l 635 900 l 947 900 z m 379 0 l 79 0 l 79 900 l 379 900 l 379 0 z m 962 0 l 637 0 l 536 210 l 713 476 l 962 0 z "},"Ķ":{"ha":929,"x_min":79,"x_max":962,"o":"m 947 900 l 425 127 l 425 565 l 635 900 l 947 900 z m 379 0 l 79 0 l 79 900 l 379 900 l 379 0 z m 962 0 l 637 0 l 536 210 l 713 476 l 962 0 z m 501 -433 l 380 -433 l 422 -278 l 315 -278 l 315 -80 l 614 -80 l 614 -248 l 501 -433 z "},"L":{"ha":863,"x_min":79,"x_max":847,"o":"m 379 0 l 79 0 l 79 900 l 379 900 l 379 0 z m 847 0 l 427 0 l 427 180 l 575 180 l 575 294 l 847 294 l 847 0 z "},"Ǉ":{"ha":1830,"x_min":79,"x_max":1760,"o":"m 379 0 l 79 0 l 79 900 l 379 900 l 379 0 z m 847 0 l 427 0 l 427 180 l 575 180 l 575 294 l 847 294 l 847 0 z m 1580 0 l 1460 0 l 1460 704 l 1046 704 l 1046 900 l 1760 900 l 1760 180 l 1580 0 z m 1413 0 l 1118 0 l 937 180 l 937 377 l 1249 377 l 1249 180 l 1413 180 l 1413 0 z "},"Ĺ":{"ha":863,"x_min":79,"x_max":847,"o":"m 379 0 l 79 0 l 79 900 l 379 900 l 379 0 z m 847 0 l 427 0 l 427 180 l 575 180 l 575 294 l 847 294 l 847 0 z m 496 1032 l 155 954 l 121 1037 l 423 1200 l 528 1147 l 496 1032 z "},"Ľ":{"ha":863,"x_min":79,"x_max":847,"o":"m 379 0 l 79 0 l 79 900 l 379 900 l 379 0 z m 847 0 l 427 0 l 427 180 l 575 180 l 575 294 l 847 294 l 847 0 z m 714 654 l 520 654 l 536 901 l 746 901 l 714 654 z "},"Ḽ":{"ha":863,"x_min":79,"x_max":847,"o":"m 379 0 l 79 0 l 79 900 l 379 900 l 379 0 z m 847 0 l 427 0 l 427 180 l 575 180 l 575 294 l 847 294 l 847 0 z m 430 -229 l 191 -372 l 127 -306 l 327 -79 l 533 -79 l 733 -306 l 670 -372 l 430 -229 z "},"Ļ":{"ha":863,"x_min":79,"x_max":847,"o":"m 379 0 l 79 0 l 79 900 l 379 900 l 379 0 z m 847 0 l 427 0 l 427 180 l 575 180 l 575 294 l 847 294 l 847 0 z m 467 -433 l 346 -433 l 387 -278 l 280 -278 l 280 -80 l 580 -80 l 580 -248 l 467 -433 z "},"Ŀ":{"ha":863,"x_min":79,"x_max":847,"o":"m 379 0 l 79 0 l 79 900 l 379 900 l 379 0 z m 847 0 l 427 0 l 427 180 l 575 180 l 575 294 l 847 294 l 847 0 z m 661 378 l 541 378 l 452 467 l 452 587 l 541 677 l 661 677 l 751 587 l 751 467 l 661 378 z "},"Ḷ":{"ha":863,"x_min":79,"x_max":847,"o":"m 379 0 l 79 0 l 79 900 l 379 900 l 379 0 z m 847 0 l 427 0 l 427 180 l 575 180 l 575 294 l 847 294 l 847 0 z m 580 -273 l 279 -273 l 279 -81 l 580 -81 l 580 -273 z "},"ǈ":{"ha":1335,"x_min":79,"x_max":1264,"o":"m 379 0 l 79 0 l 79 900 l 379 900 l 379 0 z m 847 0 l 427 0 l 427 180 l 575 180 l 575 294 l 847 294 l 847 0 z m 1263 810 l 964 810 l 964 1001 l 1263 1001 l 1263 810 z m 1084 -240 l 825 -240 l 825 -60 l 964 -60 l 964 720 l 1264 720 l 1264 -60 l 1084 -240 z "},"Ḻ":{"ha":863,"x_min":79,"x_max":847,"o":"m 379 0 l 79 0 l 79 900 l 379 900 l 379 0 z m 847 0 l 427 0 l 427 180 l 575 180 l 575 294 l 847 294 l 847 0 z m 677 -182 l 182 -182 l 182 -67 l 677 -67 l 677 -182 z "},"Ł":{"ha":900,"x_min":-20,"x_max":888,"o":"m 420 0 l 120 0 l 120 301 l 41 269 l -20 403 l 120 460 l 120 900 l 420 900 l 420 585 l 661 686 l 722 551 l 420 425 l 420 0 z m 888 0 l 467 0 l 467 180 l 616 180 l 616 294 l 888 294 l 888 0 z "},"M":{"ha":1253,"x_min":79,"x_max":1174,"o":"m 830 372 l 614 0 l 80 900 l 399 900 l 640 500 l 830 825 l 830 372 z m 1174 0 l 874 0 l 874 900 l 1174 900 l 1174 0 z m 359 0 l 79 0 l 79 817 l 359 347 l 359 0 z "},"Ḿ":{"ha":1253,"x_min":79,"x_max":1174,"o":"m 830 372 l 614 0 l 80 900 l 399 900 l 640 500 l 830 825 l 830 372 z m 1174 0 l 874 0 l 874 900 l 1174 900 l 1174 0 z m 359 0 l 79 0 l 79 817 l 359 347 l 359 0 z m 896 1032 l 555 954 l 520 1037 l 823 1200 l 928 1147 l 896 1032 z "},"Ṃ":{"ha":1253,"x_min":79,"x_max":1174,"o":"m 830 372 l 614 0 l 80 900 l 399 900 l 640 500 l 830 825 l 830 372 z m 1174 0 l 874 0 l 874 900 l 1174 900 l 1174 0 z m 359 0 l 79 0 l 79 817 l 359 347 l 359 0 z m 777 -273 l 476 -273 l 476 -81 l 777 -81 l 777 -273 z "},"N":{"ha":1023,"x_min":79,"x_max":943,"o":"m 943 0 l 625 0 l 79 900 l 396 900 l 943 0 z m 943 900 l 943 85 l 682 515 l 682 900 l 943 900 z m 340 0 l 79 0 l 79 814 l 340 387 l 340 0 z "},"Ǌ":{"ha":1951,"x_min":79,"x_max":1881,"o":"m 943 0 l 625 0 l 79 900 l 396 900 l 943 0 z m 943 900 l 943 85 l 682 515 l 682 900 l 943 900 z m 340 0 l 79 0 l 79 814 l 340 387 l 340 0 z m 1701 0 l 1581 0 l 1581 704 l 1167 704 l 1167 900 l 1881 900 l 1881 180 l 1701 0 z m 1533 0 l 1238 0 l 1058 180 l 1058 377 l 1369 377 l 1369 180 l 1533 180 l 1533 0 z "},"Ń":{"ha":1023,"x_min":79,"x_max":943,"o":"m 943 0 l 625 0 l 79 900 l 396 900 l 943 0 z m 943 900 l 943 85 l 682 515 l 682 900 l 943 900 z m 340 0 l 79 0 l 79 814 l 340 387 l 340 0 z m 772 1031 l 431 954 l 396 1036 l 699 1199 l 804 1146 l 772 1031 z "},"Ň":{"ha":1023,"x_min":79,"x_max":943,"o":"m 943 0 l 625 0 l 79 900 l 396 900 l 943 0 z m 943 900 l 943 85 l 682 515 l 682 900 l 943 900 z m 340 0 l 79 0 l 79 814 l 340 387 l 340 0 z m 591 964 l 420 964 l 248 1141 l 300 1194 l 505 1087 l 712 1194 l 765 1141 l 591 964 z "},"Ṋ":{"ha":1023,"x_min":79,"x_max":943,"o":"m 943 0 l 625 0 l 79 900 l 396 900 l 943 0 z m 943 900 l 943 85 l 682 515 l 682 900 l 943 900 z m 340 0 l 79 0 l 79 814 l 340 387 l 340 0 z m 511 -229 l 272 -372 l 208 -306 l 408 -79 l 614 -79 l 814 -306 l 751 -372 l 511 -229 z "},"Ņ":{"ha":1023,"x_min":79,"x_max":943,"o":"m 943 0 l 625 0 l 79 900 l 396 900 l 943 0 z m 943 900 l 943 85 l 682 515 l 682 900 l 943 900 z m 340 0 l 79 0 l 79 814 l 340 387 l 340 0 z m 548 -433 l 427 -433 l 469 -278 l 361 -278 l 361 -80 l 661 -80 l 661 -248 l 548 -433 z "},"Ṅ":{"ha":1023,"x_min":79,"x_max":943,"o":"m 943 0 l 625 0 l 79 900 l 396 900 l 943 0 z m 943 900 l 943 85 l 682 515 l 682 900 l 943 900 z m 340 0 l 79 0 l 79 814 l 340 387 l 340 0 z m 654 963 l 353 963 l 353 1154 l 654 1154 l 654 963 z "},"Ṇ":{"ha":1023,"x_min":79,"x_max":943,"o":"m 943 0 l 625 0 l 79 900 l 396 900 l 943 0 z m 943 900 l 943 85 l 682 515 l 682 900 l 943 900 z m 340 0 l 79 0 l 79 814 l 340 387 l 340 0 z m 661 -273 l 361 -273 l 361 -81 l 661 -81 l 661 -273 z "},"Ŋ":{"ha":1023,"x_min":79,"x_max":943,"o":"m 764 -301 l 461 -301 l 461 -121 l 682 -121 l 682 900 l 943 900 l 943 -74 l 764 -301 z m 637 503 l 637 0 l 79 900 l 396 900 l 637 503 z m 340 0 l 79 0 l 79 814 l 340 392 l 340 0 z "},"ǋ":{"ha":1466,"x_min":79,"x_max":1394,"o":"m 943 0 l 625 0 l 79 900 l 396 900 l 943 0 z m 943 900 l 943 85 l 682 515 l 682 900 l 943 900 z m 340 0 l 79 0 l 79 814 l 340 387 l 340 0 z m 1394 810 l 1094 810 l 1094 1001 l 1394 1001 l 1394 810 z m 1214 -240 l 955 -240 l 955 -60 l 1094 -60 l 1094 720 l 1394 720 l 1394 -60 l 1214 -240 z "},"Ṉ":{"ha":1023,"x_min":79,"x_max":943,"o":"m 943 0 l 625 0 l 79 900 l 396 900 l 943 0 z m 943 900 l 943 85 l 682 515 l 682 900 l 943 900 z m 340 0 l 79 0 l 79 814 l 340 387 l 340 0 z m 758 -182 l 264 -182 l 264 -67 l 758 -67 l 758 -182 z "},"Ñ":{"ha":1023,"x_min":79,"x_max":943,"o":"m 943 0 l 625 0 l 79 900 l 396 900 l 943 0 z m 943 900 l 943 85 l 682 515 l 682 900 l 943 900 z m 340 0 l 79 0 l 79 814 l 340 387 l 340 0 z m 656 966 l 517 966 l 408 1044 l 380 1044 l 258 972 l 214 1025 l 355 1171 l 494 1171 l 602 1091 l 630 1091 l 753 1164 l 796 1111 l 656 966 z "},"O":{"ha":992,"x_min":58,"x_max":933,"o":"m 751 0 l 519 0 l 519 183 l 633 183 l 633 718 l 519 718 l 519 900 l 751 900 l 933 720 l 933 180 l 751 0 z m 471 0 l 241 0 l 58 180 l 58 720 l 241 900 l 471 900 l 471 718 l 359 718 l 359 183 l 471 183 l 471 0 z "},"Ó":{"ha":992,"x_min":58,"x_max":933,"o":"m 751 0 l 519 0 l 519 183 l 633 183 l 633 718 l 519 718 l 519 900 l 751 900 l 933 720 l 933 180 l 751 0 z m 471 0 l 241 0 l 58 180 l 58 720 l 241 900 l 471 900 l 471 718 l 359 718 l 359 183 l 471 183 l 471 0 z m 763 1032 l 422 954 l 387 1037 l 690 1200 l 795 1147 l 763 1032 z "},"Ŏ":{"ha":992,"x_min":58,"x_max":933,"o":"m 751 0 l 519 0 l 519 183 l 633 183 l 633 718 l 519 718 l 519 900 l 751 900 l 933 720 l 933 180 l 751 0 z m 471 0 l 241 0 l 58 180 l 58 720 l 241 900 l 471 900 l 471 718 l 359 718 l 359 183 l 471 183 l 471 0 z m 617 951 l 372 951 l 273 1049 l 235 1206 l 329 1232 l 385 1109 l 605 1109 l 661 1232 l 754 1206 l 716 1049 l 617 951 z "},"Ǒ":{"ha":992,"x_min":58,"x_max":933,"o":"m 751 0 l 519 0 l 519 183 l 633 183 l 633 718 l 519 718 l 519 900 l 751 900 l 933 720 l 933 180 l 751 0 z m 471 0 l 241 0 l 58 180 l 58 720 l 241 900 l 471 900 l 471 718 l 359 718 l 359 183 l 471 183 l 471 0 z m 582 965 l 411 965 l 239 1142 l 291 1195 l 496 1088 l 703 1195 l 756 1141 l 582 965 z "},"Ô":{"ha":992,"x_min":58,"x_max":933,"o":"m 751 0 l 519 0 l 519 183 l 633 183 l 633 718 l 519 718 l 519 900 l 751 900 l 933 720 l 933 180 l 751 0 z m 471 0 l 241 0 l 58 180 l 58 720 l 241 900 l 471 900 l 471 718 l 359 718 l 359 183 l 471 183 l 471 0 z m 500 1053 l 292 945 l 240 999 l 414 1175 l 585 1175 l 757 998 l 705 945 l 500 1053 z "},"Ố":{"ha":992,"x_min":58,"x_max":983,"o":"m 751 0 l 519 0 l 519 183 l 633 183 l 633 718 l 519 718 l 519 900 l 751 900 l 933 720 l 933 180 l 751 0 z m 471 0 l 241 0 l 58 180 l 58 720 l 241 900 l 471 900 l 471 718 l 359 718 l 359 183 l 471 183 l 471 0 z m 953 1208 l 682 1109 l 628 1183 l 882 1371 l 983 1324 l 953 1208 z m 494 1059 l 298 942 l 246 996 l 410 1181 l 578 1181 l 743 996 l 691 942 l 494 1059 z "},"Ộ":{"ha":992,"x_min":58,"x_max":933,"o":"m 751 0 l 519 0 l 519 183 l 633 183 l 633 718 l 519 718 l 519 900 l 751 900 l 933 720 l 933 180 l 751 0 z m 471 0 l 241 0 l 58 180 l 58 720 l 241 900 l 471 900 l 471 718 l 359 718 l 359 183 l 471 183 l 471 0 z m 646 -273 l 346 -273 l 346 -81 l 646 -81 l 646 -273 z m 500 1053 l 292 945 l 240 999 l 414 1175 l 585 1175 l 757 998 l 705 945 l 500 1053 z "},"Ồ":{"ha":992,"x_min":-14,"x_max":933,"o":"m 751 0 l 519 0 l 519 183 l 633 183 l 633 718 l 519 718 l 519 900 l 751 900 l 933 720 l 933 180 l 751 0 z m 471 0 l 241 0 l 58 180 l 58 720 l 241 900 l 471 900 l 471 718 l 359 718 l 359 183 l 471 183 l 471 0 z m 341 1181 l 287 1107 l 16 1206 l -14 1322 l 87 1369 l 341 1181 z m 493 1059 l 297 942 l 245 996 l 409 1181 l 577 1181 l 741 996 l 690 942 l 493 1059 z "},"Ổ":{"ha":992,"x_min":58,"x_max":933,"o":"m 751 0 l 519 0 l 519 183 l 633 183 l 633 718 l 519 718 l 519 900 l 751 900 l 933 720 l 933 180 l 751 0 z m 471 0 l 241 0 l 58 180 l 58 720 l 241 900 l 471 900 l 471 718 l 359 718 l 359 183 l 471 183 l 471 0 z m 559 1206 l 445 1206 l 445 1285 l 283 1285 l 283 1411 l 480 1411 l 559 1332 l 559 1206 z m 493 1059 l 297 942 l 245 996 l 409 1181 l 577 1181 l 741 996 l 690 942 l 493 1059 z "},"Ỗ":{"ha":992,"x_min":58,"x_max":933,"o":"m 751 0 l 519 0 l 519 183 l 633 183 l 633 718 l 519 718 l 519 900 l 751 900 l 933 720 l 933 180 l 751 0 z m 471 0 l 241 0 l 58 180 l 58 720 l 241 900 l 471 900 l 471 718 l 359 718 l 359 183 l 471 183 l 471 0 z m 621 1217 l 467 1217 l 408 1298 l 372 1298 l 296 1236 l 250 1284 l 355 1400 l 509 1400 l 568 1318 l 604 1318 l 679 1381 l 726 1333 l 621 1217 z m 493 1059 l 297 942 l 245 996 l 409 1181 l 577 1181 l 741 996 l 690 942 l 493 1059 z "},"Ȍ":{"ha":992,"x_min":58,"x_max":933,"o":"m 751 0 l 519 0 l 519 183 l 633 183 l 633 718 l 519 718 l 519 900 l 751 900 l 933 720 l 933 180 l 751 0 z m 471 0 l 241 0 l 58 180 l 58 720 l 241 900 l 471 900 l 471 718 l 359 718 l 359 183 l 471 183 l 471 0 z m 718 1048 l 658 972 l 425 1084 l 431 1181 l 526 1211 l 718 1048 z m 363 1048 l 302 972 l 69 1084 l 74 1179 l 171 1211 l 363 1048 z "},"Ö":{"ha":992,"x_min":58,"x_max":933,"o":"m 751 0 l 519 0 l 519 183 l 633 183 l 633 718 l 519 718 l 519 900 l 751 900 l 933 720 l 933 180 l 751 0 z m 471 0 l 241 0 l 58 180 l 58 720 l 241 900 l 471 900 l 471 718 l 359 718 l 359 183 l 471 183 l 471 0 z m 789 970 l 562 970 l 562 1120 l 789 1120 l 789 970 z m 430 970 l 202 970 l 202 1120 l 430 1120 l 430 970 z "},"Ȫ":{"ha":992,"x_min":58,"x_max":933,"o":"m 751 0 l 519 0 l 519 183 l 633 183 l 633 718 l 519 718 l 519 900 l 751 900 l 933 720 l 933 180 l 751 0 z m 471 0 l 241 0 l 58 180 l 58 720 l 241 900 l 471 900 l 471 718 l 359 718 l 359 183 l 471 183 l 471 0 z m 789 970 l 562 970 l 562 1120 l 789 1120 l 789 970 z m 430 970 l 202 970 l 202 1120 l 430 1120 l 430 970 z m 743 1218 l 248 1218 l 248 1333 l 743 1333 l 743 1218 z "},"Ȱ":{"ha":992,"x_min":58,"x_max":933,"o":"m 751 0 l 519 0 l 519 183 l 633 183 l 633 718 l 519 718 l 519 900 l 751 900 l 933 720 l 933 180 l 751 0 z m 471 0 l 241 0 l 58 180 l 58 720 l 241 900 l 471 900 l 471 718 l 359 718 l 359 183 l 471 183 l 471 0 z m 645 964 l 345 964 l 345 1155 l 645 1155 l 645 964 z m 742 1192 l 248 1192 l 248 1307 l 742 1307 l 742 1192 z "},"Ọ":{"ha":992,"x_min":58,"x_max":933,"o":"m 751 0 l 519 0 l 519 183 l 633 183 l 633 718 l 519 718 l 519 900 l 751 900 l 933 720 l 933 180 l 751 0 z m 471 0 l 241 0 l 58 180 l 58 720 l 241 900 l 471 900 l 471 718 l 359 718 l 359 183 l 471 183 l 471 0 z m 646 -273 l 346 -273 l 346 -81 l 646 -81 l 646 -273 z "},"Ò":{"ha":992,"x_min":58,"x_max":933,"o":"m 751 0 l 519 0 l 519 183 l 633 183 l 633 718 l 519 718 l 519 900 l 751 900 l 933 720 l 933 180 l 751 0 z m 471 0 l 241 0 l 58 180 l 58 720 l 241 900 l 471 900 l 471 718 l 359 718 l 359 183 l 471 183 l 471 0 z m 604 1036 l 569 953 l 229 1031 l 197 1145 l 302 1198 l 604 1036 z "},"Ỏ":{"ha":992,"x_min":58,"x_max":933,"o":"m 751 0 l 519 0 l 519 183 l 633 183 l 633 718 l 519 718 l 519 900 l 751 900 l 933 720 l 933 180 l 751 0 z m 471 0 l 241 0 l 58 180 l 58 720 l 241 900 l 471 900 l 471 718 l 359 718 l 359 183 l 471 183 l 471 0 z m 654 935 l 517 935 l 517 1046 l 323 1046 l 323 1237 l 535 1237 l 654 1101 l 654 935 z "},"Ơ":{"ha":992,"x_min":58,"x_max":1019,"o":"m 751 0 l 519 0 l 519 183 l 633 183 l 633 718 l 519 718 l 519 900 l 827 900 l 827 1093 l 1019 1093 l 1019 882 l 886 766 l 933 720 l 933 180 l 751 0 z m 471 0 l 241 0 l 58 180 l 58 720 l 241 900 l 471 900 l 471 718 l 359 718 l 359 183 l 471 183 l 471 0 z "},"Ớ":{"ha":992,"x_min":58,"x_max":1019,"o":"m 751 0 l 519 0 l 519 183 l 633 183 l 633 718 l 519 718 l 519 900 l 827 900 l 827 1093 l 1019 1093 l 1019 882 l 886 766 l 933 720 l 933 180 l 751 0 z m 471 0 l 241 0 l 58 180 l 58 720 l 241 900 l 471 900 l 471 718 l 359 718 l 359 183 l 471 183 l 471 0 z m 720 1077 l 369 970 l 302 1063 l 632 1278 l 757 1220 l 720 1077 z "},"Ợ":{"ha":992,"x_min":58,"x_max":1019,"o":"m 751 0 l 519 0 l 519 183 l 633 183 l 633 718 l 519 718 l 519 900 l 827 900 l 827 1093 l 1019 1093 l 1019 882 l 886 766 l 933 720 l 933 180 l 751 0 z m 471 0 l 241 0 l 58 180 l 58 720 l 241 900 l 471 900 l 471 718 l 359 718 l 359 183 l 471 183 l 471 0 z m 646 -273 l 346 -273 l 346 -81 l 646 -81 l 646 -273 z "},"Ờ":{"ha":992,"x_min":58,"x_max":1019,"o":"m 751 0 l 519 0 l 519 183 l 633 183 l 633 718 l 519 718 l 519 900 l 827 900 l 827 1093 l 1019 1093 l 1019 882 l 886 766 l 933 720 l 933 180 l 751 0 z m 471 0 l 241 0 l 58 180 l 58 720 l 241 900 l 471 900 l 471 718 l 359 718 l 359 183 l 471 183 l 471 0 z m 694 1084 l 653 984 l 277 1097 l 240 1240 l 365 1298 l 694 1084 z "},"Ở":{"ha":992,"x_min":58,"x_max":1019,"o":"m 751 0 l 519 0 l 519 183 l 633 183 l 633 718 l 519 718 l 519 900 l 827 900 l 827 1093 l 1019 1093 l 1019 882 l 886 766 l 933 720 l 933 180 l 751 0 z m 471 0 l 241 0 l 58 180 l 58 720 l 241 900 l 471 900 l 471 718 l 359 718 l 359 183 l 471 183 l 471 0 z m 654 935 l 517 935 l 517 1046 l 323 1046 l 323 1237 l 535 1237 l 654 1101 l 654 935 z "},"Ỡ":{"ha":992,"x_min":58,"x_max":1019,"o":"m 751 0 l 519 0 l 519 183 l 633 183 l 633 718 l 519 718 l 519 900 l 827 900 l 827 1093 l 1019 1093 l 1019 882 l 886 766 l 933 720 l 933 180 l 751 0 z m 471 0 l 241 0 l 58 180 l 58 720 l 241 900 l 471 900 l 471 718 l 359 718 l 359 183 l 471 183 l 471 0 z m 688 1009 l 496 1009 l 423 1111 l 378 1111 l 284 1034 l 225 1093 l 357 1238 l 549 1238 l 623 1135 l 668 1135 l 762 1213 l 821 1154 l 688 1009 z "},"Ő":{"ha":992,"x_min":58,"x_max":933,"o":"m 751 0 l 519 0 l 519 183 l 633 183 l 633 718 l 519 718 l 519 900 l 751 900 l 933 720 l 933 180 l 751 0 z m 471 0 l 241 0 l 58 180 l 58 720 l 241 900 l 471 900 l 471 718 l 359 718 l 359 183 l 471 183 l 471 0 z m 932 1072 l 699 960 l 639 1036 l 831 1198 l 931 1166 l 932 1072 z m 577 1072 l 344 960 l 283 1036 l 475 1198 l 576 1166 l 577 1072 z "},"Ȏ":{"ha":992,"x_min":58,"x_max":933,"o":"m 751 0 l 519 0 l 519 183 l 633 183 l 633 718 l 519 718 l 519 900 l 751 900 l 933 720 l 933 180 l 751 0 z m 471 0 l 241 0 l 58 180 l 58 720 l 241 900 l 471 900 l 471 718 l 359 718 l 359 183 l 471 183 l 471 0 z m 385 1103 l 330 980 l 236 1006 l 274 1163 l 373 1261 l 618 1261 l 717 1163 l 755 1006 l 661 980 l 606 1103 l 385 1103 z "},"Ō":{"ha":992,"x_min":58,"x_max":933,"o":"m 751 0 l 519 0 l 519 183 l 633 183 l 633 718 l 519 718 l 519 900 l 751 900 l 933 720 l 933 180 l 751 0 z m 471 0 l 241 0 l 58 180 l 58 720 l 241 900 l 471 900 l 471 718 l 359 718 l 359 183 l 471 183 l 471 0 z m 743 986 l 248 986 l 248 1101 l 743 1101 l 743 986 z "},"Ṓ":{"ha":992,"x_min":58,"x_max":933,"o":"m 751 0 l 519 0 l 519 183 l 633 183 l 633 718 l 519 718 l 519 900 l 751 900 l 933 720 l 933 180 l 751 0 z m 471 0 l 241 0 l 58 180 l 58 720 l 241 900 l 471 900 l 471 718 l 359 718 l 359 183 l 471 183 l 471 0 z m 743 986 l 248 986 l 248 1101 l 743 1101 l 743 986 z m 763 1211 l 422 1133 l 387 1215 l 690 1378 l 795 1325 l 763 1211 z "},"Ṑ":{"ha":992,"x_min":58,"x_max":933,"o":"m 751 0 l 519 0 l 519 183 l 633 183 l 633 718 l 519 718 l 519 900 l 751 900 l 933 720 l 933 180 l 751 0 z m 471 0 l 241 0 l 58 180 l 58 720 l 241 900 l 471 900 l 471 718 l 359 718 l 359 183 l 471 183 l 471 0 z m 743 986 l 248 986 l 248 1101 l 743 1101 l 743 986 z m 604 1214 l 569 1131 l 229 1209 l 197 1324 l 302 1377 l 604 1214 z "},"Ǫ":{"ha":992,"x_min":58,"x_max":933,"o":"m 751 0 l 519 0 l 519 183 l 633 183 l 633 718 l 519 718 l 519 900 l 751 900 l 933 720 l 933 180 l 751 0 z m 471 0 l 241 0 l 58 180 l 58 720 l 241 900 l 471 900 l 471 718 l 359 718 l 359 183 l 471 183 l 471 0 z m 893 -337 l 682 -337 l 563 -201 l 563 -35 l 700 -35 l 700 -146 l 893 -146 l 893 -337 z "},"Ɔ":{"ha":977,"x_min":64,"x_max":911,"o":"m 730 0 l 611 0 l 611 900 l 730 900 l 911 720 l 911 180 l 730 0 z m 364 589 l 64 589 l 64 720 l 244 900 l 564 900 l 564 720 l 364 720 l 364 589 z m 564 0 l 244 0 l 64 180 l 64 361 l 364 361 l 364 180 l 564 180 l 564 0 z "},"Ø":{"ha":987,"x_min":58,"x_max":928,"o":"m 749 0 l 438 0 l 485 180 l 629 180 l 629 720 l 552 720 l 626 1017 l 862 960 l 825 823 l 928 720 l 928 180 l 749 0 z m 437 180 l 362 -117 l 127 -60 l 163 75 l 58 180 l 58 720 l 239 900 l 552 900 l 503 720 l 359 720 l 359 180 l 437 180 z "},"Ǿ":{"ha":987,"x_min":58,"x_max":928,"o":"m 749 0 l 438 0 l 485 180 l 629 180 l 629 720 l 552 720 l 626 1017 l 862 960 l 825 823 l 928 720 l 928 180 l 749 0 z m 437 180 l 362 -117 l 127 -60 l 163 75 l 58 180 l 58 720 l 239 900 l 552 900 l 503 720 l 359 720 l 359 180 l 437 180 z m 761 1067 l 420 989 l 385 1072 l 688 1235 l 793 1182 l 761 1067 z "},"Õ":{"ha":992,"x_min":58,"x_max":933,"o":"m 751 0 l 519 0 l 519 183 l 633 183 l 633 718 l 519 718 l 519 900 l 751 900 l 933 720 l 933 180 l 751 0 z m 471 0 l 241 0 l 58 180 l 58 720 l 241 900 l 471 900 l 471 718 l 359 718 l 359 183 l 471 183 l 471 0 z m 647 966 l 508 966 l 399 1045 l 372 1045 l 249 973 l 205 1026 l 346 1171 l 485 1171 l 593 1092 l 621 1092 l 744 1164 l 787 1112 l 647 966 z "},"Ṍ":{"ha":992,"x_min":58,"x_max":933,"o":"m 751 0 l 519 0 l 519 183 l 633 183 l 633 718 l 519 718 l 519 900 l 751 900 l 933 720 l 933 180 l 751 0 z m 471 0 l 241 0 l 58 180 l 58 720 l 241 900 l 471 900 l 471 718 l 359 718 l 359 183 l 471 183 l 471 0 z m 647 966 l 508 966 l 399 1045 l 372 1045 l 249 973 l 205 1026 l 346 1171 l 485 1171 l 593 1092 l 621 1092 l 744 1164 l 787 1112 l 647 966 z m 764 1264 l 422 1186 l 388 1269 l 690 1432 l 795 1379 l 764 1264 z "},"Ṏ":{"ha":992,"x_min":58,"x_max":933,"o":"m 751 0 l 519 0 l 519 183 l 633 183 l 633 718 l 519 718 l 519 900 l 751 900 l 933 720 l 933 180 l 751 0 z m 471 0 l 241 0 l 58 180 l 58 720 l 241 900 l 471 900 l 471 718 l 359 718 l 359 183 l 471 183 l 471 0 z m 647 966 l 508 966 l 399 1045 l 372 1045 l 249 973 l 205 1026 l 346 1171 l 485 1171 l 593 1092 l 621 1092 l 744 1164 l 787 1112 l 647 966 z m 790 1202 l 562 1202 l 562 1352 l 790 1352 l 790 1202 z m 431 1202 l 203 1202 l 203 1352 l 431 1352 l 431 1202 z "},"Ȭ":{"ha":992,"x_min":58,"x_max":933,"o":"m 751 0 l 519 0 l 519 183 l 633 183 l 633 718 l 519 718 l 519 900 l 751 900 l 933 720 l 933 180 l 751 0 z m 471 0 l 241 0 l 58 180 l 58 720 l 241 900 l 471 900 l 471 718 l 359 718 l 359 183 l 471 183 l 471 0 z m 647 966 l 508 966 l 399 1045 l 372 1045 l 249 973 l 205 1026 l 346 1171 l 485 1171 l 593 1092 l 621 1092 l 744 1164 l 787 1112 l 647 966 z m 743 1218 l 249 1218 l 249 1333 l 743 1333 l 743 1218 z "},"Œ":{"ha":1533,"x_min":58,"x_max":1469,"o":"m 715 0 l 516 0 l 516 180 l 629 180 l 629 720 l 516 720 l 516 900 l 715 900 l 778 840 l 837 900 l 928 900 l 928 532 l 1229 532 l 1229 375 l 928 375 l 928 0 l 837 0 l 777 60 l 715 0 z m 471 0 l 239 0 l 58 180 l 58 720 l 239 900 l 471 900 l 471 720 l 359 720 l 359 180 l 471 180 l 471 0 z m 1469 630 l 1169 630 l 1169 720 l 975 720 l 975 900 l 1469 900 l 1469 630 z m 1469 0 l 975 0 l 975 180 l 1169 180 l 1169 270 l 1469 270 l 1469 0 z "},"P":{"ha":990,"x_min":79,"x_max":937,"o":"m 758 231 l 421 231 l 421 412 l 639 412 l 639 720 l 421 720 l 421 900 l 758 900 l 937 720 l 937 412 l 758 231 z m 374 0 l 79 0 l 79 900 l 374 900 l 374 0 z "},"Þ":{"ha":993,"x_min":71,"x_max":928,"o":"m 364 0 l 71 0 l 71 900 l 364 900 l 364 0 z m 748 142 l 412 142 l 412 321 l 634 321 l 634 592 l 412 592 l 412 772 l 748 772 l 928 592 l 928 321 l 748 142 z "},"Q":{"ha":987,"x_min":58,"x_max":928,"o":"m 888 -96 l 727 -252 l 463 0 l 239 0 l 58 180 l 58 720 l 239 900 l 470 900 l 470 720 l 358 720 l 358 180 l 595 180 l 888 -96 z m 928 180 l 799 49 l 629 206 l 629 720 l 516 720 l 516 900 l 749 900 l 928 720 l 928 180 z "},"R":{"ha":1008,"x_min":79,"x_max":980,"o":"m 532 270 l 427 270 l 427 444 l 652 444 l 652 720 l 427 720 l 427 900 l 769 900 l 949 720 l 949 450 l 810 311 l 980 0 l 660 0 l 532 270 z m 379 0 l 79 0 l 79 900 l 379 900 l 379 0 z "},"Ŕ":{"ha":1008,"x_min":79,"x_max":980,"o":"m 532 270 l 427 270 l 427 444 l 652 444 l 652 720 l 427 720 l 427 900 l 769 900 l 949 720 l 949 450 l 810 311 l 980 0 l 660 0 l 532 270 z m 379 0 l 79 0 l 79 900 l 379 900 l 379 0 z m 796 1031 l 455 954 l 420 1036 l 723 1199 l 828 1146 l 796 1031 z "},"Ř":{"ha":1008,"x_min":79,"x_max":980,"o":"m 532 270 l 427 270 l 427 444 l 652 444 l 652 720 l 427 720 l 427 900 l 769 900 l 949 720 l 949 450 l 810 311 l 980 0 l 660 0 l 532 270 z m 379 0 l 79 0 l 79 900 l 379 900 l 379 0 z m 615 964 l 444 964 l 272 1141 l 324 1194 l 529 1087 l 736 1194 l 789 1141 l 615 964 z "},"Ŗ":{"ha":1008,"x_min":79,"x_max":980,"o":"m 532 270 l 427 270 l 427 444 l 652 444 l 652 720 l 427 720 l 427 900 l 769 900 l 949 720 l 949 450 l 810 311 l 980 0 l 660 0 l 532 270 z m 379 0 l 79 0 l 79 900 l 379 900 l 379 0 z m 541 -433 l 420 -433 l 461 -278 l 354 -278 l 354 -80 l 654 -80 l 654 -248 l 541 -433 z "},"Ȑ":{"ha":1008,"x_min":79,"x_max":980,"o":"m 532 270 l 427 270 l 427 444 l 652 444 l 652 720 l 427 720 l 427 900 l 769 900 l 949 720 l 949 450 l 810 311 l 980 0 l 660 0 l 532 270 z m 379 0 l 79 0 l 79 900 l 379 900 l 379 0 z m 751 1048 l 691 972 l 458 1084 l 465 1181 l 559 1211 l 751 1048 z m 396 1048 l 336 972 l 102 1084 l 107 1178 l 204 1211 l 396 1048 z "},"Ṛ":{"ha":1008,"x_min":79,"x_max":980,"o":"m 532 270 l 427 270 l 427 444 l 652 444 l 652 720 l 427 720 l 427 900 l 769 900 l 949 720 l 949 450 l 810 311 l 980 0 l 660 0 l 532 270 z m 379 0 l 79 0 l 79 900 l 379 900 l 379 0 z m 654 -273 l 353 -273 l 353 -81 l 654 -81 l 654 -273 z "},"Ȓ":{"ha":1008,"x_min":79,"x_max":980,"o":"m 532 270 l 427 270 l 427 444 l 652 444 l 652 720 l 427 720 l 427 900 l 769 900 l 949 720 l 949 450 l 810 311 l 980 0 l 660 0 l 532 270 z m 379 0 l 79 0 l 79 900 l 379 900 l 379 0 z m 418 1103 l 363 979 l 269 1006 l 307 1162 l 406 1260 l 651 1260 l 750 1162 l 788 1006 l 694 979 l 639 1103 l 418 1103 z "},"Ṟ":{"ha":1008,"x_min":79,"x_max":980,"o":"m 532 270 l 427 270 l 427 444 l 652 444 l 652 720 l 427 720 l 427 900 l 769 900 l 949 720 l 949 450 l 810 311 l 980 0 l 660 0 l 532 270 z m 379 0 l 79 0 l 79 900 l 379 900 l 379 0 z m 751 -182 l 256 -182 l 256 -67 l 751 -67 l 751 -182 z "},"S":{"ha":1002,"x_min":66,"x_max":936,"o":"m 756 0 l 635 0 l 635 337 l 246 337 l 66 517 l 66 720 l 246 900 l 348 900 l 348 581 l 762 581 l 936 400 l 936 180 l 756 0 z m 911 648 l 635 648 l 635 738 l 395 738 l 395 900 l 755 900 l 911 743 l 911 648 z m 588 0 l 217 0 l 66 180 l 66 270 l 366 270 l 366 163 l 588 163 l 588 0 z "},"Ś":{"ha":1002,"x_min":66,"x_max":936,"o":"m 756 0 l 635 0 l 635 337 l 246 337 l 66 517 l 66 720 l 246 900 l 348 900 l 348 581 l 762 581 l 936 400 l 936 180 l 756 0 z m 911 648 l 635 648 l 635 738 l 395 738 l 395 900 l 755 900 l 911 743 l 911 648 z m 588 0 l 217 0 l 66 180 l 66 270 l 366 270 l 366 163 l 588 163 l 588 0 z m 787 1036 l 446 958 l 412 1041 l 714 1204 l 819 1151 l 787 1036 z "},"Ṥ":{"ha":1002,"x_min":66,"x_max":936,"o":"m 756 0 l 635 0 l 635 337 l 246 337 l 66 517 l 66 720 l 246 900 l 348 900 l 348 581 l 762 581 l 936 400 l 936 180 l 756 0 z m 911 648 l 635 648 l 635 738 l 395 738 l 395 900 l 755 900 l 911 743 l 911 648 z m 588 0 l 217 0 l 66 180 l 66 270 l 366 270 l 366 163 l 588 163 l 588 0 z m 787 1036 l 446 958 l 412 1041 l 714 1204 l 819 1151 l 787 1036 z m 567 1130 l 267 1130 l 267 1321 l 567 1321 l 567 1130 z "},"Ꞌ":{"ha":475,"x_min":79,"x_max":397,"o":"m 340 192 l 142 192 l 79 900 l 397 900 l 340 192 z "},"Š":{"ha":1002,"x_min":66,"x_max":936,"o":"m 756 0 l 635 0 l 635 337 l 246 337 l 66 517 l 66 720 l 246 900 l 348 900 l 348 581 l 762 581 l 936 400 l 936 180 l 756 0 z m 911 648 l 635 648 l 635 738 l 395 738 l 395 900 l 755 900 l 911 743 l 911 648 z m 588 0 l 217 0 l 66 180 l 66 270 l 366 270 l 366 163 l 588 163 l 588 0 z m 606 969 l 435 969 l 263 1146 l 315 1199 l 520 1092 l 728 1199 l 781 1145 l 606 969 z "},"Ṧ":{"ha":1002,"x_min":66,"x_max":936,"o":"m 756 0 l 635 0 l 635 337 l 246 337 l 66 517 l 66 720 l 246 900 l 348 900 l 348 581 l 762 581 l 936 400 l 936 180 l 756 0 z m 911 648 l 635 648 l 635 738 l 395 738 l 395 900 l 755 900 l 911 743 l 911 648 z m 588 0 l 217 0 l 66 180 l 66 270 l 366 270 l 366 163 l 588 163 l 588 0 z m 606 969 l 435 969 l 263 1146 l 315 1199 l 520 1092 l 728 1199 l 781 1145 l 606 969 z m 671 1193 l 371 1193 l 371 1384 l 671 1384 l 671 1193 z "},"Ş":{"ha":1002,"x_min":66,"x_max":936,"o":"m 756 0 l 635 0 l 635 337 l 246 337 l 66 517 l 66 720 l 246 900 l 348 900 l 348 581 l 762 581 l 936 400 l 936 180 l 756 0 z m 911 648 l 635 648 l 635 738 l 395 738 l 395 900 l 755 900 l 911 743 l 911 648 z m 588 0 l 217 0 l 66 180 l 66 270 l 366 270 l 366 163 l 588 163 l 588 0 z m 521 -344 l 309 -344 l 309 -153 l 503 -153 l 503 -42 l 640 -42 l 640 -208 l 521 -344 z "},"Ŝ":{"ha":1002,"x_min":66,"x_max":936,"o":"m 756 0 l 635 0 l 635 337 l 246 337 l 66 517 l 66 720 l 246 900 l 348 900 l 348 581 l 762 581 l 936 400 l 936 180 l 756 0 z m 911 648 l 635 648 l 635 738 l 395 738 l 395 900 l 755 900 l 911 743 l 911 648 z m 588 0 l 217 0 l 66 180 l 66 270 l 366 270 l 366 163 l 588 163 l 588 0 z m 524 1057 l 317 949 l 264 1003 l 438 1179 l 609 1179 l 781 1002 l 730 949 l 524 1057 z "},"Ș":{"ha":1002,"x_min":66,"x_max":936,"o":"m 756 0 l 635 0 l 635 337 l 246 337 l 66 517 l 66 720 l 246 900 l 348 900 l 348 581 l 762 581 l 936 400 l 936 180 l 756 0 z m 911 648 l 635 648 l 635 738 l 395 738 l 395 900 l 755 900 l 911 743 l 911 648 z m 588 0 l 217 0 l 66 180 l 66 270 l 366 270 l 366 163 l 588 163 l 588 0 z m 538 -433 l 417 -433 l 458 -278 l 351 -278 l 351 -80 l 651 -80 l 651 -248 l 538 -433 z "},"Ṡ":{"ha":1002,"x_min":66,"x_max":936,"o":"m 756 0 l 635 0 l 635 337 l 246 337 l 66 517 l 66 720 l 246 900 l 348 900 l 348 581 l 762 581 l 936 400 l 936 180 l 756 0 z m 911 648 l 635 648 l 635 738 l 395 738 l 395 900 l 755 900 l 911 743 l 911 648 z m 588 0 l 217 0 l 66 180 l 66 270 l 366 270 l 366 163 l 588 163 l 588 0 z m 669 968 l 369 968 l 369 1159 l 669 1159 l 669 968 z "},"Ṣ":{"ha":1002,"x_min":66,"x_max":936,"o":"m 756 0 l 635 0 l 635 337 l 246 337 l 66 517 l 66 720 l 246 900 l 348 900 l 348 581 l 762 581 l 936 400 l 936 180 l 756 0 z m 911 648 l 635 648 l 635 738 l 395 738 l 395 900 l 755 900 l 911 743 l 911 648 z m 588 0 l 217 0 l 66 180 l 66 270 l 366 270 l 366 163 l 588 163 l 588 0 z m 651 -273 l 351 -273 l 351 -81 l 651 -81 l 651 -273 z "},"Ṩ":{"ha":1002,"x_min":66,"x_max":936,"o":"m 756 0 l 635 0 l 635 337 l 246 337 l 66 517 l 66 720 l 246 900 l 348 900 l 348 581 l 762 581 l 936 400 l 936 180 l 756 0 z m 911 648 l 635 648 l 635 738 l 395 738 l 395 900 l 755 900 l 911 743 l 911 648 z m 588 0 l 217 0 l 66 180 l 66 270 l 366 270 l 366 163 l 588 163 l 588 0 z m 651 -273 l 351 -273 l 351 -81 l 651 -81 l 651 -273 z m 669 968 l 369 968 l 369 1159 l 669 1159 l 669 968 z "},"ẞ":{"ha":1014,"x_min":72,"x_max":955,"o":"m 774 0 l 494 0 l 494 180 l 649 180 l 649 372 l 520 372 l 520 528 l 649 720 l 420 720 l 420 900 l 894 900 l 894 720 l 730 506 l 955 357 l 955 180 l 774 0 z m 372 0 l 72 0 l 72 720 l 252 900 l 372 900 l 372 0 z "},"Ə":{"ha":1014,"x_min":66,"x_max":936,"o":"m 756 0 l 636 0 l 636 720 l 379 720 l 379 900 l 756 900 l 936 720 l 936 180 l 756 0 z m 588 401 l 66 401 l 66 720 l 207 900 l 332 900 l 332 579 l 588 579 l 588 401 z m 589 0 l 223 0 l 66 180 l 66 270 l 366 270 l 366 180 l 589 180 l 589 0 z "},"T":{"ha":852,"x_min":35,"x_max":817,"o":"m 817 704 l 35 704 l 35 900 l 817 900 l 817 704 z m 582 0 l 270 0 l 270 657 l 582 657 l 582 0 z "},"Ŧ":{"ha":852,"x_min":35,"x_max":817,"o":"m 817 704 l 35 704 l 35 900 l 817 900 l 817 704 z m 582 0 l 270 0 l 270 330 l 123 330 l 123 458 l 270 458 l 270 657 l 582 657 l 582 458 l 724 458 l 724 330 l 582 330 l 582 0 z "},"Ť":{"ha":852,"x_min":35,"x_max":817,"o":"m 817 704 l 35 704 l 35 900 l 817 900 l 817 704 z m 582 0 l 270 0 l 270 657 l 582 657 l 582 0 z m 509 964 l 338 964 l 166 1141 l 218 1194 l 423 1087 l 631 1194 l 684 1141 l 509 964 z "},"Ţ":{"ha":852,"x_min":35,"x_max":817,"o":"m 817 704 l 35 704 l 35 900 l 817 900 l 817 704 z m 582 0 l 270 0 l 270 657 l 582 657 l 582 0 z m 472 -344 l 260 -344 l 260 -153 l 454 -153 l 454 -42 l 591 -42 l 591 -208 l 472 -344 z "},"Ṱ":{"ha":852,"x_min":35,"x_max":817,"o":"m 817 704 l 35 704 l 35 900 l 817 900 l 817 704 z m 582 0 l 270 0 l 270 657 l 582 657 l 582 0 z m 426 -229 l 186 -372 l 123 -306 l 323 -79 l 529 -79 l 729 -306 l 666 -372 l 426 -229 z "},"Ț":{"ha":852,"x_min":35,"x_max":817,"o":"m 817 704 l 35 704 l 35 900 l 817 900 l 817 704 z m 582 0 l 270 0 l 270 657 l 582 657 l 582 0 z m 463 -433 l 342 -433 l 383 -278 l 276 -278 l 276 -80 l 576 -80 l 576 -248 l 463 -433 z "},"Ṭ":{"ha":852,"x_min":35,"x_max":817,"o":"m 817 704 l 35 704 l 35 900 l 817 900 l 817 704 z m 582 0 l 270 0 l 270 657 l 582 657 l 582 0 z m 576 -273 l 275 -273 l 275 -81 l 576 -81 l 576 -273 z "},"Ṯ":{"ha":852,"x_min":35,"x_max":817,"o":"m 817 704 l 35 704 l 35 900 l 817 900 l 817 704 z m 582 0 l 270 0 l 270 657 l 582 657 l 582 0 z m 673 -182 l 178 -182 l 178 -67 l 673 -67 l 673 -182 z "},"U":{"ha":1013,"x_min":72,"x_max":941,"o":"m 762 0 l 530 0 l 530 180 l 642 180 l 642 900 l 941 900 l 941 180 l 762 0 z m 483 0 l 252 0 l 72 180 l 72 900 l 372 900 l 372 180 l 483 180 l 483 0 z "},"Ú":{"ha":1013,"x_min":72,"x_max":941,"o":"m 762 0 l 530 0 l 530 180 l 642 180 l 642 900 l 941 900 l 941 180 l 762 0 z m 483 0 l 252 0 l 72 180 l 72 900 l 372 900 l 372 180 l 483 180 l 483 0 z m 774 1031 l 433 954 l 398 1036 l 701 1199 l 806 1146 l 774 1031 z "},"Ŭ":{"ha":1013,"x_min":72,"x_max":941,"o":"m 762 0 l 530 0 l 530 180 l 642 180 l 642 900 l 941 900 l 941 180 l 762 0 z m 483 0 l 252 0 l 72 180 l 72 900 l 372 900 l 372 180 l 483 180 l 483 0 z m 628 951 l 383 951 l 284 1048 l 246 1205 l 340 1232 l 395 1108 l 616 1108 l 671 1232 l 765 1205 l 727 1048 l 628 951 z "},"Û":{"ha":1013,"x_min":72,"x_max":941,"o":"m 762 0 l 530 0 l 530 180 l 642 180 l 642 900 l 941 900 l 941 180 l 762 0 z m 483 0 l 252 0 l 72 180 l 72 900 l 372 900 l 372 180 l 483 180 l 483 0 z m 511 1052 l 303 944 l 251 998 l 425 1174 l 595 1174 l 768 998 l 716 944 l 511 1052 z "},"Ȕ":{"ha":1013,"x_min":72,"x_max":941,"o":"m 762 0 l 530 0 l 530 180 l 642 180 l 642 900 l 941 900 l 941 180 l 762 0 z m 483 0 l 252 0 l 72 180 l 72 900 l 372 900 l 372 180 l 483 180 l 483 0 z m 729 1048 l 669 972 l 435 1084 l 442 1181 l 537 1211 l 729 1048 z m 374 1048 l 313 972 l 80 1084 l 85 1178 l 182 1211 l 374 1048 z "},"Ü":{"ha":1013,"x_min":72,"x_max":941,"o":"m 762 0 l 530 0 l 530 180 l 642 180 l 642 900 l 941 900 l 941 180 l 762 0 z m 483 0 l 252 0 l 72 180 l 72 900 l 372 900 l 372 180 l 483 180 l 483 0 z m 800 970 l 572 970 l 572 1120 l 800 1120 l 800 970 z m 441 970 l 213 970 l 213 1120 l 441 1120 l 441 970 z "},"Ụ":{"ha":1013,"x_min":72,"x_max":941,"o":"m 762 0 l 530 0 l 530 180 l 642 180 l 642 900 l 941 900 l 941 180 l 762 0 z m 483 0 l 252 0 l 72 180 l 72 900 l 372 900 l 372 180 l 483 180 l 483 0 z m 657 -273 l 357 -273 l 357 -81 l 657 -81 l 657 -273 z "},"Ù":{"ha":1013,"x_min":72,"x_max":941,"o":"m 762 0 l 530 0 l 530 180 l 642 180 l 642 900 l 941 900 l 941 180 l 762 0 z m 483 0 l 252 0 l 72 180 l 72 900 l 372 900 l 372 180 l 483 180 l 483 0 z m 615 1035 l 580 952 l 239 1030 l 208 1145 l 313 1198 l 615 1035 z "},"Ủ":{"ha":1013,"x_min":72,"x_max":941,"o":"m 762 0 l 530 0 l 530 180 l 642 180 l 642 900 l 941 900 l 941 180 l 762 0 z m 483 0 l 252 0 l 72 180 l 72 900 l 372 900 l 372 180 l 483 180 l 483 0 z m 665 935 l 528 935 l 528 1045 l 334 1045 l 334 1236 l 546 1236 l 665 1101 l 665 935 z "},"Ư":{"ha":1107,"x_min":79,"x_max":1175,"o":"m 769 0 l 538 0 l 538 180 l 649 180 l 649 900 l 983 900 l 983 1093 l 1175 1093 l 1175 882 l 1039 763 l 949 763 l 949 180 l 769 0 z m 490 0 l 260 0 l 79 180 l 79 900 l 380 900 l 380 180 l 490 180 l 490 0 z "},"Ứ":{"ha":1107,"x_min":79,"x_max":1175,"o":"m 769 0 l 538 0 l 538 180 l 649 180 l 649 900 l 983 900 l 983 1093 l 1175 1093 l 1175 882 l 1039 763 l 949 763 l 949 180 l 769 0 z m 490 0 l 260 0 l 79 180 l 79 900 l 380 900 l 380 180 l 490 180 l 490 0 z m 739 1076 l 387 969 l 321 1063 l 650 1277 l 775 1219 l 739 1076 z "},"Ự":{"ha":1107,"x_min":79,"x_max":1175,"o":"m 769 0 l 538 0 l 538 180 l 649 180 l 649 900 l 983 900 l 983 1093 l 1175 1093 l 1175 882 l 1039 763 l 949 763 l 949 180 l 769 0 z m 490 0 l 260 0 l 79 180 l 79 900 l 380 900 l 380 180 l 490 180 l 490 0 z m 665 -273 l 364 -273 l 364 -81 l 665 -81 l 665 -273 z "},"Ừ":{"ha":1107,"x_min":79,"x_max":1175,"o":"m 769 0 l 538 0 l 538 180 l 649 180 l 649 900 l 983 900 l 983 1093 l 1175 1093 l 1175 882 l 1039 763 l 949 763 l 949 180 l 769 0 z m 490 0 l 260 0 l 79 180 l 79 900 l 380 900 l 380 180 l 490 180 l 490 0 z m 713 1083 l 671 983 l 295 1097 l 258 1240 l 383 1297 l 713 1083 z "},"Ử":{"ha":1107,"x_min":79,"x_max":1175,"o":"m 769 0 l 538 0 l 538 180 l 649 180 l 649 900 l 983 900 l 983 1093 l 1175 1093 l 1175 882 l 1039 763 l 949 763 l 949 180 l 769 0 z m 490 0 l 260 0 l 79 180 l 79 900 l 380 900 l 380 180 l 490 180 l 490 0 z m 672 935 l 535 935 l 535 1045 l 342 1045 l 342 1236 l 553 1236 l 672 1101 l 672 935 z "},"Ữ":{"ha":1107,"x_min":79,"x_max":1175,"o":"m 769 0 l 538 0 l 538 180 l 649 180 l 649 900 l 983 900 l 983 1093 l 1175 1093 l 1175 882 l 1039 763 l 949 763 l 949 180 l 769 0 z m 490 0 l 260 0 l 79 180 l 79 900 l 380 900 l 380 180 l 490 180 l 490 0 z m 707 1008 l 515 1008 l 441 1110 l 396 1110 l 302 1033 l 243 1092 l 376 1237 l 568 1237 l 641 1135 l 686 1135 l 780 1213 l 839 1154 l 707 1008 z "},"Ű":{"ha":1013,"x_min":72,"x_max":943,"o":"m 762 0 l 530 0 l 530 180 l 642 180 l 642 900 l 941 900 l 941 180 l 762 0 z m 483 0 l 252 0 l 72 180 l 72 900 l 372 900 l 372 180 l 483 180 l 483 0 z m 943 1071 l 710 959 l 650 1035 l 842 1198 l 942 1165 l 943 1071 z m 588 1071 l 355 959 l 294 1035 l 486 1198 l 587 1165 l 588 1071 z "},"Ȗ":{"ha":1013,"x_min":72,"x_max":941,"o":"m 762 0 l 530 0 l 530 180 l 642 180 l 642 900 l 941 900 l 941 180 l 762 0 z m 483 0 l 252 0 l 72 180 l 72 900 l 372 900 l 372 180 l 483 180 l 483 0 z m 396 1103 l 340 979 l 247 1006 l 285 1162 l 384 1260 l 629 1260 l 728 1162 l 766 1006 l 672 979 l 616 1103 l 396 1103 z "},"Ū":{"ha":1013,"x_min":72,"x_max":941,"o":"m 762 0 l 530 0 l 530 180 l 642 180 l 642 900 l 941 900 l 941 180 l 762 0 z m 483 0 l 252 0 l 72 180 l 72 900 l 372 900 l 372 180 l 483 180 l 483 0 z m 753 985 l 259 985 l 259 1101 l 753 1101 l 753 985 z "},"Ṻ":{"ha":1013,"x_min":72,"x_max":941,"o":"m 762 0 l 530 0 l 530 180 l 642 180 l 642 900 l 941 900 l 941 180 l 762 0 z m 483 0 l 252 0 l 72 180 l 72 900 l 372 900 l 372 180 l 483 180 l 483 0 z m 753 985 l 259 985 l 259 1101 l 753 1101 l 753 985 z m 800 1148 l 572 1148 l 572 1298 l 800 1298 l 800 1148 z m 441 1148 l 213 1148 l 213 1298 l 441 1298 l 441 1148 z "},"Ų":{"ha":1013,"x_min":72,"x_max":941,"o":"m 762 0 l 530 0 l 530 180 l 642 180 l 642 900 l 941 900 l 941 180 l 762 0 z m 483 0 l 252 0 l 72 180 l 72 900 l 372 900 l 372 180 l 483 180 l 483 0 z m 913 -337 l 701 -337 l 583 -201 l 583 -35 l 720 -35 l 720 -146 l 913 -146 l 913 -337 z "},"Ů":{"ha":1013,"x_min":72,"x_max":941,"o":"m 762 0 l 530 0 l 530 180 l 642 180 l 642 900 l 941 900 l 941 180 l 762 0 z m 483 0 l 252 0 l 72 180 l 72 900 l 372 900 l 372 180 l 483 180 l 483 0 z m 608 924 l 529 924 l 529 1030 l 582 1030 l 582 1146 l 529 1146 l 529 1251 l 608 1251 l 703 1158 l 703 1017 l 608 924 z m 482 924 l 401 924 l 309 1017 l 309 1158 l 401 1251 l 482 1251 l 482 1146 l 430 1146 l 430 1030 l 482 1030 l 482 924 z "},"Ũ":{"ha":1013,"x_min":72,"x_max":941,"o":"m 762 0 l 530 0 l 530 180 l 642 180 l 642 900 l 941 900 l 941 180 l 762 0 z m 483 0 l 252 0 l 72 180 l 72 900 l 372 900 l 372 180 l 483 180 l 483 0 z m 658 966 l 519 966 l 410 1044 l 382 1044 l 260 972 l 216 1025 l 357 1171 l 496 1171 l 604 1091 l 632 1091 l 755 1164 l 798 1111 l 658 966 z "},"Ṹ":{"ha":1013,"x_min":72,"x_max":941,"o":"m 762 0 l 530 0 l 530 180 l 642 180 l 642 900 l 941 900 l 941 180 l 762 0 z m 483 0 l 252 0 l 72 180 l 72 900 l 372 900 l 372 180 l 483 180 l 483 0 z m 658 966 l 519 966 l 410 1044 l 382 1044 l 260 972 l 216 1025 l 357 1171 l 496 1171 l 604 1091 l 632 1091 l 755 1164 l 798 1111 l 658 966 z m 774 1263 l 433 1185 l 399 1268 l 701 1431 l 806 1378 l 774 1263 z "},"V":{"ha":930,"x_min":-18,"x_max":947,"o":"m 600 0 l 308 0 l -18 900 l 288 900 l 600 0 z m 947 900 l 636 27 l 501 423 l 646 900 l 947 900 z "},"Ʌ":{"ha":930,"x_min":-18,"x_max":947,"o":"m 947 0 l 642 0 l 330 900 l 622 900 l 947 0 z m 283 0 l -18 0 l 294 873 l 429 477 l 283 0 z "},"W":{"ha":1308,"x_min":-18,"x_max":1325,"o":"m 524 0 l 252 0 l -18 900 l 281 900 l 413 406 l 503 783 l 621 356 l 524 0 z m 1049 0 l 763 0 l 516 900 l 819 900 l 1049 0 z m 1325 900 l 1081 47 l 959 526 l 1052 900 l 1325 900 z "},"Ẃ":{"ha":1308,"x_min":-18,"x_max":1325,"o":"m 524 0 l 252 0 l -18 900 l 281 900 l 413 406 l 503 783 l 621 356 l 524 0 z m 1049 0 l 763 0 l 516 900 l 819 900 l 1049 0 z m 1325 900 l 1081 47 l 959 526 l 1052 900 l 1325 900 z m 951 1032 l 610 954 l 576 1037 l 878 1200 l 983 1147 l 951 1032 z "},"Ŵ":{"ha":1308,"x_min":-18,"x_max":1325,"o":"m 524 0 l 252 0 l -18 900 l 281 900 l 413 406 l 503 783 l 621 356 l 524 0 z m 1049 0 l 763 0 l 516 900 l 819 900 l 1049 0 z m 1325 900 l 1081 47 l 959 526 l 1052 900 l 1325 900 z m 688 1053 l 481 945 l 429 999 l 602 1175 l 773 1175 l 945 998 l 894 945 l 688 1053 z "},"Ẅ":{"ha":1308,"x_min":-18,"x_max":1325,"o":"m 524 0 l 252 0 l -18 900 l 281 900 l 413 406 l 503 783 l 621 356 l 524 0 z m 1049 0 l 763 0 l 516 900 l 819 900 l 1049 0 z m 1325 900 l 1081 47 l 959 526 l 1052 900 l 1325 900 z m 978 970 l 750 970 l 750 1120 l 978 1120 l 978 970 z m 618 970 l 391 970 l 391 1120 l 618 1120 l 618 970 z "},"Ẁ":{"ha":1308,"x_min":-18,"x_max":1325,"o":"m 524 0 l 252 0 l -18 900 l 281 900 l 413 406 l 503 783 l 621 356 l 524 0 z m 1049 0 l 763 0 l 516 900 l 819 900 l 1049 0 z m 1325 900 l 1081 47 l 959 526 l 1052 900 l 1325 900 z m 793 1036 l 758 953 l 417 1031 l 385 1145 l 490 1198 l 793 1036 z "},"X":{"ha":910,"x_min":-18,"x_max":928,"o":"m 928 0 l 601 0 l 1 900 l 324 900 l 928 0 z m 915 900 l 648 493 l 488 727 l 593 900 l 915 900 z m 325 0 l -18 0 l 269 419 l 430 175 l 325 0 z "},"Y":{"ha":880,"x_min":-18,"x_max":897,"o":"m 588 0 l 288 0 l 288 286 l -18 900 l 277 900 l 588 265 l 588 0 z m 897 900 l 607 328 l 461 624 l 609 900 l 897 900 z "},"Ý":{"ha":880,"x_min":-18,"x_max":897,"o":"m 588 0 l 288 0 l 288 286 l -18 900 l 277 900 l 588 265 l 588 0 z m 897 900 l 607 328 l 461 624 l 609 900 l 897 900 z m 707 1031 l 366 954 l 331 1036 l 633 1199 l 739 1146 l 707 1031 z "},"Ŷ":{"ha":880,"x_min":-18,"x_max":897,"o":"m 588 0 l 288 0 l 288 286 l -18 900 l 277 900 l 588 265 l 588 0 z m 897 900 l 607 328 l 461 624 l 609 900 l 897 900 z m 444 1052 l 236 944 l 184 998 l 357 1174 l 528 1174 l 701 998 l 649 944 l 444 1052 z "},"Ÿ":{"ha":880,"x_min":-18,"x_max":897,"o":"m 588 0 l 288 0 l 288 286 l -18 900 l 277 900 l 588 265 l 588 0 z m 897 900 l 607 328 l 461 624 l 609 900 l 897 900 z m 733 970 l 505 970 l 505 1120 l 733 1120 l 733 970 z m 374 970 l 146 970 l 146 1120 l 374 1120 l 374 970 z "},"Ẏ":{"ha":880,"x_min":-18,"x_max":897,"o":"m 588 0 l 288 0 l 288 286 l -18 900 l 277 900 l 588 265 l 588 0 z m 897 900 l 607 328 l 461 624 l 609 900 l 897 900 z m 589 963 l 288 963 l 288 1154 l 589 1154 l 589 963 z "},"Ỵ":{"ha":880,"x_min":-18,"x_max":897,"o":"m 588 0 l 288 0 l 288 286 l -18 900 l 277 900 l 588 265 l 588 0 z m 897 900 l 607 328 l 461 624 l 609 900 l 897 900 z m 590 -273 l 290 -273 l 290 -81 l 590 -81 l 590 -273 z "},"Ỳ":{"ha":880,"x_min":-18,"x_max":897,"o":"m 588 0 l 288 0 l 288 286 l -18 900 l 277 900 l 588 265 l 588 0 z m 897 900 l 607 328 l 461 624 l 609 900 l 897 900 z m 548 1035 l 513 952 l 172 1030 l 140 1145 l 245 1198 l 548 1035 z "},"Ỷ":{"ha":880,"x_min":-18,"x_max":897,"o":"m 588 0 l 288 0 l 288 286 l -18 900 l 277 900 l 588 265 l 588 0 z m 897 900 l 607 328 l 461 624 l 609 900 l 897 900 z m 597 935 l 460 935 l 460 1045 l 267 1045 l 267 1236 l 479 1236 l 597 1101 l 597 935 z "},"Ȳ":{"ha":880,"x_min":-18,"x_max":897,"o":"m 588 0 l 288 0 l 288 286 l -18 900 l 277 900 l 588 265 l 588 0 z m 897 900 l 607 328 l 461 624 l 609 900 l 897 900 z m 686 985 l 192 985 l 192 1101 l 686 1101 l 686 985 z "},"Ỹ":{"ha":880,"x_min":-18,"x_max":897,"o":"m 588 0 l 288 0 l 288 286 l -18 900 l 277 900 l 588 265 l 588 0 z m 897 900 l 607 328 l 461 624 l 609 900 l 897 900 z m 591 966 l 452 966 l 343 1044 l 315 1044 l 193 972 l 149 1025 l 290 1171 l 429 1171 l 537 1091 l 565 1091 l 688 1164 l 731 1111 l 591 966 z "},"Z":{"ha":862,"x_min":35,"x_max":827,"o":"m 233 0 l 35 0 l 35 168 l 623 900 l 827 900 l 827 726 l 233 0 z m 394 703 l 54 703 l 54 900 l 564 900 l 394 703 z m 814 0 l 293 0 l 464 197 l 814 197 l 814 0 z "},"Ź":{"ha":862,"x_min":35,"x_max":827,"o":"m 233 0 l 35 0 l 35 168 l 623 900 l 827 900 l 827 726 l 233 0 z m 394 703 l 54 703 l 54 900 l 564 900 l 394 703 z m 814 0 l 293 0 l 464 197 l 814 197 l 814 0 z m 707 1032 l 366 954 l 331 1037 l 633 1200 l 739 1147 l 707 1032 z "},"Ž":{"ha":862,"x_min":35,"x_max":827,"o":"m 233 0 l 35 0 l 35 168 l 623 900 l 827 900 l 827 726 l 233 0 z m 394 703 l 54 703 l 54 900 l 564 900 l 394 703 z m 814 0 l 293 0 l 464 197 l 814 197 l 814 0 z m 526 965 l 355 965 l 182 1142 l 235 1195 l 439 1088 l 647 1195 l 700 1141 l 526 965 z "},"Ż":{"ha":862,"x_min":35,"x_max":827,"o":"m 233 0 l 35 0 l 35 168 l 623 900 l 827 900 l 827 726 l 233 0 z m 394 703 l 54 703 l 54 900 l 564 900 l 394 703 z m 814 0 l 293 0 l 464 197 l 814 197 l 814 0 z m 589 964 l 288 964 l 288 1155 l 589 1155 l 589 964 z "},"Ẓ":{"ha":862,"x_min":35,"x_max":827,"o":"m 233 0 l 35 0 l 35 168 l 623 900 l 827 900 l 827 726 l 233 0 z m 394 703 l 54 703 l 54 900 l 564 900 l 394 703 z m 814 0 l 293 0 l 464 197 l 814 197 l 814 0 z m 581 -273 l 281 -273 l 281 -81 l 581 -81 l 581 -273 z "},"a":{"ha":903,"x_min":58,"x_max":838,"o":"m 838 0 l 545 0 l 545 541 l 119 541 l 119 630 l 209 720 l 659 720 l 838 541 l 838 0 z m 408 0 l 179 0 l 58 119 l 58 299 l 179 419 l 498 419 l 498 294 l 343 294 l 343 168 l 498 168 l 498 89 l 408 0 z "},"á":{"ha":903,"x_min":58,"x_max":838,"o":"m 838 0 l 545 0 l 545 541 l 119 541 l 119 630 l 209 720 l 659 720 l 838 541 l 838 0 z m 408 0 l 179 0 l 58 119 l 58 299 l 179 419 l 498 419 l 498 294 l 343 294 l 343 168 l 498 168 l 498 89 l 408 0 z m 676 869 l 325 762 l 258 855 l 588 1069 l 713 1012 l 676 869 z "},"ă":{"ha":903,"x_min":58,"x_max":838,"o":"m 838 0 l 545 0 l 545 541 l 119 541 l 119 630 l 209 720 l 659 720 l 838 541 l 838 0 z m 408 0 l 179 0 l 58 119 l 58 299 l 179 419 l 498 419 l 498 294 l 343 294 l 343 168 l 498 168 l 498 89 l 408 0 z m 574 783 l 329 783 l 230 881 l 192 1038 l 286 1064 l 341 941 l 562 941 l 617 1064 l 711 1038 l 673 881 l 574 783 z "},"ắ":{"ha":903,"x_min":58,"x_max":838,"o":"m 838 0 l 545 0 l 545 541 l 119 541 l 119 630 l 209 720 l 659 720 l 838 541 l 838 0 z m 408 0 l 179 0 l 58 119 l 58 299 l 179 419 l 498 419 l 498 294 l 343 294 l 343 168 l 498 168 l 498 89 l 408 0 z m 705 1143 l 434 1044 l 380 1118 l 633 1305 l 734 1259 l 705 1143 z m 566 783 l 337 783 l 245 874 l 210 1021 l 297 1045 l 349 930 l 554 930 l 606 1045 l 693 1021 l 658 874 l 566 783 z "},"ặ":{"ha":903,"x_min":58,"x_max":838,"o":"m 838 0 l 545 0 l 545 541 l 119 541 l 119 630 l 209 720 l 659 720 l 838 541 l 838 0 z m 408 0 l 179 0 l 58 119 l 58 299 l 179 419 l 498 419 l 498 294 l 343 294 l 343 168 l 498 168 l 498 89 l 408 0 z m 602 -273 l 301 -273 l 301 -81 l 602 -81 l 602 -273 z m 574 783 l 329 783 l 230 881 l 192 1038 l 286 1064 l 341 941 l 562 941 l 617 1064 l 711 1038 l 673 881 l 574 783 z "},"ằ":{"ha":903,"x_min":58,"x_max":838,"o":"m 838 0 l 545 0 l 545 541 l 119 541 l 119 630 l 209 720 l 659 720 l 838 541 l 838 0 z m 408 0 l 179 0 l 58 119 l 58 299 l 179 419 l 498 419 l 498 294 l 343 294 l 343 168 l 498 168 l 498 89 l 408 0 z m 545 1118 l 490 1044 l 220 1143 l 190 1259 l 291 1305 l 545 1118 z m 566 783 l 337 783 l 245 874 l 210 1021 l 297 1045 l 349 930 l 554 930 l 606 1045 l 693 1021 l 658 874 l 566 783 z "},"ẳ":{"ha":903,"x_min":58,"x_max":838,"o":"m 838 0 l 545 0 l 545 541 l 119 541 l 119 630 l 209 720 l 659 720 l 838 541 l 838 0 z m 408 0 l 179 0 l 58 119 l 58 299 l 179 419 l 498 419 l 498 294 l 343 294 l 343 168 l 498 168 l 498 89 l 408 0 z m 515 1043 l 401 1043 l 401 1135 l 240 1135 l 240 1295 l 416 1295 l 515 1182 l 515 1043 z m 566 783 l 337 783 l 245 874 l 210 1021 l 297 1045 l 349 930 l 554 930 l 606 1045 l 693 1021 l 658 874 l 566 783 z "},"ẵ":{"ha":903,"x_min":58,"x_max":838,"o":"m 838 0 l 545 0 l 545 541 l 119 541 l 119 630 l 209 720 l 659 720 l 838 541 l 838 0 z m 408 0 l 179 0 l 58 119 l 58 299 l 179 419 l 498 419 l 498 294 l 343 294 l 343 168 l 498 168 l 498 89 l 408 0 z m 577 1080 l 423 1080 l 364 1162 l 328 1162 l 253 1100 l 206 1147 l 312 1263 l 466 1263 l 524 1181 l 561 1181 l 635 1244 l 683 1197 l 577 1080 z m 566 783 l 337 783 l 245 874 l 210 1021 l 297 1045 l 349 930 l 554 930 l 606 1045 l 693 1021 l 658 874 l 566 783 z "},"ǎ":{"ha":903,"x_min":58,"x_max":838,"o":"m 838 0 l 545 0 l 545 541 l 119 541 l 119 630 l 209 720 l 659 720 l 838 541 l 838 0 z m 408 0 l 179 0 l 58 119 l 58 299 l 179 419 l 498 419 l 498 294 l 343 294 l 343 168 l 498 168 l 498 89 l 408 0 z m 555 782 l 349 782 l 149 1008 l 212 1074 l 452 932 l 692 1074 l 755 1008 l 555 782 z "},"â":{"ha":903,"x_min":58,"x_max":838,"o":"m 838 0 l 545 0 l 545 541 l 119 541 l 119 630 l 209 720 l 659 720 l 838 541 l 838 0 z m 408 0 l 179 0 l 58 119 l 58 299 l 179 419 l 498 419 l 498 294 l 343 294 l 343 168 l 498 168 l 498 89 l 408 0 z m 452 897 l 212 754 l 149 820 l 349 1047 l 555 1047 l 755 820 l 692 754 l 452 897 z "},"ấ":{"ha":903,"x_min":58,"x_max":972,"o":"m 838 0 l 545 0 l 545 541 l 119 541 l 119 630 l 209 720 l 659 720 l 838 541 l 838 0 z m 408 0 l 179 0 l 58 119 l 58 299 l 179 419 l 498 419 l 498 294 l 343 294 l 343 168 l 498 168 l 498 89 l 408 0 z m 942 1039 l 671 941 l 617 1015 l 871 1202 l 972 1155 l 942 1039 z m 452 892 l 256 775 l 203 829 l 368 1015 l 536 1015 l 700 829 l 648 775 l 452 892 z "},"ậ":{"ha":903,"x_min":58,"x_max":838,"o":"m 838 0 l 545 0 l 545 541 l 119 541 l 119 630 l 209 720 l 659 720 l 838 541 l 838 0 z m 408 0 l 179 0 l 58 119 l 58 299 l 179 419 l 498 419 l 498 294 l 343 294 l 343 168 l 498 168 l 498 89 l 408 0 z m 602 -273 l 301 -273 l 301 -81 l 602 -81 l 602 -273 z m 452 897 l 212 754 l 149 820 l 349 1047 l 555 1047 l 755 820 l 692 754 l 452 897 z "},"ầ":{"ha":903,"x_min":-87,"x_max":838,"o":"m 838 0 l 545 0 l 545 541 l 119 541 l 119 630 l 209 720 l 659 720 l 838 541 l 838 0 z m 408 0 l 179 0 l 58 119 l 58 299 l 179 419 l 498 419 l 498 294 l 343 294 l 343 168 l 498 168 l 498 89 l 408 0 z m 268 1017 l 214 943 l -57 1041 l -87 1157 l 14 1204 l 268 1017 z m 452 892 l 256 775 l 203 829 l 368 1015 l 536 1015 l 700 829 l 648 775 l 452 892 z "},"ẩ":{"ha":903,"x_min":58,"x_max":838,"o":"m 838 0 l 545 0 l 545 541 l 119 541 l 119 630 l 209 720 l 659 720 l 838 541 l 838 0 z m 408 0 l 179 0 l 58 119 l 58 299 l 179 419 l 498 419 l 498 294 l 343 294 l 343 168 l 498 168 l 498 89 l 408 0 z m 517 1057 l 404 1057 l 404 1135 l 242 1135 l 242 1261 l 446 1261 l 517 1182 l 517 1057 z m 452 892 l 256 775 l 203 829 l 368 1015 l 536 1015 l 700 829 l 648 775 l 452 892 z "},"ẫ":{"ha":903,"x_min":58,"x_max":838,"o":"m 838 0 l 545 0 l 545 541 l 119 541 l 119 630 l 209 720 l 659 720 l 838 541 l 838 0 z m 408 0 l 179 0 l 58 119 l 58 299 l 179 419 l 498 419 l 498 294 l 343 294 l 343 168 l 498 168 l 498 89 l 408 0 z m 579 1053 l 425 1053 l 366 1135 l 330 1135 l 255 1073 l 208 1120 l 314 1236 l 468 1236 l 526 1154 l 563 1154 l 637 1217 l 685 1170 l 579 1053 z m 452 892 l 256 775 l 203 829 l 368 1015 l 536 1015 l 700 829 l 648 775 l 452 892 z "},"ȁ":{"ha":903,"x_min":-33,"x_max":838,"o":"m 838 0 l 545 0 l 545 541 l 119 541 l 119 630 l 209 720 l 659 720 l 838 541 l 838 0 z m 408 0 l 179 0 l 58 119 l 58 299 l 179 419 l 498 419 l 498 294 l 343 294 l 343 168 l 498 168 l 498 89 l 408 0 z m 692 862 l 623 776 l 348 930 l 338 1053 l 463 1090 l 692 862 z m 321 862 l 252 776 l -24 930 l -33 1053 l 92 1090 l 321 862 z "},"ä":{"ha":903,"x_min":58,"x_max":838,"o":"m 838 0 l 545 0 l 545 541 l 119 541 l 119 630 l 209 720 l 659 720 l 838 541 l 838 0 z m 408 0 l 179 0 l 58 119 l 58 299 l 179 419 l 498 419 l 498 294 l 343 294 l 343 168 l 498 168 l 498 89 l 408 0 z m 744 812 l 516 812 l 516 1003 l 744 1003 l 744 812 z m 385 812 l 157 812 l 157 1003 l 385 1003 l 385 812 z "},"ǟ":{"ha":903,"x_min":58,"x_max":838,"o":"m 838 0 l 545 0 l 545 541 l 119 541 l 119 630 l 209 720 l 659 720 l 838 541 l 838 0 z m 408 0 l 179 0 l 58 119 l 58 299 l 179 419 l 498 419 l 498 294 l 343 294 l 343 168 l 498 168 l 498 89 l 408 0 z m 744 812 l 516 812 l 516 1003 l 744 1003 l 744 812 z m 385 812 l 157 812 l 157 1003 l 385 1003 l 385 812 z m 711 1055 l 190 1055 l 190 1189 l 711 1189 l 711 1055 z "},"ạ":{"ha":903,"x_min":58,"x_max":838,"o":"m 838 0 l 545 0 l 545 541 l 119 541 l 119 630 l 209 720 l 659 720 l 838 541 l 838 0 z m 408 0 l 179 0 l 58 119 l 58 299 l 179 419 l 498 419 l 498 294 l 343 294 l 343 168 l 498 168 l 498 89 l 408 0 z m 602 -273 l 301 -273 l 301 -81 l 602 -81 l 602 -273 z "},"à":{"ha":903,"x_min":58,"x_max":838,"o":"m 838 0 l 545 0 l 545 541 l 119 541 l 119 630 l 209 720 l 659 720 l 838 541 l 838 0 z m 408 0 l 179 0 l 58 119 l 58 299 l 179 419 l 498 419 l 498 294 l 343 294 l 343 168 l 498 168 l 498 89 l 408 0 z m 650 876 l 609 776 l 233 889 l 196 1032 l 321 1090 l 650 876 z "},"ả":{"ha":903,"x_min":58,"x_max":838,"o":"m 838 0 l 545 0 l 545 541 l 119 541 l 119 630 l 209 720 l 659 720 l 838 541 l 838 0 z m 408 0 l 179 0 l 58 119 l 58 299 l 179 419 l 498 419 l 498 294 l 343 294 l 343 168 l 498 168 l 498 89 l 408 0 z m 609 778 l 472 778 l 472 888 l 279 888 l 279 1080 l 490 1080 l 609 944 l 609 778 z "},"ȃ":{"ha":903,"x_min":58,"x_max":838,"o":"m 838 0 l 545 0 l 545 541 l 119 541 l 119 630 l 209 720 l 659 720 l 838 541 l 838 0 z m 408 0 l 179 0 l 58 119 l 58 299 l 179 419 l 498 419 l 498 294 l 343 294 l 343 168 l 498 168 l 498 89 l 408 0 z m 341 895 l 286 772 l 192 798 l 230 955 l 329 1053 l 574 1053 l 673 955 l 711 798 l 617 772 l 562 895 l 341 895 z "},"ɑ":{"ha":926,"x_min":64,"x_max":856,"o":"m 437 0 l 227 0 l 64 162 l 64 558 l 227 720 l 509 720 l 509 541 l 364 541 l 364 168 l 509 168 l 509 71 l 437 0 z m 856 0 l 556 0 l 556 720 l 856 720 l 856 0 z "},"ā":{"ha":903,"x_min":58,"x_max":838,"o":"m 838 0 l 545 0 l 545 541 l 119 541 l 119 630 l 209 720 l 659 720 l 838 541 l 838 0 z m 408 0 l 179 0 l 58 119 l 58 299 l 179 419 l 498 419 l 498 294 l 343 294 l 343 168 l 498 168 l 498 89 l 408 0 z m 713 816 l 191 816 l 191 949 l 713 949 l 713 816 z "},"ą":{"ha":903,"x_min":58,"x_max":838,"o":"m 838 0 l 545 0 l 545 541 l 119 541 l 119 630 l 209 720 l 659 720 l 838 541 l 838 0 z m 408 0 l 179 0 l 58 119 l 58 299 l 179 419 l 498 419 l 498 294 l 343 294 l 343 168 l 498 168 l 498 89 l 408 0 z m 812 -337 l 601 -337 l 482 -201 l 482 -35 l 619 -35 l 619 -146 l 812 -146 l 812 -337 z "},"å":{"ha":903,"x_min":58,"x_max":838,"o":"m 838 0 l 545 0 l 545 541 l 119 541 l 119 630 l 209 720 l 659 720 l 838 541 l 838 0 z m 408 0 l 179 0 l 58 119 l 58 299 l 179 419 l 498 419 l 498 294 l 343 294 l 343 168 l 498 168 l 498 89 l 408 0 z m 553 775 l 474 775 l 474 881 l 527 881 l 527 997 l 474 997 l 474 1102 l 553 1102 l 648 1009 l 648 868 l 553 775 z m 427 775 l 347 775 l 254 868 l 254 1009 l 347 1102 l 427 1102 l 427 997 l 375 997 l 375 881 l 427 881 l 427 775 z "},"ǻ":{"ha":903,"x_min":58,"x_max":838,"o":"m 838 0 l 545 0 l 545 541 l 119 541 l 119 630 l 209 720 l 659 720 l 838 541 l 838 0 z m 408 0 l 179 0 l 58 119 l 58 299 l 179 419 l 498 419 l 498 294 l 343 294 l 343 168 l 498 168 l 498 89 l 408 0 z m 557 775 l 478 775 l 478 881 l 531 881 l 531 997 l 478 997 l 478 1102 l 549 1102 l 636 1210 l 722 1181 l 739 1102 l 634 1027 l 652 1009 l 652 868 l 557 775 z m 431 775 l 351 775 l 258 868 l 258 1009 l 351 1102 l 431 1102 l 431 997 l 379 997 l 379 881 l 431 881 l 431 775 z "},"ã":{"ha":903,"x_min":58,"x_max":838,"o":"m 838 0 l 545 0 l 545 541 l 119 541 l 119 630 l 209 720 l 659 720 l 838 541 l 838 0 z m 408 0 l 179 0 l 58 119 l 58 299 l 179 419 l 498 419 l 498 294 l 343 294 l 343 168 l 498 168 l 498 89 l 408 0 z m 644 801 l 452 801 l 379 903 l 334 903 l 240 825 l 181 884 l 313 1029 l 505 1029 l 578 927 l 624 927 l 718 1005 l 777 946 l 644 801 z "},"æ":{"ha":1376,"x_min":58,"x_max":1319,"o":"m 627 0 l 472 0 l 472 180 l 538 180 l 538 541 l 119 541 l 119 630 l 209 720 l 627 720 l 690 660 l 749 720 l 906 720 l 906 541 l 838 541 l 838 180 l 906 180 l 906 0 l 749 0 l 688 60 l 627 0 z m 1319 294 l 888 294 l 888 426 l 1019 426 l 1019 541 l 954 541 l 954 720 l 1139 720 l 1319 541 l 1319 294 z m 425 0 l 179 0 l 58 119 l 58 306 l 179 426 l 491 426 l 491 294 l 359 294 l 359 180 l 425 180 l 425 0 z m 1199 0 l 954 0 l 954 180 l 1289 180 l 1289 90 l 1199 0 z "},"ǽ":{"ha":1376,"x_min":58,"x_max":1319,"o":"m 627 0 l 472 0 l 472 180 l 538 180 l 538 541 l 119 541 l 119 630 l 209 720 l 627 720 l 690 660 l 749 720 l 906 720 l 906 541 l 838 541 l 838 180 l 906 180 l 906 0 l 749 0 l 688 60 l 627 0 z m 1319 294 l 888 294 l 888 426 l 1019 426 l 1019 541 l 954 541 l 954 720 l 1139 720 l 1319 541 l 1319 294 z m 425 0 l 179 0 l 58 119 l 58 306 l 179 426 l 491 426 l 491 294 l 359 294 l 359 180 l 425 180 l 425 0 z m 1199 0 l 954 0 l 954 180 l 1289 180 l 1289 90 l 1199 0 z m 916 889 l 541 776 l 498 876 l 828 1090 l 953 1032 l 916 889 z "},"b":{"ha":915,"x_min":71,"x_max":850,"o":"m 370 0 l 71 0 l 71 995 l 370 995 l 370 0 z m 670 0 l 418 0 l 418 168 l 552 168 l 552 541 l 418 541 l 418 631 l 506 720 l 670 720 l 850 541 l 850 180 l 670 0 z "},"ḃ":{"ha":915,"x_min":71,"x_max":850,"o":"m 370 0 l 71 0 l 71 995 l 370 995 l 370 0 z m 670 0 l 418 0 l 418 168 l 552 168 l 552 541 l 418 541 l 418 631 l 506 720 l 670 720 l 850 541 l 850 180 l 670 0 z m 812 810 l 512 810 l 512 1001 l 812 1001 l 812 810 z "},"ḅ":{"ha":915,"x_min":71,"x_max":850,"o":"m 370 0 l 71 0 l 71 995 l 370 995 l 370 0 z m 670 0 l 418 0 l 418 168 l 552 168 l 552 541 l 418 541 l 418 631 l 506 720 l 670 720 l 850 541 l 850 180 l 670 0 z m 814 -343 l 513 -343 l 513 -152 l 814 -152 l 814 -343 z "},"c":{"ha":897,"x_min":64,"x_max":844,"o":"m 364 0 l 244 0 l 64 180 l 64 541 l 244 720 l 364 720 l 364 0 z m 844 433 l 545 433 l 545 541 l 412 541 l 412 720 l 665 720 l 844 541 l 844 433 z m 665 0 l 412 0 l 412 168 l 545 168 l 545 258 l 844 258 l 844 180 l 665 0 z "},"ć":{"ha":897,"x_min":64,"x_max":844,"o":"m 364 0 l 244 0 l 64 180 l 64 541 l 244 720 l 364 720 l 364 0 z m 844 433 l 545 433 l 545 541 l 412 541 l 412 720 l 665 720 l 844 541 l 844 433 z m 665 0 l 412 0 l 412 168 l 545 168 l 545 258 l 844 258 l 844 180 l 665 0 z m 686 889 l 310 776 l 268 876 l 597 1090 l 722 1032 l 686 889 z "},"č":{"ha":897,"x_min":64,"x_max":844,"o":"m 364 0 l 244 0 l 64 180 l 64 541 l 244 720 l 364 720 l 364 0 z m 844 433 l 545 433 l 545 541 l 412 541 l 412 720 l 665 720 l 844 541 l 844 433 z m 665 0 l 412 0 l 412 168 l 545 168 l 545 258 l 844 258 l 844 180 l 665 0 z m 570 782 l 363 782 l 163 1008 l 227 1074 l 466 932 l 706 1074 l 770 1008 l 570 782 z "},"ç":{"ha":897,"x_min":64,"x_max":844,"o":"m 364 0 l 244 0 l 64 180 l 64 541 l 244 720 l 364 720 l 364 0 z m 844 433 l 545 433 l 545 541 l 412 541 l 412 720 l 665 720 l 844 541 l 844 433 z m 665 0 l 412 0 l 412 168 l 545 168 l 545 258 l 844 258 l 844 180 l 665 0 z m 457 -344 l 245 -344 l 245 -153 l 439 -153 l 439 -42 l 576 -42 l 576 -208 l 457 -344 z "},"ḉ":{"ha":897,"x_min":64,"x_max":844,"o":"m 364 0 l 244 0 l 64 180 l 64 541 l 244 720 l 364 720 l 364 0 z m 844 433 l 545 433 l 545 541 l 412 541 l 412 720 l 665 720 l 844 541 l 844 433 z m 665 0 l 412 0 l 412 168 l 545 168 l 545 258 l 844 258 l 844 180 l 665 0 z m 405 -344 l 193 -344 l 193 -153 l 387 -153 l 387 -42 l 524 -42 l 524 -208 l 405 -344 z m 686 869 l 334 762 l 268 855 l 597 1069 l 722 1012 l 686 869 z "},"ĉ":{"ha":897,"x_min":64,"x_max":844,"o":"m 364 0 l 244 0 l 64 180 l 64 541 l 244 720 l 364 720 l 364 0 z m 844 433 l 545 433 l 545 541 l 412 541 l 412 720 l 665 720 l 844 541 l 844 433 z m 665 0 l 412 0 l 412 168 l 545 168 l 545 258 l 844 258 l 844 180 l 665 0 z m 461 924 l 222 782 l 158 848 l 358 1075 l 564 1075 l 764 848 l 701 782 l 461 924 z "},"ċ":{"ha":897,"x_min":64,"x_max":844,"o":"m 364 0 l 244 0 l 64 180 l 64 541 l 244 720 l 364 720 l 364 0 z m 844 433 l 545 433 l 545 541 l 412 541 l 412 720 l 665 720 l 844 541 l 844 433 z m 665 0 l 412 0 l 412 168 l 545 168 l 545 258 l 844 258 l 844 180 l 665 0 z m 608 810 l 308 810 l 308 1001 l 608 1001 l 608 810 z "},"d":{"ha":926,"x_min":64,"x_max":856,"o":"m 856 0 l 556 0 l 556 995 l 856 995 l 856 0 z m 437 0 l 227 0 l 64 162 l 64 558 l 227 720 l 509 720 l 509 541 l 364 541 l 364 168 l 509 168 l 509 71 l 437 0 z "},"ð":{"ha":918,"x_min":66,"x_max":846,"o":"m 666 0 l 546 0 l 546 652 l 480 741 l 368 688 l 302 799 l 412 854 l 343 934 l 554 1044 l 631 964 l 753 1030 l 812 913 l 713 852 l 846 655 l 846 180 l 666 0 z m 498 0 l 246 0 l 66 180 l 66 476 l 246 638 l 498 638 l 498 476 l 366 476 l 366 180 l 498 180 l 498 0 z "},"ď":{"ha":1236,"x_min":64,"x_max":1129,"o":"m 856 0 l 556 0 l 556 995 l 856 995 l 856 0 z m 437 0 l 227 0 l 64 162 l 64 558 l 227 720 l 509 720 l 509 541 l 364 541 l 364 168 l 509 168 l 509 71 l 437 0 z m 1097 747 l 903 747 l 920 995 l 1129 995 l 1097 747 z "},"ḓ":{"ha":926,"x_min":64,"x_max":856,"o":"m 856 0 l 556 0 l 556 995 l 856 995 l 856 0 z m 437 0 l 227 0 l 64 162 l 64 558 l 227 720 l 509 720 l 509 541 l 364 541 l 364 168 l 509 168 l 509 71 l 437 0 z m 490 -229 l 251 -372 l 187 -306 l 387 -79 l 593 -79 l 793 -306 l 730 -372 l 490 -229 z "},"đ":{"ha":926,"x_min":64,"x_max":951,"o":"m 856 0 l 556 0 l 556 800 l 428 800 l 428 921 l 556 921 l 556 995 l 856 995 l 856 921 l 951 921 l 951 800 l 856 800 l 856 0 z m 437 0 l 227 0 l 64 162 l 64 558 l 227 720 l 509 720 l 509 541 l 364 541 l 364 168 l 509 168 l 509 71 l 437 0 z "},"ḋ":{"ha":926,"x_min":64,"x_max":856,"o":"m 856 0 l 556 0 l 556 995 l 856 995 l 856 0 z m 437 0 l 227 0 l 64 162 l 64 558 l 227 720 l 509 720 l 509 541 l 364 541 l 364 168 l 509 168 l 509 71 l 437 0 z m 376 810 l 76 810 l 76 1001 l 376 1001 l 376 810 z "},"ḍ":{"ha":926,"x_min":64,"x_max":856,"o":"m 856 0 l 556 0 l 556 995 l 856 995 l 856 0 z m 437 0 l 227 0 l 64 162 l 64 558 l 227 720 l 509 720 l 509 541 l 364 541 l 364 168 l 509 168 l 509 71 l 437 0 z m 640 -273 l 340 -273 l 340 -81 l 640 -81 l 640 -273 z "},"ḏ":{"ha":926,"x_min":64,"x_max":856,"o":"m 856 0 l 556 0 l 556 995 l 856 995 l 856 0 z m 437 0 l 227 0 l 64 162 l 64 558 l 227 720 l 509 720 l 509 541 l 364 541 l 364 168 l 509 168 l 509 71 l 437 0 z m 737 -211 l 243 -211 l 243 -96 l 737 -96 l 737 -211 z "},"ǆ":{"ha":1718,"x_min":64,"x_max":1661,"o":"m 856 0 l 556 0 l 556 995 l 856 995 l 856 0 z m 437 0 l 227 0 l 64 162 l 64 558 l 227 720 l 509 720 l 509 541 l 364 541 l 364 168 l 509 168 l 509 71 l 437 0 z m 1186 0 l 985 0 l 985 174 l 1453 720 l 1660 720 l 1660 541 l 1186 0 z m 1242 541 l 992 541 l 992 720 l 1397 720 l 1242 541 z m 1661 0 l 1242 0 l 1401 180 l 1661 180 l 1661 0 z m 1459 782 l 1253 782 l 1053 1008 l 1116 1074 l 1356 932 l 1596 1074 l 1659 1008 l 1459 782 z "},"e":{"ha":903,"x_min":64,"x_max":846,"o":"m 364 0 l 244 0 l 64 180 l 64 541 l 244 720 l 364 720 l 364 0 z m 846 289 l 412 289 l 412 414 l 570 414 l 570 541 l 412 541 l 412 720 l 666 720 l 846 541 l 846 289 z m 725 0 l 412 0 l 412 168 l 814 168 l 814 90 l 725 0 z "},"é":{"ha":903,"x_min":64,"x_max":846,"o":"m 364 0 l 244 0 l 64 180 l 64 541 l 244 720 l 364 720 l 364 0 z m 846 289 l 412 289 l 412 414 l 570 414 l 570 541 l 412 541 l 412 720 l 666 720 l 846 541 l 846 289 z m 725 0 l 412 0 l 412 168 l 814 168 l 814 90 l 725 0 z m 677 869 l 326 762 l 260 855 l 589 1069 l 714 1012 l 677 869 z "},"ĕ":{"ha":903,"x_min":64,"x_max":846,"o":"m 364 0 l 244 0 l 64 180 l 64 541 l 244 720 l 364 720 l 364 0 z m 846 289 l 412 289 l 412 414 l 570 414 l 570 541 l 412 541 l 412 720 l 666 720 l 846 541 l 846 289 z m 725 0 l 412 0 l 412 168 l 814 168 l 814 90 l 725 0 z m 575 783 l 330 783 l 231 881 l 193 1038 l 287 1064 l 342 941 l 563 941 l 618 1064 l 712 1038 l 674 881 l 575 783 z "},"ě":{"ha":903,"x_min":64,"x_max":846,"o":"m 364 0 l 244 0 l 64 180 l 64 541 l 244 720 l 364 720 l 364 0 z m 846 289 l 412 289 l 412 414 l 570 414 l 570 541 l 412 541 l 412 720 l 666 720 l 846 541 l 846 289 z m 725 0 l 412 0 l 412 168 l 814 168 l 814 90 l 725 0 z m 557 782 l 351 782 l 151 1008 l 214 1074 l 453 932 l 693 1074 l 757 1008 l 557 782 z "},"ȩ":{"ha":903,"x_min":64,"x_max":846,"o":"m 364 0 l 244 0 l 64 180 l 64 541 l 244 720 l 364 720 l 364 0 z m 846 289 l 412 289 l 412 414 l 570 414 l 570 541 l 412 541 l 412 720 l 666 720 l 846 541 l 846 289 z m 725 0 l 412 0 l 412 168 l 814 168 l 814 90 l 725 0 z m 498 -344 l 286 -344 l 286 -153 l 479 -153 l 479 -42 l 616 -42 l 616 -208 l 498 -344 z "},"ê":{"ha":903,"x_min":64,"x_max":846,"o":"m 364 0 l 244 0 l 64 180 l 64 541 l 244 720 l 364 720 l 364 0 z m 846 289 l 412 289 l 412 414 l 570 414 l 570 541 l 412 541 l 412 720 l 666 720 l 846 541 l 846 289 z m 725 0 l 412 0 l 412 168 l 814 168 l 814 90 l 725 0 z m 453 897 l 214 754 l 150 820 l 350 1047 l 556 1047 l 756 820 l 693 754 l 453 897 z "},"ế":{"ha":903,"x_min":64,"x_max":973,"o":"m 364 0 l 244 0 l 64 180 l 64 541 l 244 720 l 364 720 l 364 0 z m 846 289 l 412 289 l 412 414 l 570 414 l 570 541 l 412 541 l 412 720 l 666 720 l 846 541 l 846 289 z m 725 0 l 412 0 l 412 168 l 814 168 l 814 90 l 725 0 z m 943 1039 l 673 941 l 618 1015 l 872 1202 l 973 1155 l 943 1039 z m 453 892 l 257 775 l 205 829 l 369 1015 l 537 1015 l 701 829 l 650 775 l 453 892 z "},"ệ":{"ha":903,"x_min":64,"x_max":846,"o":"m 364 0 l 244 0 l 64 180 l 64 541 l 244 720 l 364 720 l 364 0 z m 846 289 l 412 289 l 412 414 l 570 414 l 570 541 l 412 541 l 412 720 l 666 720 l 846 541 l 846 289 z m 725 0 l 412 0 l 412 168 l 814 168 l 814 90 l 725 0 z m 602 -273 l 301 -273 l 301 -81 l 602 -81 l 602 -273 z m 453 897 l 214 754 l 150 820 l 350 1047 l 556 1047 l 756 820 l 693 754 l 453 897 z "},"ề":{"ha":903,"x_min":-85,"x_max":846,"o":"m 364 0 l 244 0 l 64 180 l 64 541 l 244 720 l 364 720 l 364 0 z m 846 289 l 412 289 l 412 414 l 570 414 l 570 541 l 412 541 l 412 720 l 666 720 l 846 541 l 846 289 z m 725 0 l 412 0 l 412 168 l 814 168 l 814 90 l 725 0 z m 269 1017 l 215 943 l -56 1041 l -85 1157 l 16 1204 l 269 1017 z m 453 892 l 257 775 l 205 829 l 369 1015 l 537 1015 l 701 829 l 650 775 l 453 892 z "},"ể":{"ha":903,"x_min":64,"x_max":846,"o":"m 364 0 l 244 0 l 64 180 l 64 541 l 244 720 l 364 720 l 364 0 z m 846 289 l 412 289 l 412 414 l 570 414 l 570 541 l 412 541 l 412 720 l 666 720 l 846 541 l 846 289 z m 725 0 l 412 0 l 412 168 l 814 168 l 814 90 l 725 0 z m 519 1057 l 405 1057 l 405 1135 l 243 1135 l 243 1261 l 447 1261 l 519 1182 l 519 1057 z m 453 892 l 257 775 l 205 829 l 369 1015 l 537 1015 l 701 829 l 650 775 l 453 892 z "},"ễ":{"ha":903,"x_min":64,"x_max":846,"o":"m 364 0 l 244 0 l 64 180 l 64 541 l 244 720 l 364 720 l 364 0 z m 846 289 l 412 289 l 412 414 l 570 414 l 570 541 l 412 541 l 412 720 l 666 720 l 846 541 l 846 289 z m 725 0 l 412 0 l 412 168 l 814 168 l 814 90 l 725 0 z m 581 1053 l 427 1053 l 368 1135 l 332 1135 l 256 1073 l 210 1120 l 315 1236 l 469 1236 l 528 1154 l 564 1154 l 639 1217 l 686 1170 l 581 1053 z m 453 892 l 257 775 l 205 829 l 369 1015 l 537 1015 l 701 829 l 650 775 l 453 892 z "},"ȅ":{"ha":903,"x_min":-32,"x_max":846,"o":"m 364 0 l 244 0 l 64 180 l 64 541 l 244 720 l 364 720 l 364 0 z m 846 289 l 412 289 l 412 414 l 570 414 l 570 541 l 412 541 l 412 720 l 666 720 l 846 541 l 846 289 z m 725 0 l 412 0 l 412 168 l 814 168 l 814 90 l 725 0 z m 694 862 l 625 776 l 349 930 l 340 1053 l 465 1090 l 694 862 z m 322 862 l 253 776 l -22 930 l -32 1053 l 93 1090 l 322 862 z "},"ë":{"ha":903,"x_min":64,"x_max":846,"o":"m 364 0 l 244 0 l 64 180 l 64 541 l 244 720 l 364 720 l 364 0 z m 846 289 l 412 289 l 412 414 l 570 414 l 570 541 l 412 541 l 412 720 l 666 720 l 846 541 l 846 289 z m 725 0 l 412 0 l 412 168 l 814 168 l 814 90 l 725 0 z m 745 812 l 517 812 l 517 1003 l 745 1003 l 745 812 z m 386 812 l 158 812 l 158 1003 l 386 1003 l 386 812 z "},"ė":{"ha":903,"x_min":64,"x_max":846,"o":"m 364 0 l 244 0 l 64 180 l 64 541 l 244 720 l 364 720 l 364 0 z m 846 289 l 412 289 l 412 414 l 570 414 l 570 541 l 412 541 l 412 720 l 666 720 l 846 541 l 846 289 z m 725 0 l 412 0 l 412 168 l 814 168 l 814 90 l 725 0 z m 595 810 l 295 810 l 295 1001 l 595 1001 l 595 810 z "},"ẹ":{"ha":903,"x_min":64,"x_max":846,"o":"m 364 0 l 244 0 l 64 180 l 64 541 l 244 720 l 364 720 l 364 0 z m 846 289 l 412 289 l 412 414 l 570 414 l 570 541 l 412 541 l 412 720 l 666 720 l 846 541 l 846 289 z m 725 0 l 412 0 l 412 168 l 814 168 l 814 90 l 725 0 z m 602 -273 l 301 -273 l 301 -81 l 602 -81 l 602 -273 z "},"è":{"ha":903,"x_min":64,"x_max":846,"o":"m 364 0 l 244 0 l 64 180 l 64 541 l 244 720 l 364 720 l 364 0 z m 846 289 l 412 289 l 412 414 l 570 414 l 570 541 l 412 541 l 412 720 l 666 720 l 846 541 l 846 289 z m 725 0 l 412 0 l 412 168 l 814 168 l 814 90 l 725 0 z m 652 876 l 610 776 l 234 889 l 197 1032 l 322 1090 l 652 876 z "},"ẻ":{"ha":903,"x_min":64,"x_max":846,"o":"m 364 0 l 244 0 l 64 180 l 64 541 l 244 720 l 364 720 l 364 0 z m 846 289 l 412 289 l 412 414 l 570 414 l 570 541 l 412 541 l 412 720 l 666 720 l 846 541 l 846 289 z m 725 0 l 412 0 l 412 168 l 814 168 l 814 90 l 725 0 z m 610 778 l 473 778 l 473 888 l 280 888 l 280 1080 l 492 1080 l 610 944 l 610 778 z "},"ȇ":{"ha":903,"x_min":64,"x_max":846,"o":"m 364 0 l 244 0 l 64 180 l 64 541 l 244 720 l 364 720 l 364 0 z m 846 289 l 412 289 l 412 414 l 570 414 l 570 541 l 412 541 l 412 720 l 666 720 l 846 541 l 846 289 z m 725 0 l 412 0 l 412 168 l 814 168 l 814 90 l 725 0 z m 342 895 l 287 772 l 193 798 l 231 955 l 330 1053 l 575 1053 l 674 955 l 712 798 l 618 772 l 563 895 l 342 895 z "},"ē":{"ha":903,"x_min":64,"x_max":846,"o":"m 364 0 l 244 0 l 64 180 l 64 541 l 244 720 l 364 720 l 364 0 z m 846 289 l 412 289 l 412 414 l 570 414 l 570 541 l 412 541 l 412 720 l 666 720 l 846 541 l 846 289 z m 725 0 l 412 0 l 412 168 l 814 168 l 814 90 l 725 0 z m 714 816 l 193 816 l 193 949 l 714 949 l 714 816 z "},"ę":{"ha":903,"x_min":64,"x_max":846,"o":"m 364 0 l 244 0 l 64 180 l 64 541 l 244 720 l 364 720 l 364 0 z m 846 289 l 412 289 l 412 414 l 570 414 l 570 541 l 412 541 l 412 720 l 666 720 l 846 541 l 846 289 z m 725 0 l 412 0 l 412 168 l 814 168 l 814 90 l 725 0 z m 812 -337 l 601 -337 l 482 -201 l 482 -35 l 619 -35 l 619 -146 l 812 -146 l 812 -337 z "},"ɛ":{"ha":822,"x_min":64,"x_max":765,"o":"m 309 0 l 210 0 l 64 140 l 64 288 l 136 357 l 64 431 l 64 578 l 210 720 l 309 720 l 309 431 l 547 431 l 547 288 l 309 288 l 309 0 z m 765 502 l 524 502 l 524 575 l 361 575 l 361 720 l 620 720 l 765 575 l 765 502 z m 620 0 l 361 0 l 361 140 l 524 140 l 524 214 l 765 214 l 765 140 l 620 0 z "},"ẽ":{"ha":903,"x_min":64,"x_max":846,"o":"m 364 0 l 244 0 l 64 180 l 64 541 l 244 720 l 364 720 l 364 0 z m 846 289 l 412 289 l 412 414 l 570 414 l 570 541 l 412 541 l 412 720 l 666 720 l 846 541 l 846 289 z m 725 0 l 412 0 l 412 168 l 814 168 l 814 90 l 725 0 z m 646 801 l 454 801 l 380 903 l 335 903 l 241 825 l 182 884 l 315 1029 l 507 1029 l 580 927 l 625 927 l 719 1005 l 778 946 l 646 801 z "},"ǝ":{"ha":903,"x_min":57,"x_max":838,"o":"m 659 0 l 538 0 l 538 720 l 659 720 l 838 541 l 838 180 l 659 0 z m 491 552 l 88 552 l 88 630 l 178 720 l 491 720 l 491 552 z m 491 0 l 237 0 l 57 180 l 57 431 l 491 431 l 491 306 l 333 306 l 333 180 l 491 180 l 491 0 z "},"ə":{"ha":903,"x_min":57,"x_max":838,"o":"m 659 0 l 538 0 l 538 720 l 659 720 l 838 541 l 838 180 l 659 0 z m 491 552 l 88 552 l 88 630 l 178 720 l 491 720 l 491 552 z m 491 0 l 237 0 l 57 180 l 57 431 l 491 431 l 491 306 l 333 306 l 333 180 l 491 180 l 491 0 z "},"f":{"ha":615,"x_min":26,"x_max":614,"o":"m 397 0 l 97 0 l 97 541 l 26 541 l 26 720 l 97 720 l 97 827 l 278 995 l 614 995 l 614 815 l 397 815 l 397 0 z m 614 541 l 443 541 l 445 720 l 614 720 l 614 541 z "},"ḟ":{"ha":615,"x_min":26,"x_max":614,"o":"m 397 0 l 97 0 l 97 541 l 26 541 l 26 720 l 97 720 l 97 827 l 278 995 l 614 995 l 614 815 l 397 815 l 397 0 z m 614 541 l 443 541 l 445 720 l 614 720 l 614 541 z m 404 1046 l 104 1046 l 104 1237 l 404 1237 l 404 1046 z "},"g":{"ha":909,"x_min":64,"x_max":844,"o":"m 665 -252 l 269 -252 l 179 -161 l 179 -95 l 545 -95 l 545 541 l 412 541 l 412 720 l 665 720 l 844 541 l 844 -71 l 665 -252 z m 408 0 l 244 0 l 64 180 l 64 541 l 244 720 l 364 720 l 364 168 l 497 168 l 497 89 l 408 0 z "},"ğ":{"ha":909,"x_min":64,"x_max":844,"o":"m 665 -252 l 269 -252 l 179 -161 l 179 -95 l 545 -95 l 545 541 l 412 541 l 412 720 l 665 720 l 844 541 l 844 -71 l 665 -252 z m 408 0 l 244 0 l 64 180 l 64 541 l 244 720 l 364 720 l 364 168 l 497 168 l 497 89 l 408 0 z m 596 783 l 351 783 l 252 881 l 214 1038 l 308 1064 l 363 941 l 584 941 l 640 1064 l 733 1038 l 695 881 l 596 783 z "},"ǧ":{"ha":909,"x_min":64,"x_max":844,"o":"m 665 -252 l 269 -252 l 179 -161 l 179 -95 l 545 -95 l 545 541 l 412 541 l 412 720 l 665 720 l 844 541 l 844 -71 l 665 -252 z m 408 0 l 244 0 l 64 180 l 64 541 l 244 720 l 364 720 l 364 168 l 497 168 l 497 89 l 408 0 z m 578 782 l 372 782 l 172 1008 l 235 1074 l 474 932 l 714 1074 l 778 1008 l 578 782 z "},"ĝ":{"ha":909,"x_min":64,"x_max":844,"o":"m 665 -252 l 269 -252 l 179 -161 l 179 -95 l 545 -95 l 545 541 l 412 541 l 412 720 l 665 720 l 844 541 l 844 -71 l 665 -252 z m 408 0 l 244 0 l 64 180 l 64 541 l 244 720 l 364 720 l 364 168 l 497 168 l 497 89 l 408 0 z m 474 897 l 235 754 l 171 820 l 371 1047 l 577 1047 l 777 820 l 714 754 l 474 897 z "},"ģ":{"ha":909,"x_min":64,"x_max":844,"o":"m 665 -252 l 269 -252 l 179 -161 l 179 -95 l 545 -95 l 545 541 l 412 541 l 412 720 l 665 720 l 844 541 l 844 -71 l 665 -252 z m 408 0 l 244 0 l 64 180 l 64 541 l 244 720 l 364 720 l 364 168 l 497 168 l 497 89 l 408 0 z m 623 826 l 323 826 l 323 994 l 437 1179 l 557 1179 l 516 1024 l 623 1024 l 623 826 z "},"ġ":{"ha":909,"x_min":64,"x_max":844,"o":"m 665 -252 l 269 -252 l 179 -161 l 179 -95 l 545 -95 l 545 541 l 412 541 l 412 720 l 665 720 l 844 541 l 844 -71 l 665 -252 z m 408 0 l 244 0 l 64 180 l 64 541 l 244 720 l 364 720 l 364 168 l 497 168 l 497 89 l 408 0 z m 616 810 l 316 810 l 316 1001 l 616 1001 l 616 810 z "},"ḡ":{"ha":909,"x_min":64,"x_max":844,"o":"m 665 -252 l 269 -252 l 179 -161 l 179 -95 l 545 -95 l 545 541 l 412 541 l 412 720 l 665 720 l 844 541 l 844 -71 l 665 -252 z m 408 0 l 244 0 l 64 180 l 64 541 l 244 720 l 364 720 l 364 168 l 497 168 l 497 89 l 408 0 z m 735 816 l 214 816 l 214 949 l 735 949 l 735 816 z "},"h":{"ha":919,"x_min":71,"x_max":850,"o":"m 370 0 l 71 0 l 71 995 l 370 995 l 370 0 z m 850 0 l 550 0 l 550 541 l 418 541 l 418 631 l 506 720 l 670 720 l 850 541 l 850 0 z "},"ħ":{"ha":915,"x_min":-24,"x_max":850,"o":"m 370 0 l 71 0 l 71 780 l -24 780 l -24 900 l 71 900 l 71 990 l 370 990 l 370 900 l 576 900 l 576 780 l 370 780 l 370 0 z m 850 0 l 550 0 l 550 541 l 416 541 l 416 631 l 505 720 l 670 720 l 850 541 l 850 0 z "},"ĥ":{"ha":919,"x_min":-42,"x_max":850,"o":"m 370 0 l 71 0 l 71 995 l 370 995 l 370 0 z m 850 0 l 550 0 l 550 541 l 418 541 l 418 631 l 506 720 l 670 720 l 850 541 l 850 0 z m 218 1149 l 10 1041 l -42 1095 l 132 1271 l 302 1271 l 475 1095 l 423 1041 l 218 1149 z "},"ḥ":{"ha":919,"x_min":71,"x_max":850,"o":"m 370 0 l 71 0 l 71 995 l 370 995 l 370 0 z m 850 0 l 550 0 l 550 541 l 418 541 l 418 631 l 506 720 l 670 720 l 850 541 l 850 0 z m 608 -273 l 307 -273 l 307 -81 l 608 -81 l 608 -273 z "},"i":{"ha":443,"x_min":71,"x_max":372,"o":"m 372 810 l 71 810 l 71 1001 l 372 1001 l 372 810 z m 372 0 l 71 0 l 71 720 l 372 720 l 372 0 z "},"ı":{"ha":443,"x_min":71,"x_max":372,"o":"m 372 0 l 71 0 l 71 720 l 372 720 l 372 0 z "},"í":{"ha":443,"x_min":28,"x_max":483,"o":"m 372 0 l 71 0 l 71 720 l 372 720 l 372 0 z m 446 869 l 95 762 l 28 855 l 358 1069 l 483 1012 l 446 869 z "},"ĭ":{"ha":443,"x_min":-38,"x_max":481,"o":"m 372 0 l 71 0 l 71 720 l 372 720 l 372 0 z m 344 783 l 99 783 l 0 881 l -38 1038 l 56 1064 l 111 941 l 332 941 l 387 1064 l 481 1038 l 443 881 l 344 783 z "},"ǐ":{"ha":443,"x_min":-81,"x_max":526,"o":"m 372 0 l 71 0 l 71 720 l 372 720 l 372 0 z m 326 782 l 119 782 l -81 1008 l -18 1074 l 222 932 l 462 1074 l 526 1008 l 326 782 z "},"î":{"ha":443,"x_min":-81,"x_max":525,"o":"m 372 0 l 71 0 l 71 720 l 372 720 l 372 0 z m 222 897 l -18 754 l -81 820 l 119 1047 l 325 1047 l 525 820 l 462 754 l 222 897 z "},"ȉ":{"ha":443,"x_min":-263,"x_max":463,"o":"m 372 0 l 71 0 l 71 720 l 372 720 l 372 0 z m 463 862 l 393 776 l 118 930 l 109 1053 l 233 1090 l 463 862 z m 91 862 l 22 776 l -254 930 l -263 1053 l -138 1090 l 91 862 z "},"ï":{"ha":443,"x_min":-73,"x_max":514,"o":"m 372 0 l 71 0 l 71 720 l 372 720 l 372 0 z m 514 812 l 286 812 l 286 1003 l 514 1003 l 514 812 z m 155 812 l -73 812 l -73 1003 l 155 1003 l 155 812 z "},"ḯ":{"ha":443,"x_min":-73,"x_max":514,"o":"m 372 0 l 71 0 l 71 720 l 372 720 l 372 0 z m 514 812 l 286 812 l 286 1003 l 514 1003 l 514 812 z m 155 812 l -73 812 l -73 1003 l 155 1003 l 155 812 z m 445 1108 l 94 1001 l 27 1095 l 357 1309 l 481 1251 l 445 1108 z "},"ị":{"ha":443,"x_min":71,"x_max":372,"o":"m 372 810 l 71 810 l 71 1001 l 372 1001 l 372 810 z m 372 0 l 71 0 l 71 720 l 372 720 l 372 0 z m 372 -273 l 71 -273 l 71 -81 l 372 -81 l 372 -273 z "},"ì":{"ha":443,"x_min":-34,"x_max":420,"o":"m 372 0 l 71 0 l 71 720 l 372 720 l 372 0 z m 420 876 l 379 776 l 3 889 l -34 1032 l 91 1090 l 420 876 z "},"ỉ":{"ha":443,"x_min":49,"x_max":379,"o":"m 372 0 l 71 0 l 71 720 l 372 720 l 372 0 z m 379 778 l 242 778 l 242 888 l 49 888 l 49 1080 l 260 1080 l 379 944 l 379 778 z "},"ȋ":{"ha":443,"x_min":-38,"x_max":481,"o":"m 372 0 l 71 0 l 71 720 l 372 720 l 372 0 z m 111 895 l 56 772 l -38 798 l 0 955 l 99 1053 l 344 1053 l 443 955 l 481 798 l 387 772 l 332 895 l 111 895 z "},"ĳ":{"ha":906,"x_min":71,"x_max":834,"o":"m 372 810 l 71 810 l 71 1001 l 372 1001 l 372 810 z m 833 810 l 533 810 l 533 1001 l 833 1001 l 833 810 z m 654 -264 l 73 -264 l 73 -83 l 534 -83 l 534 720 l 834 720 l 834 -83 l 654 -264 z m 372 0 l 234 0 l 71 162 l 71 720 l 372 720 l 372 0 z "},"ī":{"ha":443,"x_min":-39,"x_max":483,"o":"m 372 0 l 71 0 l 71 720 l 372 720 l 372 0 z m 483 816 l -39 816 l -39 949 l 483 949 l 483 816 z "},"į":{"ha":443,"x_min":64,"x_max":399,"o":"m 372 0 l 71 0 l 71 720 l 372 720 l 372 0 z m 364 810 l 64 810 l 64 1001 l 364 1001 l 364 810 z m 399 -337 l 187 -337 l 68 -201 l 68 -35 l 205 -35 l 205 -146 l 399 -146 l 399 -337 z "},"ɨ":{"ha":443,"x_min":-23,"x_max":471,"o":"m 372 0 l 71 0 l 71 720 l 372 720 l 372 0 z m 364 810 l 64 810 l 64 1001 l 364 1001 l 364 810 z m 471 340 l -23 340 l -23 455 l 471 455 l 471 340 z "},"ĩ":{"ha":443,"x_min":-49,"x_max":547,"o":"m 372 0 l 71 0 l 71 720 l 372 720 l 372 0 z m 414 801 l 222 801 l 149 903 l 104 903 l 10 825 l -49 884 l 83 1029 l 275 1029 l 349 927 l 394 927 l 488 1005 l 547 946 l 414 801 z "},"j":{"ha":443,"x_min":-68,"x_max":372,"o":"m 371 810 l 71 810 l 71 1001 l 371 1001 l 371 810 z m 191 -240 l -68 -240 l -68 -60 l 71 -60 l 71 720 l 372 720 l 372 -60 l 191 -240 z "},"ȷ":{"ha":443,"x_min":-68,"x_max":372,"o":"m 191 -240 l -68 -240 l -68 -60 l 71 -60 l 71 720 l 372 720 l 372 -60 l 191 -240 z "},"ĵ":{"ha":443,"x_min":-81,"x_max":525,"o":"m 191 -240 l -68 -240 l -68 -60 l 71 -60 l 71 720 l 372 720 l 372 -60 l 191 -240 z m 222 897 l -18 754 l -81 820 l 119 1047 l 325 1047 l 525 820 l 462 754 l 222 897 z "},"k":{"ha":890,"x_min":71,"x_max":881,"o":"m 370 0 l 71 0 l 71 995 l 370 995 l 370 0 z m 865 720 l 417 102 l 417 513 l 555 720 l 865 720 z m 881 0 l 555 0 l 506 145 l 683 384 l 881 0 z "},"ķ":{"ha":890,"x_min":71,"x_max":881,"o":"m 370 0 l 71 0 l 71 995 l 370 995 l 370 0 z m 865 720 l 417 102 l 417 513 l 555 720 l 865 720 z m 881 0 l 555 0 l 506 145 l 683 384 l 881 0 z m 485 -432 l 364 -432 l 406 -277 l 298 -277 l 298 -79 l 598 -79 l 598 -247 l 485 -432 z "},"ĸ":{"ha":886,"x_min":71,"x_max":881,"o":"m 865 720 l 416 102 l 416 513 l 555 720 l 865 720 z m 370 0 l 71 0 l 71 720 l 370 720 l 370 0 z m 881 0 l 555 0 l 505 145 l 680 384 l 881 0 z "},"l":{"ha":511,"x_min":71,"x_max":505,"o":"m 505 0 l 239 0 l 71 168 l 71 995 l 370 995 l 370 180 l 505 180 l 505 0 z "},"ĺ":{"ha":511,"x_min":71,"x_max":513,"o":"m 505 0 l 239 0 l 71 168 l 71 995 l 370 995 l 370 180 l 505 180 l 505 0 z m 481 1128 l 140 1050 l 105 1133 l 408 1296 l 513 1243 l 481 1128 z "},"ľ":{"ha":772,"x_min":71,"x_max":675,"o":"m 505 0 l 239 0 l 71 168 l 71 995 l 370 995 l 370 180 l 505 180 l 505 0 z m 644 747 l 450 747 l 466 995 l 675 995 l 644 747 z "},"ḽ":{"ha":511,"x_min":-47,"x_max":559,"o":"m 505 0 l 239 0 l 71 168 l 71 995 l 370 995 l 370 180 l 505 180 l 505 0 z m 256 -229 l 16 -372 l -47 -306 l 153 -79 l 359 -79 l 559 -306 l 496 -372 l 256 -229 z "},"ļ":{"ha":511,"x_min":71,"x_max":505,"o":"m 505 0 l 239 0 l 71 168 l 71 995 l 370 995 l 370 180 l 505 180 l 505 0 z m 292 -433 l 172 -433 l 213 -278 l 106 -278 l 106 -80 l 406 -80 l 406 -248 l 292 -433 z "},"ŀ":{"ha":743,"x_min":71,"x_max":737,"o":"m 505 0 l 239 0 l 71 168 l 71 995 l 370 995 l 370 180 l 505 180 l 505 0 z m 647 315 l 528 315 l 437 404 l 437 524 l 528 614 l 647 614 l 737 524 l 737 404 l 647 315 z "},"ḷ":{"ha":511,"x_min":71,"x_max":505,"o":"m 505 0 l 239 0 l 71 168 l 71 995 l 370 995 l 370 180 l 505 180 l 505 0 z m 406 -273 l 105 -273 l 105 -81 l 406 -81 l 406 -273 z "},"ǉ":{"ha":963,"x_min":71,"x_max":892,"o":"m 505 0 l 239 0 l 71 168 l 71 995 l 370 995 l 370 180 l 505 180 l 505 0 z m 891 810 l 591 810 l 591 1001 l 891 1001 l 891 810 z m 711 -240 l 452 -240 l 452 -60 l 591 -60 l 591 720 l 892 720 l 892 -60 l 711 -240 z "},"ḻ":{"ha":511,"x_min":8,"x_max":505,"o":"m 505 0 l 239 0 l 71 168 l 71 995 l 370 995 l 370 180 l 505 180 l 505 0 z m 503 -211 l 8 -211 l 8 -96 l 503 -96 l 503 -211 z "},"ł":{"ha":511,"x_min":-9,"x_max":505,"o":"m 505 0 l 239 0 l 71 168 l 71 438 l -9 411 l -9 531 l 71 558 l 71 995 l 370 995 l 370 661 l 493 703 l 493 583 l 370 541 l 370 180 l 505 180 l 505 0 z "},"m":{"ha":1379,"x_min":71,"x_max":1310,"o":"m 841 0 l 541 0 l 541 541 l 418 541 l 418 625 l 513 720 l 745 720 l 841 624 l 841 0 z m 371 0 l 71 0 l 71 720 l 371 720 l 371 0 z m 1310 0 l 1010 0 l 1010 541 l 888 541 l 888 624 l 981 720 l 1164 720 l 1310 572 l 1310 0 z "},"ḿ":{"ha":1379,"x_min":71,"x_max":1310,"o":"m 841 0 l 541 0 l 541 541 l 418 541 l 418 625 l 513 720 l 745 720 l 841 624 l 841 0 z m 371 0 l 71 0 l 71 720 l 371 720 l 371 0 z m 1310 0 l 1010 0 l 1010 541 l 888 541 l 888 624 l 981 720 l 1164 720 l 1310 572 l 1310 0 z m 920 869 l 569 762 l 503 855 l 832 1069 l 957 1012 l 920 869 z "},"ṁ":{"ha":1379,"x_min":71,"x_max":1310,"o":"m 841 0 l 541 0 l 541 541 l 418 541 l 418 625 l 513 720 l 745 720 l 841 624 l 841 0 z m 371 0 l 71 0 l 71 720 l 371 720 l 371 0 z m 1310 0 l 1010 0 l 1010 541 l 888 541 l 888 624 l 981 720 l 1164 720 l 1310 572 l 1310 0 z m 843 810 l 543 810 l 543 1001 l 843 1001 l 843 810 z "},"ṃ":{"ha":1379,"x_min":71,"x_max":1310,"o":"m 841 0 l 541 0 l 541 541 l 418 541 l 418 625 l 513 720 l 745 720 l 841 624 l 841 0 z m 371 0 l 71 0 l 71 720 l 371 720 l 371 0 z m 1310 0 l 1010 0 l 1010 541 l 888 541 l 888 624 l 981 720 l 1164 720 l 1310 572 l 1310 0 z m 833 -273 l 532 -273 l 532 -81 l 833 -81 l 833 -273 z "},"n":{"ha":920,"x_min":71,"x_max":851,"o":"m 851 0 l 551 0 l 551 541 l 422 541 l 422 619 l 522 720 l 689 720 l 851 558 l 851 0 z m 373 0 l 71 0 l 71 720 l 373 720 l 373 0 z "},"ń":{"ha":920,"x_min":71,"x_max":851,"o":"m 851 0 l 551 0 l 551 541 l 422 541 l 422 619 l 522 720 l 689 720 l 851 558 l 851 0 z m 373 0 l 71 0 l 71 720 l 373 720 l 373 0 z m 684 869 l 333 762 l 267 855 l 596 1069 l 721 1012 l 684 869 z "},"ň":{"ha":920,"x_min":71,"x_max":851,"o":"m 851 0 l 551 0 l 551 541 l 422 541 l 422 619 l 522 720 l 689 720 l 851 558 l 851 0 z m 373 0 l 71 0 l 71 720 l 373 720 l 373 0 z m 564 782 l 357 782 l 157 1008 l 220 1074 l 460 932 l 700 1074 l 764 1008 l 564 782 z "},"ṋ":{"ha":920,"x_min":71,"x_max":851,"o":"m 851 0 l 551 0 l 551 541 l 422 541 l 422 619 l 522 720 l 689 720 l 851 558 l 851 0 z m 373 0 l 71 0 l 71 720 l 373 720 l 373 0 z m 460 -229 l 220 -372 l 157 -306 l 357 -79 l 563 -79 l 763 -306 l 700 -372 l 460 -229 z "},"ņ":{"ha":920,"x_min":71,"x_max":851,"o":"m 851 0 l 551 0 l 551 541 l 422 541 l 422 619 l 522 720 l 689 720 l 851 558 l 851 0 z m 373 0 l 71 0 l 71 720 l 373 720 l 373 0 z m 496 -433 l 376 -433 l 417 -278 l 310 -278 l 310 -80 l 610 -80 l 610 -248 l 496 -433 z "},"ṅ":{"ha":920,"x_min":71,"x_max":851,"o":"m 851 0 l 551 0 l 551 541 l 422 541 l 422 619 l 522 720 l 689 720 l 851 558 l 851 0 z m 373 0 l 71 0 l 71 720 l 373 720 l 373 0 z m 602 810 l 302 810 l 302 1001 l 602 1001 l 602 810 z "},"ṇ":{"ha":920,"x_min":71,"x_max":851,"o":"m 851 0 l 551 0 l 551 541 l 422 541 l 422 619 l 522 720 l 689 720 l 851 558 l 851 0 z m 373 0 l 71 0 l 71 720 l 373 720 l 373 0 z m 610 -273 l 309 -273 l 309 -81 l 610 -81 l 610 -273 z "},"ŋ":{"ha":920,"x_min":71,"x_max":851,"o":"m 671 -302 l 412 -302 l 412 -122 l 551 -122 l 551 541 l 422 541 l 422 619 l 522 720 l 689 720 l 851 558 l 851 -122 l 671 -302 z m 373 0 l 71 0 l 71 720 l 373 720 l 373 0 z "},"ǌ":{"ha":1394,"x_min":71,"x_max":1322,"o":"m 851 0 l 551 0 l 551 541 l 422 541 l 422 619 l 522 720 l 689 720 l 851 558 l 851 0 z m 373 0 l 71 0 l 71 720 l 373 720 l 373 0 z m 1322 810 l 1022 810 l 1022 1001 l 1322 1001 l 1322 810 z m 1142 -240 l 883 -240 l 883 -60 l 1022 -60 l 1022 720 l 1322 720 l 1322 -60 l 1142 -240 z "},"ṉ":{"ha":920,"x_min":71,"x_max":851,"o":"m 851 0 l 551 0 l 551 541 l 422 541 l 422 619 l 522 720 l 689 720 l 851 558 l 851 0 z m 373 0 l 71 0 l 71 720 l 373 720 l 373 0 z m 707 -211 l 212 -211 l 212 -96 l 707 -96 l 707 -211 z "},"ñ":{"ha":920,"x_min":71,"x_max":851,"o":"m 851 0 l 551 0 l 551 541 l 422 541 l 422 619 l 522 720 l 689 720 l 851 558 l 851 0 z m 373 0 l 71 0 l 71 720 l 373 720 l 373 0 z m 652 801 l 460 801 l 387 903 l 342 903 l 248 825 l 189 884 l 321 1029 l 513 1029 l 587 927 l 632 927 l 726 1005 l 785 946 l 652 801 z "},"o":{"ha":938,"x_min":64,"x_max":873,"o":"m 446 0 l 244 0 l 64 180 l 64 541 l 244 720 l 446 720 l 446 541 l 368 541 l 368 168 l 446 168 l 446 0 z m 694 0 l 493 0 l 493 168 l 568 168 l 568 541 l 493 541 l 493 720 l 694 720 l 873 541 l 873 180 l 694 0 z "},"ó":{"ha":938,"x_min":64,"x_max":873,"o":"m 446 0 l 244 0 l 64 180 l 64 541 l 244 720 l 446 720 l 446 541 l 368 541 l 368 168 l 446 168 l 446 0 z m 694 0 l 493 0 l 493 168 l 568 168 l 568 541 l 493 541 l 493 720 l 694 720 l 873 541 l 873 180 l 694 0 z m 684 869 l 333 762 l 267 855 l 596 1069 l 721 1012 l 684 869 z "},"ŏ":{"ha":938,"x_min":64,"x_max":873,"o":"m 446 0 l 244 0 l 64 180 l 64 541 l 244 720 l 446 720 l 446 541 l 368 541 l 368 168 l 446 168 l 446 0 z m 694 0 l 493 0 l 493 168 l 568 168 l 568 541 l 493 541 l 493 720 l 694 720 l 873 541 l 873 180 l 694 0 z m 582 783 l 337 783 l 238 881 l 200 1038 l 294 1064 l 349 941 l 570 941 l 625 1064 l 719 1038 l 681 881 l 582 783 z "},"ǒ":{"ha":938,"x_min":64,"x_max":873,"o":"m 446 0 l 244 0 l 64 180 l 64 541 l 244 720 l 446 720 l 446 541 l 368 541 l 368 168 l 446 168 l 446 0 z m 694 0 l 493 0 l 493 168 l 568 168 l 568 541 l 493 541 l 493 720 l 694 720 l 873 541 l 873 180 l 694 0 z m 564 782 l 357 782 l 157 1008 l 220 1074 l 460 932 l 700 1074 l 764 1008 l 564 782 z "},"ô":{"ha":938,"x_min":64,"x_max":873,"o":"m 446 0 l 244 0 l 64 180 l 64 541 l 244 720 l 446 720 l 446 541 l 368 541 l 368 168 l 446 168 l 446 0 z m 694 0 l 493 0 l 493 168 l 568 168 l 568 541 l 493 541 l 493 720 l 694 720 l 873 541 l 873 180 l 694 0 z m 460 897 l 220 754 l 157 820 l 357 1047 l 563 1047 l 763 820 l 700 754 l 460 897 z "},"ố":{"ha":938,"x_min":64,"x_max":980,"o":"m 446 0 l 244 0 l 64 180 l 64 541 l 244 720 l 446 720 l 446 541 l 368 541 l 368 168 l 446 168 l 446 0 z m 694 0 l 493 0 l 493 168 l 568 168 l 568 541 l 493 541 l 493 720 l 694 720 l 873 541 l 873 180 l 694 0 z m 950 1039 l 680 941 l 625 1015 l 879 1202 l 980 1155 l 950 1039 z m 460 892 l 264 775 l 212 829 l 376 1015 l 544 1015 l 708 829 l 656 775 l 460 892 z "},"ộ":{"ha":938,"x_min":64,"x_max":873,"o":"m 446 0 l 244 0 l 64 180 l 64 541 l 244 720 l 446 720 l 446 541 l 368 541 l 368 168 l 446 168 l 446 0 z m 694 0 l 493 0 l 493 168 l 568 168 l 568 541 l 493 541 l 493 720 l 694 720 l 873 541 l 873 180 l 694 0 z m 619 -273 l 319 -273 l 319 -81 l 619 -81 l 619 -273 z m 460 897 l 220 754 l 157 820 l 357 1047 l 563 1047 l 763 820 l 700 754 l 460 897 z "},"ồ":{"ha":938,"x_min":-79,"x_max":873,"o":"m 446 0 l 244 0 l 64 180 l 64 541 l 244 720 l 446 720 l 446 541 l 368 541 l 368 168 l 446 168 l 446 0 z m 694 0 l 493 0 l 493 168 l 568 168 l 568 541 l 493 541 l 493 720 l 694 720 l 873 541 l 873 180 l 694 0 z m 276 1017 l 222 943 l -49 1041 l -79 1157 l 22 1204 l 276 1017 z m 460 892 l 264 775 l 212 829 l 376 1015 l 544 1015 l 708 829 l 656 775 l 460 892 z "},"ổ":{"ha":938,"x_min":64,"x_max":873,"o":"m 446 0 l 244 0 l 64 180 l 64 541 l 244 720 l 446 720 l 446 541 l 368 541 l 368 168 l 446 168 l 446 0 z m 694 0 l 493 0 l 493 168 l 568 168 l 568 541 l 493 541 l 493 720 l 694 720 l 873 541 l 873 180 l 694 0 z m 526 1057 l 412 1057 l 412 1135 l 250 1135 l 250 1261 l 454 1261 l 526 1182 l 526 1057 z m 460 892 l 264 775 l 212 829 l 376 1015 l 544 1015 l 708 829 l 656 775 l 460 892 z "},"ỗ":{"ha":938,"x_min":64,"x_max":873,"o":"m 446 0 l 244 0 l 64 180 l 64 541 l 244 720 l 446 720 l 446 541 l 368 541 l 368 168 l 446 168 l 446 0 z m 694 0 l 493 0 l 493 168 l 568 168 l 568 541 l 493 541 l 493 720 l 694 720 l 873 541 l 873 180 l 694 0 z m 587 1053 l 433 1053 l 374 1135 l 338 1135 l 263 1073 l 216 1120 l 322 1236 l 476 1236 l 534 1154 l 571 1154 l 646 1217 l 693 1170 l 587 1053 z m 460 892 l 264 775 l 212 829 l 376 1015 l 544 1015 l 708 829 l 656 775 l 460 892 z "},"ȍ":{"ha":938,"x_min":-25,"x_max":873,"o":"m 446 0 l 244 0 l 64 180 l 64 541 l 244 720 l 446 720 l 446 541 l 368 541 l 368 168 l 446 168 l 446 0 z m 694 0 l 493 0 l 493 168 l 568 168 l 568 541 l 493 541 l 493 720 l 694 720 l 873 541 l 873 180 l 694 0 z m 701 862 l 631 776 l 356 930 l 347 1053 l 471 1090 l 701 862 z m 329 862 l 260 776 l -16 930 l -25 1053 l 100 1090 l 329 862 z "},"ö":{"ha":938,"x_min":64,"x_max":873,"o":"m 446 0 l 244 0 l 64 180 l 64 541 l 244 720 l 446 720 l 446 541 l 368 541 l 368 168 l 446 168 l 446 0 z m 694 0 l 493 0 l 493 168 l 568 168 l 568 541 l 493 541 l 493 720 l 694 720 l 873 541 l 873 180 l 694 0 z m 752 812 l 524 812 l 524 1003 l 752 1003 l 752 812 z m 393 812 l 165 812 l 165 1003 l 393 1003 l 393 812 z "},"ȫ":{"ha":938,"x_min":64,"x_max":873,"o":"m 446 0 l 244 0 l 64 180 l 64 541 l 244 720 l 446 720 l 446 541 l 368 541 l 368 168 l 446 168 l 446 0 z m 694 0 l 493 0 l 493 168 l 568 168 l 568 541 l 493 541 l 493 720 l 694 720 l 873 541 l 873 180 l 694 0 z m 752 812 l 524 812 l 524 1003 l 752 1003 l 752 812 z m 393 812 l 165 812 l 165 1003 l 393 1003 l 393 812 z m 720 1055 l 198 1055 l 198 1189 l 720 1189 l 720 1055 z "},"ȱ":{"ha":938,"x_min":64,"x_max":873,"o":"m 446 0 l 244 0 l 64 180 l 64 541 l 244 720 l 446 720 l 446 541 l 368 541 l 368 168 l 446 168 l 446 0 z m 694 0 l 493 0 l 493 168 l 568 168 l 568 541 l 493 541 l 493 720 l 694 720 l 873 541 l 873 180 l 694 0 z m 602 810 l 302 810 l 302 1001 l 602 1001 l 602 810 z m 713 1035 l 192 1035 l 192 1168 l 713 1168 l 713 1035 z "},"ọ":{"ha":938,"x_min":64,"x_max":873,"o":"m 446 0 l 244 0 l 64 180 l 64 541 l 244 720 l 446 720 l 446 541 l 368 541 l 368 168 l 446 168 l 446 0 z m 694 0 l 493 0 l 493 168 l 568 168 l 568 541 l 493 541 l 493 720 l 694 720 l 873 541 l 873 180 l 694 0 z m 619 -273 l 319 -273 l 319 -81 l 619 -81 l 619 -273 z "},"ò":{"ha":938,"x_min":64,"x_max":873,"o":"m 446 0 l 244 0 l 64 180 l 64 541 l 244 720 l 446 720 l 446 541 l 368 541 l 368 168 l 446 168 l 446 0 z m 694 0 l 493 0 l 493 168 l 568 168 l 568 541 l 493 541 l 493 720 l 694 720 l 873 541 l 873 180 l 694 0 z m 659 876 l 617 776 l 241 889 l 204 1032 l 329 1090 l 659 876 z "},"ỏ":{"ha":938,"x_min":64,"x_max":873,"o":"m 446 0 l 244 0 l 64 180 l 64 541 l 244 720 l 446 720 l 446 541 l 368 541 l 368 168 l 446 168 l 446 0 z m 694 0 l 493 0 l 493 168 l 568 168 l 568 541 l 493 541 l 493 720 l 694 720 l 873 541 l 873 180 l 694 0 z m 617 778 l 480 778 l 480 888 l 287 888 l 287 1080 l 498 1080 l 617 944 l 617 778 z "},"ơ":{"ha":938,"x_min":64,"x_max":1096,"o":"m 694 0 l 493 0 l 493 168 l 568 168 l 568 541 l 493 541 l 493 720 l 905 720 l 905 913 l 1096 913 l 1096 702 l 960 583 l 831 583 l 873 541 l 873 180 l 694 0 z m 446 0 l 244 0 l 64 180 l 64 541 l 244 720 l 446 720 l 446 541 l 368 541 l 368 168 l 446 168 l 446 0 z "},"ớ":{"ha":938,"x_min":64,"x_max":1096,"o":"m 694 0 l 493 0 l 493 168 l 568 168 l 568 541 l 493 541 l 493 720 l 905 720 l 905 913 l 1096 913 l 1096 702 l 960 583 l 831 583 l 873 541 l 873 180 l 694 0 z m 446 0 l 244 0 l 64 180 l 64 541 l 244 720 l 446 720 l 446 541 l 368 541 l 368 168 l 446 168 l 446 0 z m 693 869 l 342 762 l 275 855 l 605 1069 l 730 1012 l 693 869 z "},"ợ":{"ha":938,"x_min":64,"x_max":1096,"o":"m 694 0 l 493 0 l 493 168 l 568 168 l 568 541 l 493 541 l 493 720 l 905 720 l 905 913 l 1096 913 l 1096 702 l 960 583 l 831 583 l 873 541 l 873 180 l 694 0 z m 446 0 l 244 0 l 64 180 l 64 541 l 244 720 l 446 720 l 446 541 l 368 541 l 368 168 l 446 168 l 446 0 z m 619 -273 l 319 -273 l 319 -81 l 619 -81 l 619 -273 z "},"ờ":{"ha":938,"x_min":64,"x_max":1096,"o":"m 694 0 l 493 0 l 493 168 l 568 168 l 568 541 l 493 541 l 493 720 l 905 720 l 905 913 l 1096 913 l 1096 702 l 960 583 l 831 583 l 873 541 l 873 180 l 694 0 z m 446 0 l 244 0 l 64 180 l 64 541 l 244 720 l 446 720 l 446 541 l 368 541 l 368 168 l 446 168 l 446 0 z m 667 876 l 626 776 l 250 889 l 213 1032 l 338 1090 l 667 876 z "},"ở":{"ha":938,"x_min":64,"x_max":1096,"o":"m 694 0 l 493 0 l 493 168 l 568 168 l 568 541 l 493 541 l 493 720 l 905 720 l 905 913 l 1096 913 l 1096 702 l 960 583 l 831 583 l 873 541 l 873 180 l 694 0 z m 446 0 l 244 0 l 64 180 l 64 541 l 244 720 l 446 720 l 446 541 l 368 541 l 368 168 l 446 168 l 446 0 z m 626 778 l 489 778 l 489 888 l 296 888 l 296 1080 l 507 1080 l 626 944 l 626 778 z "},"ỡ":{"ha":938,"x_min":64,"x_max":1096,"o":"m 694 0 l 493 0 l 493 168 l 568 168 l 568 541 l 493 541 l 493 720 l 905 720 l 905 913 l 1096 913 l 1096 702 l 960 583 l 831 583 l 873 541 l 873 180 l 694 0 z m 446 0 l 244 0 l 64 180 l 64 541 l 244 720 l 446 720 l 446 541 l 368 541 l 368 168 l 446 168 l 446 0 z m 661 801 l 469 801 l 396 903 l 351 903 l 257 825 l 198 884 l 330 1029 l 522 1029 l 595 927 l 641 927 l 734 1005 l 793 946 l 661 801 z "},"ő":{"ha":938,"x_min":64,"x_max":945,"o":"m 446 0 l 244 0 l 64 180 l 64 541 l 244 720 l 446 720 l 446 541 l 368 541 l 368 168 l 446 168 l 446 0 z m 694 0 l 493 0 l 493 168 l 568 168 l 568 541 l 493 541 l 493 720 l 694 720 l 873 541 l 873 180 l 694 0 z m 935 930 l 660 776 l 591 862 l 820 1090 l 945 1053 l 935 930 z m 564 930 l 288 776 l 219 862 l 448 1090 l 573 1053 l 564 930 z "},"ȏ":{"ha":938,"x_min":64,"x_max":873,"o":"m 446 0 l 244 0 l 64 180 l 64 541 l 244 720 l 446 720 l 446 541 l 368 541 l 368 168 l 446 168 l 446 0 z m 694 0 l 493 0 l 493 168 l 568 168 l 568 541 l 493 541 l 493 720 l 694 720 l 873 541 l 873 180 l 694 0 z m 349 895 l 294 772 l 200 798 l 238 955 l 337 1053 l 582 1053 l 681 955 l 719 798 l 625 772 l 570 895 l 349 895 z "},"ō":{"ha":938,"x_min":64,"x_max":873,"o":"m 446 0 l 244 0 l 64 180 l 64 541 l 244 720 l 446 720 l 446 541 l 368 541 l 368 168 l 446 168 l 446 0 z m 694 0 l 493 0 l 493 168 l 568 168 l 568 541 l 493 541 l 493 720 l 694 720 l 873 541 l 873 180 l 694 0 z m 721 816 l 199 816 l 199 949 l 721 949 l 721 816 z "},"ṓ":{"ha":938,"x_min":64,"x_max":873,"o":"m 446 0 l 244 0 l 64 180 l 64 541 l 244 720 l 446 720 l 446 541 l 368 541 l 368 168 l 446 168 l 446 0 z m 694 0 l 493 0 l 493 168 l 568 168 l 568 541 l 493 541 l 493 720 l 694 720 l 873 541 l 873 180 l 694 0 z m 721 816 l 199 816 l 199 949 l 721 949 l 721 816 z m 685 1079 l 334 972 l 267 1065 l 597 1280 l 722 1222 l 685 1079 z "},"ṑ":{"ha":938,"x_min":64,"x_max":873,"o":"m 446 0 l 244 0 l 64 180 l 64 541 l 244 720 l 446 720 l 446 541 l 368 541 l 368 168 l 446 168 l 446 0 z m 694 0 l 493 0 l 493 168 l 568 168 l 568 541 l 493 541 l 493 720 l 694 720 l 873 541 l 873 180 l 694 0 z m 721 816 l 199 816 l 199 949 l 721 949 l 721 816 z m 659 1086 l 618 986 l 241 1099 l 205 1242 l 330 1300 l 659 1086 z "},"ǫ":{"ha":938,"x_min":64,"x_max":873,"o":"m 446 0 l 244 0 l 64 180 l 64 541 l 244 720 l 446 720 l 446 541 l 368 541 l 368 168 l 446 168 l 446 0 z m 694 0 l 493 0 l 493 168 l 568 168 l 568 541 l 493 541 l 493 720 l 694 720 l 873 541 l 873 180 l 694 0 z m 844 -337 l 633 -337 l 514 -201 l 514 -35 l 651 -35 l 651 -146 l 844 -146 l 844 -337 z "},"ɔ":{"ha":897,"x_min":53,"x_max":833,"o":"m 653 0 l 533 0 l 533 720 l 653 720 l 833 541 l 833 180 l 653 0 z m 353 462 l 53 462 l 53 541 l 233 720 l 486 720 l 486 552 l 353 552 l 353 462 z m 486 0 l 233 0 l 53 180 l 53 288 l 353 288 l 353 180 l 486 180 l 486 0 z "},"ø":{"ha":920,"x_min":64,"x_max":856,"o":"m 670 0 l 450 0 l 496 179 l 550 180 l 550 541 l 485 541 l 570 865 l 789 808 l 747 646 l 856 541 l 856 180 l 670 0 z m 437 179 l 350 -150 l 131 -93 l 174 73 l 64 180 l 64 541 l 250 720 l 473 720 l 425 541 l 370 541 l 370 180 l 437 179 z "},"ǿ":{"ha":920,"x_min":64,"x_max":856,"o":"m 670 0 l 450 0 l 496 179 l 550 180 l 550 541 l 485 541 l 570 865 l 789 808 l 747 646 l 856 541 l 856 180 l 670 0 z m 437 179 l 350 -150 l 131 -93 l 174 73 l 64 180 l 64 541 l 250 720 l 473 720 l 425 541 l 370 541 l 370 180 l 437 179 z m 604 869 l 252 762 l 186 855 l 515 1069 l 640 1012 l 604 869 z "},"õ":{"ha":938,"x_min":64,"x_max":873,"o":"m 446 0 l 244 0 l 64 180 l 64 541 l 244 720 l 446 720 l 446 541 l 368 541 l 368 168 l 446 168 l 446 0 z m 694 0 l 493 0 l 493 168 l 568 168 l 568 541 l 493 541 l 493 720 l 694 720 l 873 541 l 873 180 l 694 0 z m 652 801 l 460 801 l 387 903 l 342 903 l 248 825 l 189 884 l 321 1029 l 513 1029 l 587 927 l 632 927 l 726 1005 l 785 946 l 652 801 z "},"ṍ":{"ha":938,"x_min":64,"x_max":873,"o":"m 446 0 l 244 0 l 64 180 l 64 541 l 244 720 l 446 720 l 446 541 l 368 541 l 368 168 l 446 168 l 446 0 z m 694 0 l 493 0 l 493 168 l 568 168 l 568 541 l 493 541 l 493 720 l 694 720 l 873 541 l 873 180 l 694 0 z m 652 801 l 460 801 l 387 903 l 342 903 l 248 825 l 189 884 l 321 1029 l 513 1029 l 587 927 l 632 927 l 726 1005 l 785 946 l 652 801 z m 711 1135 l 360 1027 l 294 1121 l 623 1335 l 748 1278 l 711 1135 z "},"ṏ":{"ha":938,"x_min":64,"x_max":873,"o":"m 446 0 l 244 0 l 64 180 l 64 541 l 244 720 l 446 720 l 446 541 l 368 541 l 368 168 l 446 168 l 446 0 z m 694 0 l 493 0 l 493 168 l 568 168 l 568 541 l 493 541 l 493 720 l 694 720 l 873 541 l 873 180 l 694 0 z m 652 801 l 460 801 l 387 903 l 342 903 l 248 825 l 189 884 l 321 1029 l 513 1029 l 587 927 l 632 927 l 726 1005 l 785 946 l 652 801 z m 779 1078 l 551 1078 l 551 1269 l 779 1269 l 779 1078 z m 420 1078 l 192 1078 l 192 1269 l 420 1269 l 420 1078 z "},"ȭ":{"ha":938,"x_min":64,"x_max":873,"o":"m 446 0 l 244 0 l 64 180 l 64 541 l 244 720 l 446 720 l 446 541 l 368 541 l 368 168 l 446 168 l 446 0 z m 694 0 l 493 0 l 493 168 l 568 168 l 568 541 l 493 541 l 493 720 l 694 720 l 873 541 l 873 180 l 694 0 z m 652 801 l 460 801 l 387 903 l 342 903 l 248 825 l 189 884 l 321 1029 l 513 1029 l 587 927 l 632 927 l 726 1005 l 785 946 l 652 801 z m 748 1082 l 227 1082 l 227 1215 l 748 1215 l 748 1082 z "},"œ":{"ha":1385,"x_min":64,"x_max":1325,"o":"m 633 0 l 477 0 l 477 180 l 545 180 l 545 541 l 477 541 l 477 720 l 633 720 l 696 660 l 755 720 l 911 720 l 911 541 l 844 541 l 844 180 l 911 180 l 911 0 l 755 0 l 694 60 l 633 0 z m 430 0 l 244 0 l 64 180 l 64 541 l 244 720 l 430 720 l 430 541 l 364 541 l 364 180 l 430 180 l 430 0 z m 1325 294 l 892 294 l 892 426 l 1025 426 l 1025 541 l 959 541 l 959 720 l 1144 720 l 1325 541 l 1325 294 z m 1204 0 l 959 0 l 959 180 l 1295 180 l 1295 90 l 1204 0 z "},"p":{"ha":915,"x_min":71,"x_max":850,"o":"m 670 0 l 418 0 l 418 168 l 550 168 l 550 541 l 418 541 l 418 631 l 506 720 l 670 720 l 850 541 l 850 180 l 670 0 z m 370 -240 l 71 -240 l 71 720 l 370 720 l 370 -240 z "},"ṗ":{"ha":915,"x_min":71,"x_max":850,"o":"m 670 0 l 418 0 l 418 168 l 550 168 l 550 541 l 418 541 l 418 631 l 506 720 l 670 720 l 850 541 l 850 180 l 670 0 z m 370 -240 l 71 -240 l 71 720 l 370 720 l 370 -240 z m 588 810 l 288 810 l 288 1001 l 588 1001 l 588 810 z "},"þ":{"ha":915,"x_min":71,"x_max":850,"o":"m 370 -240 l 71 -240 l 71 983 l 370 983 l 370 -240 z m 670 0 l 416 0 l 416 180 l 550 180 l 550 541 l 416 541 l 416 631 l 505 720 l 670 720 l 850 541 l 850 180 l 670 0 z "},"q":{"ha":916,"x_min":64,"x_max":845,"o":"m 845 -240 l 633 -240 l 545 -150 l 545 541 l 412 541 l 412 720 l 665 720 l 845 541 l 845 -240 z m 408 0 l 245 0 l 64 180 l 64 541 l 245 720 l 364 720 l 364 168 l 498 168 l 498 89 l 408 0 z "},"r":{"ha":854,"x_min":71,"x_max":846,"o":"m 370 0 l 71 0 l 71 720 l 370 720 l 370 0 z m 846 366 l 546 366 l 546 541 l 418 541 l 418 619 l 519 720 l 701 720 l 846 552 l 846 366 z "},"ŕ":{"ha":854,"x_min":71,"x_max":846,"o":"m 370 0 l 71 0 l 71 720 l 370 720 l 370 0 z m 846 366 l 546 366 l 546 541 l 418 541 l 418 619 l 519 720 l 701 720 l 846 552 l 846 366 z m 667 869 l 316 762 l 250 855 l 579 1069 l 704 1012 l 667 869 z "},"ř":{"ha":854,"x_min":71,"x_max":846,"o":"m 370 0 l 71 0 l 71 720 l 370 720 l 370 0 z m 846 366 l 546 366 l 546 541 l 418 541 l 418 619 l 519 720 l 701 720 l 846 552 l 846 366 z m 547 782 l 340 782 l 140 1008 l 203 1074 l 443 932 l 683 1074 l 747 1008 l 547 782 z "},"ŗ":{"ha":854,"x_min":71,"x_max":846,"o":"m 370 0 l 71 0 l 71 720 l 370 720 l 370 0 z m 846 366 l 546 366 l 546 541 l 418 541 l 418 619 l 519 720 l 701 720 l 846 552 l 846 366 z m 257 -433 l 136 -433 l 178 -278 l 71 -278 l 71 -80 l 370 -80 l 370 -248 l 257 -433 z "},"ȑ":{"ha":854,"x_min":-42,"x_max":846,"o":"m 370 0 l 71 0 l 71 720 l 370 720 l 370 0 z m 846 366 l 546 366 l 546 541 l 418 541 l 418 619 l 519 720 l 701 720 l 846 552 l 846 366 z m 684 862 l 614 776 l 339 930 l 330 1053 l 454 1090 l 684 862 z m 312 862 l 243 776 l -33 930 l -42 1053 l 83 1090 l 312 862 z "},"ṛ":{"ha":854,"x_min":70,"x_max":846,"o":"m 370 0 l 71 0 l 71 720 l 370 720 l 370 0 z m 846 366 l 546 366 l 546 541 l 418 541 l 418 619 l 519 720 l 701 720 l 846 552 l 846 366 z m 370 -273 l 70 -273 l 70 -81 l 370 -81 l 370 -273 z "},"ȓ":{"ha":854,"x_min":71,"x_max":846,"o":"m 370 0 l 71 0 l 71 720 l 370 720 l 370 0 z m 846 366 l 546 366 l 546 541 l 418 541 l 418 619 l 519 720 l 701 720 l 846 552 l 846 366 z m 332 895 l 277 772 l 183 798 l 221 955 l 320 1053 l 565 1053 l 664 955 l 702 798 l 608 772 l 553 895 l 332 895 z "},"ṟ":{"ha":854,"x_min":-27,"x_max":846,"o":"m 370 0 l 71 0 l 71 720 l 370 720 l 370 0 z m 846 366 l 546 366 l 546 541 l 418 541 l 418 619 l 519 720 l 701 720 l 846 552 l 846 366 z m 467 -211 l -27 -211 l -27 -96 l 467 -96 l 467 -211 z "},"s":{"ha":892,"x_min":64,"x_max":845,"o":"m 677 0 l 545 0 l 545 272 l 221 272 l 65 422 l 65 559 l 227 720 l 347 720 l 347 466 l 689 466 l 845 309 l 845 168 l 677 0 z m 821 532 l 545 532 l 545 588 l 395 588 l 395 720 l 713 720 l 821 613 l 821 532 z m 498 0 l 189 0 l 64 149 l 64 206 l 365 206 l 365 132 l 498 132 l 498 0 z "},"ś":{"ha":892,"x_min":64,"x_max":845,"o":"m 677 0 l 545 0 l 545 272 l 221 272 l 65 422 l 65 559 l 227 720 l 347 720 l 347 466 l 689 466 l 845 309 l 845 168 l 677 0 z m 821 532 l 545 532 l 545 588 l 395 588 l 395 720 l 713 720 l 821 613 l 821 532 z m 498 0 l 189 0 l 64 149 l 64 206 l 365 206 l 365 132 l 498 132 l 498 0 z m 686 869 l 334 762 l 268 855 l 597 1069 l 722 1012 l 686 869 z "},"ṥ":{"ha":892,"x_min":64,"x_max":845,"o":"m 677 0 l 545 0 l 545 272 l 221 272 l 65 422 l 65 559 l 227 720 l 347 720 l 347 466 l 689 466 l 845 309 l 845 168 l 677 0 z m 821 532 l 545 532 l 545 588 l 395 588 l 395 720 l 713 720 l 821 613 l 821 532 z m 498 0 l 189 0 l 64 149 l 64 206 l 365 206 l 365 132 l 498 132 l 498 0 z m 686 869 l 334 762 l 268 855 l 597 1069 l 722 1012 l 686 869 z m 515 1032 l 214 1032 l 214 1223 l 515 1223 l 515 1032 z "},"ꞌ":{"ha":475,"x_min":79,"x_max":397,"o":"m 340 121 l 142 121 l 79 720 l 397 720 l 340 121 z "},"š":{"ha":892,"x_min":64,"x_max":845,"o":"m 677 0 l 545 0 l 545 272 l 221 272 l 65 422 l 65 559 l 227 720 l 347 720 l 347 466 l 689 466 l 845 309 l 845 168 l 677 0 z m 821 532 l 545 532 l 545 588 l 395 588 l 395 720 l 713 720 l 821 613 l 821 532 z m 498 0 l 189 0 l 64 149 l 64 206 l 365 206 l 365 132 l 498 132 l 498 0 z m 565 782 l 359 782 l 159 1008 l 222 1074 l 461 932 l 701 1074 l 765 1008 l 565 782 z "},"ṧ":{"ha":892,"x_min":64,"x_max":845,"o":"m 677 0 l 545 0 l 545 272 l 221 272 l 65 422 l 65 559 l 227 720 l 347 720 l 347 466 l 689 466 l 845 309 l 845 168 l 677 0 z m 821 532 l 545 532 l 545 588 l 395 588 l 395 720 l 713 720 l 821 613 l 821 532 z m 498 0 l 189 0 l 64 149 l 64 206 l 365 206 l 365 132 l 498 132 l 498 0 z m 565 782 l 359 782 l 159 1008 l 222 1074 l 461 932 l 701 1074 l 765 1008 l 565 782 z m 604 1055 l 304 1055 l 304 1246 l 604 1246 l 604 1055 z "},"ş":{"ha":892,"x_min":64,"x_max":845,"o":"m 677 0 l 545 0 l 545 272 l 221 272 l 65 422 l 65 559 l 227 720 l 347 720 l 347 466 l 689 466 l 845 309 l 845 168 l 677 0 z m 821 532 l 545 532 l 545 588 l 395 588 l 395 720 l 713 720 l 821 613 l 821 532 z m 498 0 l 189 0 l 64 149 l 64 206 l 365 206 l 365 132 l 498 132 l 498 0 z m 461 -344 l 250 -344 l 250 -153 l 443 -153 l 443 -42 l 580 -42 l 580 -208 l 461 -344 z "},"ŝ":{"ha":892,"x_min":64,"x_max":845,"o":"m 677 0 l 545 0 l 545 272 l 221 272 l 65 422 l 65 559 l 227 720 l 347 720 l 347 466 l 689 466 l 845 309 l 845 168 l 677 0 z m 821 532 l 545 532 l 545 588 l 395 588 l 395 720 l 713 720 l 821 613 l 821 532 z m 498 0 l 189 0 l 64 149 l 64 206 l 365 206 l 365 132 l 498 132 l 498 0 z m 461 897 l 222 754 l 158 820 l 358 1047 l 564 1047 l 764 820 l 701 754 l 461 897 z "},"ș":{"ha":892,"x_min":64,"x_max":845,"o":"m 677 0 l 545 0 l 545 272 l 221 272 l 65 422 l 65 559 l 227 720 l 347 720 l 347 466 l 689 466 l 845 309 l 845 168 l 677 0 z m 821 532 l 545 532 l 545 588 l 395 588 l 395 720 l 713 720 l 821 613 l 821 532 z m 498 0 l 189 0 l 64 149 l 64 206 l 365 206 l 365 132 l 498 132 l 498 0 z m 483 -433 l 362 -433 l 404 -278 l 296 -278 l 296 -80 l 596 -80 l 596 -248 l 483 -433 z "},"ṡ":{"ha":892,"x_min":64,"x_max":845,"o":"m 677 0 l 545 0 l 545 272 l 221 272 l 65 422 l 65 559 l 227 720 l 347 720 l 347 466 l 689 466 l 845 309 l 845 168 l 677 0 z m 821 532 l 545 532 l 545 588 l 395 588 l 395 720 l 713 720 l 821 613 l 821 532 z m 498 0 l 189 0 l 64 149 l 64 206 l 365 206 l 365 132 l 498 132 l 498 0 z m 608 810 l 308 810 l 308 1001 l 608 1001 l 608 810 z "},"ṣ":{"ha":892,"x_min":64,"x_max":845,"o":"m 677 0 l 545 0 l 545 272 l 221 272 l 65 422 l 65 559 l 227 720 l 347 720 l 347 466 l 689 466 l 845 309 l 845 168 l 677 0 z m 821 532 l 545 532 l 545 588 l 395 588 l 395 720 l 713 720 l 821 613 l 821 532 z m 498 0 l 189 0 l 64 149 l 64 206 l 365 206 l 365 132 l 498 132 l 498 0 z m 596 -273 l 296 -273 l 296 -81 l 596 -81 l 596 -273 z "},"ṩ":{"ha":892,"x_min":64,"x_max":845,"o":"m 677 0 l 545 0 l 545 272 l 221 272 l 65 422 l 65 559 l 227 720 l 347 720 l 347 466 l 689 466 l 845 309 l 845 168 l 677 0 z m 821 532 l 545 532 l 545 588 l 395 588 l 395 720 l 713 720 l 821 613 l 821 532 z m 498 0 l 189 0 l 64 149 l 64 206 l 365 206 l 365 132 l 498 132 l 498 0 z m 596 -273 l 296 -273 l 296 -81 l 596 -81 l 596 -273 z m 604 810 l 303 810 l 303 1001 l 604 1001 l 604 810 z "},"ß":{"ha":979,"x_min":71,"x_max":926,"o":"m 754 0 l 452 0 l 452 180 l 627 180 l 627 471 l 471 471 l 471 616 l 573 616 l 573 816 l 416 816 l 416 995 l 689 995 l 839 846 l 839 612 l 791 566 l 926 428 l 926 172 l 754 0 z m 370 0 l 71 0 l 71 816 l 250 995 l 370 995 l 370 0 z "},"t":{"ha":631,"x_min":26,"x_max":594,"o":"m 583 0 l 266 0 l 85 180 l 85 541 l 26 541 l 26 720 l 85 720 l 85 798 l 385 900 l 385 180 l 583 180 l 583 0 z m 594 541 l 433 541 l 433 720 l 594 720 l 594 541 z "},"ŧ":{"ha":621,"x_min":18,"x_max":587,"o":"m 576 0 l 259 0 l 79 180 l 79 302 l 18 302 l 18 431 l 79 431 l 79 541 l 19 541 l 19 720 l 79 720 l 79 798 l 378 900 l 378 431 l 472 431 l 472 302 l 378 302 l 378 180 l 576 180 l 576 0 z m 587 541 l 426 541 l 426 720 l 587 720 l 587 541 z "},"ť":{"ha":631,"x_min":26,"x_max":732,"o":"m 583 0 l 266 0 l 85 180 l 85 541 l 26 541 l 26 720 l 85 720 l 85 798 l 385 900 l 385 180 l 583 180 l 583 0 z m 594 541 l 433 541 l 433 720 l 594 720 l 594 541 z m 700 747 l 506 747 l 522 995 l 732 995 l 700 747 z "},"ţ":{"ha":631,"x_min":26,"x_max":594,"o":"m 583 0 l 266 0 l 85 180 l 85 541 l 26 541 l 26 720 l 85 720 l 85 798 l 385 900 l 385 180 l 583 180 l 583 0 z m 594 541 l 433 541 l 433 720 l 594 720 l 594 541 z m 363 -344 l 152 -344 l 152 -153 l 345 -153 l 345 -42 l 482 -42 l 482 -208 l 363 -344 z "},"ṱ":{"ha":631,"x_min":14,"x_max":621,"o":"m 583 0 l 266 0 l 85 180 l 85 541 l 26 541 l 26 720 l 85 720 l 85 798 l 385 900 l 385 180 l 583 180 l 583 0 z m 594 541 l 433 541 l 433 720 l 594 720 l 594 541 z m 317 -229 l 78 -372 l 14 -306 l 214 -79 l 420 -79 l 621 -306 l 557 -372 l 317 -229 z "},"ț":{"ha":631,"x_min":26,"x_max":594,"o":"m 583 0 l 266 0 l 85 180 l 85 541 l 26 541 l 26 720 l 85 720 l 85 798 l 385 900 l 385 180 l 583 180 l 583 0 z m 594 541 l 433 541 l 433 720 l 594 720 l 594 541 z m 354 -433 l 233 -433 l 275 -278 l 168 -278 l 168 -80 l 467 -80 l 467 -248 l 354 -433 z "},"ẗ":{"ha":631,"x_min":-25,"x_max":594,"o":"m 583 0 l 266 0 l 85 180 l 85 541 l 26 541 l 26 720 l 85 720 l 85 798 l 385 900 l 385 180 l 583 180 l 583 0 z m 594 541 l 433 541 l 433 720 l 594 720 l 594 541 z m 562 930 l 334 930 l 334 1121 l 562 1121 l 562 930 z m 203 930 l -25 930 l -25 1121 l 203 1121 l 203 930 z "},"ṫ":{"ha":631,"x_min":26,"x_max":594,"o":"m 583 0 l 266 0 l 85 180 l 85 541 l 26 541 l 26 720 l 85 720 l 85 798 l 385 900 l 385 180 l 583 180 l 583 0 z m 594 541 l 433 541 l 433 720 l 594 720 l 594 541 z m 417 928 l 117 928 l 117 1119 l 417 1119 l 417 928 z "},"ṭ":{"ha":631,"x_min":26,"x_max":594,"o":"m 583 0 l 266 0 l 85 180 l 85 541 l 26 541 l 26 720 l 85 720 l 85 798 l 385 900 l 385 180 l 583 180 l 583 0 z m 594 541 l 433 541 l 433 720 l 594 720 l 594 541 z m 467 -273 l 167 -273 l 167 -81 l 467 -81 l 467 -273 z "},"ṯ":{"ha":631,"x_min":26,"x_max":594,"o":"m 583 0 l 266 0 l 85 180 l 85 541 l 26 541 l 26 720 l 85 720 l 85 798 l 385 900 l 385 180 l 583 180 l 583 0 z m 594 541 l 433 541 l 433 720 l 594 720 l 594 541 z m 564 -211 l 70 -211 l 70 -96 l 564 -96 l 564 -211 z "},"u":{"ha":916,"x_min":64,"x_max":845,"o":"m 411 0 l 245 0 l 64 180 l 64 720 l 364 720 l 364 180 l 498 180 l 498 90 l 411 0 z m 845 0 l 545 0 l 545 720 l 845 720 l 845 0 z "},"ú":{"ha":916,"x_min":64,"x_max":845,"o":"m 411 0 l 245 0 l 64 180 l 64 720 l 364 720 l 364 180 l 498 180 l 498 90 l 411 0 z m 845 0 l 545 0 l 545 720 l 845 720 l 845 0 z m 679 869 l 328 762 l 261 855 l 591 1069 l 715 1012 l 679 869 z "},"ŭ":{"ha":916,"x_min":64,"x_max":845,"o":"m 411 0 l 245 0 l 64 180 l 64 720 l 364 720 l 364 180 l 498 180 l 498 90 l 411 0 z m 845 0 l 545 0 l 545 720 l 845 720 l 845 0 z m 576 783 l 332 783 l 233 881 l 195 1038 l 288 1064 l 344 941 l 564 941 l 620 1064 l 713 1038 l 675 881 l 576 783 z "},"û":{"ha":916,"x_min":64,"x_max":845,"o":"m 411 0 l 245 0 l 64 180 l 64 720 l 364 720 l 364 180 l 498 180 l 498 90 l 411 0 z m 845 0 l 545 0 l 545 720 l 845 720 l 845 0 z m 454 897 l 215 754 l 151 820 l 351 1047 l 557 1047 l 758 820 l 694 754 l 454 897 z "},"ȕ":{"ha":916,"x_min":-31,"x_max":845,"o":"m 411 0 l 245 0 l 64 180 l 64 720 l 364 720 l 364 180 l 498 180 l 498 90 l 411 0 z m 845 0 l 545 0 l 545 720 l 845 720 l 845 0 z m 695 862 l 626 776 l 351 930 l 341 1053 l 466 1090 l 695 862 z m 323 862 l 254 776 l -21 930 l -31 1053 l 94 1090 l 323 862 z "},"ü":{"ha":916,"x_min":64,"x_max":845,"o":"m 411 0 l 245 0 l 64 180 l 64 720 l 364 720 l 364 180 l 498 180 l 498 90 l 411 0 z m 845 0 l 545 0 l 545 720 l 845 720 l 845 0 z m 747 812 l 519 812 l 519 1003 l 747 1003 l 747 812 z m 387 812 l 159 812 l 159 1003 l 387 1003 l 387 812 z "},"ụ":{"ha":916,"x_min":64,"x_max":845,"o":"m 411 0 l 245 0 l 64 180 l 64 720 l 364 720 l 364 180 l 498 180 l 498 90 l 411 0 z m 845 0 l 545 0 l 545 720 l 845 720 l 845 0 z m 608 -273 l 307 -273 l 307 -81 l 608 -81 l 608 -273 z "},"ù":{"ha":916,"x_min":64,"x_max":845,"o":"m 411 0 l 245 0 l 64 180 l 64 720 l 364 720 l 364 180 l 498 180 l 498 90 l 411 0 z m 845 0 l 545 0 l 545 720 l 845 720 l 845 0 z m 653 876 l 612 776 l 235 889 l 199 1032 l 323 1090 l 653 876 z "},"ủ":{"ha":916,"x_min":64,"x_max":845,"o":"m 411 0 l 245 0 l 64 180 l 64 720 l 364 720 l 364 180 l 498 180 l 498 90 l 411 0 z m 845 0 l 545 0 l 545 720 l 845 720 l 845 0 z m 612 778 l 475 778 l 475 888 l 281 888 l 281 1080 l 493 1080 l 612 944 l 612 778 z "},"ư":{"ha":916,"x_min":64,"x_max":1090,"o":"m 845 0 l 545 0 l 545 720 l 899 720 l 899 913 l 1090 913 l 1090 702 l 954 583 l 845 583 l 845 0 z m 411 0 l 245 0 l 64 180 l 64 720 l 364 720 l 364 180 l 498 180 l 498 90 l 411 0 z "},"ứ":{"ha":916,"x_min":64,"x_max":1090,"o":"m 845 0 l 545 0 l 545 720 l 899 720 l 899 913 l 1090 913 l 1090 702 l 954 583 l 845 583 l 845 0 z m 411 0 l 245 0 l 64 180 l 64 720 l 364 720 l 364 180 l 498 180 l 498 90 l 411 0 z m 679 869 l 328 762 l 261 855 l 591 1069 l 715 1012 l 679 869 z "},"ự":{"ha":916,"x_min":64,"x_max":1090,"o":"m 845 0 l 545 0 l 545 720 l 899 720 l 899 913 l 1090 913 l 1090 702 l 954 583 l 845 583 l 845 0 z m 411 0 l 245 0 l 64 180 l 64 720 l 364 720 l 364 180 l 498 180 l 498 90 l 411 0 z m 608 -273 l 307 -273 l 307 -81 l 608 -81 l 608 -273 z "},"ừ":{"ha":916,"x_min":64,"x_max":1090,"o":"m 845 0 l 545 0 l 545 720 l 899 720 l 899 913 l 1090 913 l 1090 702 l 954 583 l 845 583 l 845 0 z m 411 0 l 245 0 l 64 180 l 64 720 l 364 720 l 364 180 l 498 180 l 498 90 l 411 0 z m 653 876 l 612 776 l 235 889 l 199 1032 l 323 1090 l 653 876 z "},"ử":{"ha":916,"x_min":64,"x_max":1090,"o":"m 845 0 l 545 0 l 545 720 l 899 720 l 899 913 l 1090 913 l 1090 702 l 954 583 l 845 583 l 845 0 z m 411 0 l 245 0 l 64 180 l 64 720 l 364 720 l 364 180 l 498 180 l 498 90 l 411 0 z m 612 778 l 475 778 l 475 888 l 281 888 l 281 1080 l 493 1080 l 612 944 l 612 778 z "},"ữ":{"ha":916,"x_min":64,"x_max":1090,"o":"m 845 0 l 545 0 l 545 720 l 899 720 l 899 913 l 1090 913 l 1090 702 l 954 583 l 845 583 l 845 0 z m 411 0 l 245 0 l 64 180 l 64 720 l 364 720 l 364 180 l 498 180 l 498 90 l 411 0 z m 647 801 l 455 801 l 382 903 l 336 903 l 243 825 l 184 884 l 316 1029 l 508 1029 l 581 927 l 627 927 l 720 1005 l 779 946 l 647 801 z "},"ű":{"ha":916,"x_min":64,"x_max":939,"o":"m 411 0 l 245 0 l 64 180 l 64 720 l 364 720 l 364 180 l 498 180 l 498 90 l 411 0 z m 845 0 l 545 0 l 545 720 l 845 720 l 845 0 z m 930 930 l 654 776 l 585 862 l 814 1090 l 939 1053 l 930 930 z m 558 930 l 283 776 l 214 862 l 443 1090 l 568 1053 l 558 930 z "},"ȗ":{"ha":916,"x_min":64,"x_max":845,"o":"m 411 0 l 245 0 l 64 180 l 64 720 l 364 720 l 364 180 l 498 180 l 498 90 l 411 0 z m 845 0 l 545 0 l 545 720 l 845 720 l 845 0 z m 344 895 l 288 772 l 195 798 l 233 955 l 332 1053 l 576 1053 l 675 955 l 713 798 l 620 772 l 564 895 l 344 895 z "},"ū":{"ha":916,"x_min":64,"x_max":845,"o":"m 411 0 l 245 0 l 64 180 l 64 720 l 364 720 l 364 180 l 498 180 l 498 90 l 411 0 z m 845 0 l 545 0 l 545 720 l 845 720 l 845 0 z m 715 816 l 194 816 l 194 949 l 715 949 l 715 816 z "},"ṻ":{"ha":916,"x_min":64,"x_max":845,"o":"m 411 0 l 245 0 l 64 180 l 64 720 l 364 720 l 364 180 l 498 180 l 498 90 l 411 0 z m 845 0 l 545 0 l 545 720 l 845 720 l 845 0 z m 715 816 l 194 816 l 194 949 l 715 949 l 715 816 z m 747 1023 l 519 1023 l 519 1213 l 747 1213 l 747 1023 z m 388 1023 l 160 1023 l 160 1213 l 388 1213 l 388 1023 z "},"ų":{"ha":916,"x_min":64,"x_max":845,"o":"m 411 0 l 245 0 l 64 180 l 64 720 l 364 720 l 364 180 l 498 180 l 498 90 l 411 0 z m 845 0 l 545 0 l 545 720 l 845 720 l 845 0 z m 845 -302 l 654 -302 l 535 -166 l 535 -42 l 672 -42 l 672 -119 l 845 -119 l 845 -302 z "},"ů":{"ha":916,"x_min":64,"x_max":845,"o":"m 411 0 l 245 0 l 64 180 l 64 720 l 364 720 l 364 180 l 498 180 l 498 90 l 411 0 z m 845 0 l 545 0 l 545 720 l 845 720 l 845 0 z m 543 814 l 477 814 l 477 920 l 530 920 l 530 1036 l 477 1036 l 477 1141 l 543 1141 l 637 1048 l 637 907 l 543 814 z m 430 814 l 363 814 l 270 907 l 270 1048 l 363 1141 l 430 1141 l 430 1036 l 378 1036 l 378 920 l 430 920 l 430 814 z "},"ũ":{"ha":916,"x_min":64,"x_max":845,"o":"m 411 0 l 245 0 l 64 180 l 64 720 l 364 720 l 364 180 l 498 180 l 498 90 l 411 0 z m 845 0 l 545 0 l 545 720 l 845 720 l 845 0 z m 647 801 l 455 801 l 382 903 l 336 903 l 243 825 l 184 884 l 316 1029 l 508 1029 l 581 927 l 627 927 l 720 1005 l 779 946 l 647 801 z "},"ṹ":{"ha":916,"x_min":64,"x_max":845,"o":"m 411 0 l 245 0 l 64 180 l 64 720 l 364 720 l 364 180 l 498 180 l 498 90 l 411 0 z m 845 0 l 545 0 l 545 720 l 845 720 l 845 0 z m 647 801 l 455 801 l 382 903 l 336 903 l 243 825 l 184 884 l 316 1029 l 508 1029 l 581 927 l 627 927 l 720 1005 l 779 946 l 647 801 z m 706 1135 l 355 1027 l 288 1121 l 618 1335 l 743 1278 l 706 1135 z "},"v":{"ha":808,"x_min":-9,"x_max":818,"o":"m 545 0 l 260 0 l -9 720 l 288 720 l 545 0 z m 818 720 l 575 40 l 441 421 l 538 720 l 818 720 z "},"ʌ":{"ha":808,"x_min":-9,"x_max":818,"o":"m 818 0 l 520 0 l 264 720 l 549 720 l 818 0 z m 271 0 l -9 0 l 233 680 l 368 299 l 271 0 z "},"w":{"ha":1252,"x_min":-9,"x_max":1261,"o":"m 500 0 l 249 0 l -9 720 l 277 720 l 394 345 l 477 605 l 585 273 l 500 0 z m 996 0 l 724 0 l 481 720 l 764 720 l 996 0 z m 1261 720 l 1026 45 l 900 433 l 981 720 l 1261 720 z "},"ẃ":{"ha":1252,"x_min":-9,"x_max":1261,"o":"m 500 0 l 249 0 l -9 720 l 277 720 l 394 345 l 477 605 l 585 273 l 500 0 z m 996 0 l 724 0 l 481 720 l 764 720 l 996 0 z m 1261 720 l 1026 45 l 900 433 l 981 720 l 1261 720 z m 849 869 l 498 762 l 431 855 l 761 1069 l 886 1012 l 849 869 z "},"ŵ":{"ha":1252,"x_min":-9,"x_max":1261,"o":"m 500 0 l 249 0 l -9 720 l 277 720 l 394 345 l 477 605 l 585 273 l 500 0 z m 996 0 l 724 0 l 481 720 l 764 720 l 996 0 z m 1261 720 l 1026 45 l 900 433 l 981 720 l 1261 720 z m 625 897 l 385 754 l 321 820 l 522 1047 l 728 1047 l 928 820 l 865 754 l 625 897 z "},"ẅ":{"ha":1252,"x_min":-9,"x_max":1261,"o":"m 500 0 l 249 0 l -9 720 l 277 720 l 394 345 l 477 605 l 585 273 l 500 0 z m 996 0 l 724 0 l 481 720 l 764 720 l 996 0 z m 1261 720 l 1026 45 l 900 433 l 981 720 l 1261 720 z m 917 812 l 689 812 l 689 1003 l 917 1003 l 917 812 z m 557 812 l 330 812 l 330 1003 l 557 1003 l 557 812 z "},"ẁ":{"ha":1252,"x_min":-9,"x_max":1261,"o":"m 500 0 l 249 0 l -9 720 l 277 720 l 394 345 l 477 605 l 585 273 l 500 0 z m 996 0 l 724 0 l 481 720 l 764 720 l 996 0 z m 1261 720 l 1026 45 l 900 433 l 981 720 l 1261 720 z m 823 876 l 782 776 l 406 889 l 369 1032 l 494 1090 l 823 876 z "},"x":{"ha":773,"x_min":-9,"x_max":782,"o":"m 782 0 l 471 0 l -9 720 l 302 720 l 782 0 z m 782 720 l 574 388 l 420 621 l 471 720 l 782 720 z m 302 0 l -9 0 l 191 343 l 351 101 l 302 0 z "},"y":{"ha":828,"x_min":-9,"x_max":838,"o":"m 472 -251 l 184 -251 l 549 720 l 838 720 l 472 -251 z m 391 427 l 256 60 l -9 720 l 290 720 l 391 427 z "},"ý":{"ha":828,"x_min":-9,"x_max":838,"o":"m 472 -251 l 184 -251 l 549 720 l 838 720 l 472 -251 z m 391 427 l 256 60 l -9 720 l 290 720 l 391 427 z m 645 889 l 269 776 l 227 876 l 557 1090 l 682 1032 l 645 889 z "},"ŷ":{"ha":828,"x_min":-9,"x_max":838,"o":"m 472 -251 l 184 -251 l 549 720 l 838 720 l 472 -251 z m 391 427 l 256 60 l -9 720 l 290 720 l 391 427 z m 420 924 l 181 782 l 117 848 l 317 1075 l 524 1075 l 724 848 l 661 782 l 420 924 z "},"ÿ":{"ha":828,"x_min":-9,"x_max":838,"o":"m 472 -251 l 184 -251 l 549 720 l 838 720 l 472 -251 z m 391 427 l 256 60 l -9 720 l 290 720 l 391 427 z m 713 806 l 485 806 l 485 997 l 713 997 l 713 806 z m 353 806 l 125 806 l 125 997 l 353 997 l 353 806 z "},"ẏ":{"ha":828,"x_min":-9,"x_max":838,"o":"m 472 -251 l 184 -251 l 549 720 l 838 720 l 472 -251 z m 391 427 l 256 60 l -9 720 l 290 720 l 391 427 z m 563 810 l 262 810 l 262 1001 l 563 1001 l 563 810 z "},"ỵ":{"ha":828,"x_min":-9,"x_max":867,"o":"m 472 -251 l 184 -251 l 549 720 l 838 720 l 472 -251 z m 391 427 l 256 60 l -9 720 l 290 720 l 391 427 z m 867 -273 l 567 -273 l 567 -81 l 867 -81 l 867 -273 z "},"ỳ":{"ha":828,"x_min":-9,"x_max":838,"o":"m 472 -251 l 184 -251 l 549 720 l 838 720 l 472 -251 z m 391 427 l 256 60 l -9 720 l 290 720 l 391 427 z m 619 876 l 578 776 l 201 889 l 165 1032 l 290 1090 l 619 876 z "},"ỷ":{"ha":828,"x_min":-9,"x_max":838,"o":"m 472 -251 l 184 -251 l 549 720 l 838 720 l 472 -251 z m 391 427 l 256 60 l -9 720 l 290 720 l 391 427 z m 578 778 l 441 778 l 441 888 l 248 888 l 248 1080 l 459 1080 l 578 944 l 578 778 z "},"ȳ":{"ha":828,"x_min":-9,"x_max":838,"o":"m 472 -251 l 184 -251 l 549 720 l 838 720 l 472 -251 z m 391 427 l 256 60 l -9 720 l 290 720 l 391 427 z m 682 816 l 160 816 l 160 949 l 682 949 l 682 816 z "},"ỹ":{"ha":828,"x_min":-9,"x_max":838,"o":"m 472 -251 l 184 -251 l 549 720 l 838 720 l 472 -251 z m 391 427 l 256 60 l -9 720 l 290 720 l 391 427 z m 587 794 l 395 794 l 321 896 l 276 896 l 182 819 l 123 878 l 256 1023 l 448 1023 l 521 920 l 566 920 l 660 998 l 719 939 l 587 794 z "},"z":{"ha":794,"x_min":61,"x_max":736,"o":"m 262 0 l 61 0 l 61 174 l 529 720 l 736 720 l 736 541 l 262 0 z m 317 541 l 68 541 l 68 720 l 473 720 l 317 541 z m 736 0 l 317 0 l 477 180 l 736 180 l 736 0 z "},"ź":{"ha":794,"x_min":61,"x_max":736,"o":"m 262 0 l 61 0 l 61 174 l 529 720 l 736 720 l 736 541 l 262 0 z m 317 541 l 68 541 l 68 720 l 473 720 l 317 541 z m 736 0 l 317 0 l 477 180 l 736 180 l 736 0 z m 651 889 l 275 776 l 233 876 l 563 1090 l 688 1032 l 651 889 z "},"ž":{"ha":794,"x_min":61,"x_max":736,"o":"m 262 0 l 61 0 l 61 174 l 529 720 l 736 720 l 736 541 l 262 0 z m 317 541 l 68 541 l 68 720 l 473 720 l 317 541 z m 736 0 l 317 0 l 477 180 l 736 180 l 736 0 z m 535 782 l 329 782 l 129 1008 l 192 1074 l 431 932 l 671 1074 l 735 1008 l 535 782 z "},"ż":{"ha":794,"x_min":61,"x_max":736,"o":"m 262 0 l 61 0 l 61 174 l 529 720 l 736 720 l 736 541 l 262 0 z m 317 541 l 68 541 l 68 720 l 473 720 l 317 541 z m 736 0 l 317 0 l 477 180 l 736 180 l 736 0 z m 574 810 l 273 810 l 273 1001 l 574 1001 l 574 810 z "},"ẓ":{"ha":794,"x_min":61,"x_max":736,"o":"m 262 0 l 61 0 l 61 174 l 529 720 l 736 720 l 736 541 l 262 0 z m 317 541 l 68 541 l 68 720 l 473 720 l 317 541 z m 736 0 l 317 0 l 477 180 l 736 180 l 736 0 z m 547 -273 l 247 -273 l 247 -81 l 547 -81 l 547 -273 z "},"ﬁ":{"ha":1058,"x_min":26,"x_max":987,"o":"m 987 810 l 686 810 l 686 1001 l 987 1001 l 987 810 z m 397 0 l 97 0 l 97 541 l 26 541 l 26 720 l 97 720 l 97 827 l 278 995 l 614 995 l 614 815 l 397 815 l 397 0 z m 987 0 l 686 0 l 686 541 l 445 541 l 445 720 l 987 720 l 987 0 z "},"ﬂ":{"ha":1126,"x_min":26,"x_max":1120,"o":"m 397 0 l 97 0 l 97 541 l 26 541 l 26 720 l 97 720 l 97 827 l 278 995 l 985 995 l 985 180 l 1120 180 l 1120 0 l 854 0 l 686 168 l 686 815 l 397 815 l 397 0 z m 614 541 l 445 541 l 445 720 l 614 720 l 614 541 z "},"ª":{"ha":777,"x_min":96,"x_max":680,"o":"m 680 359 l 454 359 l 454 765 l 140 765 l 140 833 l 208 900 l 545 900 l 680 765 l 680 359 z m 342 359 l 186 359 l 96 449 l 96 589 l 186 679 l 409 679 l 409 581 l 321 581 l 321 494 l 409 494 l 409 426 l 342 359 z m 448 -55 l 328 -55 l 237 35 l 237 155 l 328 245 l 448 245 l 537 155 l 537 35 l 448 -55 z "},"º":{"ha":779,"x_min":96,"x_max":683,"o":"m 547 358 l 412 358 l 412 494 l 457 494 l 457 764 l 412 764 l 412 900 l 547 900 l 683 764 l 683 494 l 547 358 z m 366 358 l 231 358 l 96 494 l 96 764 l 231 900 l 366 900 l 366 764 l 321 764 l 321 494 l 366 494 l 366 358 z m 450 -55 l 330 -55 l 239 35 l 239 155 l 330 245 l 450 245 l 540 155 l 540 35 l 450 -55 z "},"Δ":{"ha":1017,"x_min":6,"x_max":1011,"o":"m 1011 0 l 346 0 l 408 178 l 639 178 l 361 900 l 653 900 l 1011 0 z m 296 0 l 6 0 l 328 859 l 461 502 l 296 0 z "},"Σ":{"ha":960,"x_min":79,"x_max":895,"o":"m 323 0 l 80 0 l 80 153 l 307 446 l 79 748 l 79 900 l 323 900 l 591 444 l 323 0 z m 895 630 l 649 630 l 649 720 l 475 720 l 372 900 l 895 900 l 895 630 z m 895 0 l 371 0 l 477 180 l 649 180 l 649 270 l 895 270 l 895 0 z "},"Ω":{"ha":992,"x_min":58,"x_max":933,"o":"m 932 0 l 554 0 l 554 271 l 633 353 l 633 720 l 520 720 l 520 900 l 751 900 l 933 720 l 933 349 l 751 170 l 932 170 l 932 0 z m 437 0 l 60 0 l 60 170 l 241 170 l 58 349 l 58 720 l 241 900 l 471 900 l 471 720 l 359 720 l 359 353 l 437 271 l 437 0 z "},"μ":{"ha":916,"x_min":64,"x_max":845,"o":"m 364 -332 l 64 -332 l 64 720 l 364 720 l 364 180 l 498 180 l 498 100 l 437 32 l 364 90 l 364 -332 z m 845 0 l 545 0 l 545 720 l 845 720 l 845 0 z "},"π":{"ha":938,"x_min":64,"x_max":875,"o":"m 874 538 l 64 538 l 64 720 l 874 720 l 874 538 z m 363 0 l 64 0 l 64 491 l 363 491 l 363 0 z m 875 0 l 576 0 l 576 491 l 875 491 l 875 0 z "},"¹":{"ha":612,"x_min":96,"x_max":528,"o":"m 429 441 l 201 441 l 201 774 l 96 774 l 96 900 l 429 900 l 429 441 z m 528 270 l 96 270 l 96 396 l 528 396 l 528 270 z "},"²":{"ha":734,"x_min":66,"x_max":686,"o":"m 288 270 l 66 270 l 66 500 l 192 627 l 452 627 l 452 900 l 536 900 l 674 774 l 674 627 l 549 500 l 288 500 l 288 270 z m 276 710 l 66 710 l 66 774 l 192 900 l 405 900 l 405 774 l 276 774 l 276 710 z m 686 270 l 329 270 l 329 396 l 686 396 l 686 270 z "},"³":{"ha":730,"x_min":54,"x_max":663,"o":"m 537 270 l 451 270 l 451 524 l 243 524 l 243 648 l 451 648 l 451 900 l 537 900 l 663 777 l 663 648 l 601 584 l 663 524 l 663 395 l 537 270 z m 264 710 l 54 710 l 54 774 l 180 900 l 406 900 l 406 774 l 264 774 l 264 710 z m 406 270 l 180 270 l 54 395 l 54 459 l 264 459 l 264 395 l 406 395 l 406 270 z "},"⁴":{"ha":708,"x_min":9,"x_max":671,"o":"m 572 270 l 363 270 l 363 900 l 572 900 l 572 479 l 671 479 l 671 364 l 572 364 l 572 270 z m 317 364 l 9 364 l 9 479 l 317 839 l 317 589 l 210 479 l 317 479 l 317 364 z "},"⁄":{"ha":494,"x_min":0,"x_max":494,"o":"m 170 0 l 0 0 l 326 900 l 494 900 l 170 0 z "},"½":{"ha":1729,"x_min":126,"x_max":1628,"o":"m 703 0 l 534 0 l 859 900 l 1028 900 l 703 0 z m 440 441 l 231 441 l 231 774 l 126 774 l 126 900 l 440 900 l 440 441 z m 1230 0 l 1008 0 l 1008 231 l 1134 357 l 1394 357 l 1394 630 l 1478 630 l 1616 504 l 1616 357 l 1491 231 l 1230 231 l 1230 0 z m 1218 440 l 1008 440 l 1008 504 l 1134 630 l 1347 630 l 1347 504 l 1218 504 l 1218 440 z m 546 270 l 126 270 l 126 396 l 546 396 l 546 270 z m 1628 0 l 1271 0 l 1271 126 l 1628 126 l 1628 0 z "},"⅔":{"ha":1834,"x_min":126,"x_max":1733,"o":"m 877 0 l 707 0 l 1032 900 l 1202 900 l 877 0 z m 348 270 l 126 270 l 126 500 l 252 627 l 513 627 l 513 900 l 597 900 l 734 774 l 734 627 l 609 500 l 348 500 l 348 270 z m 336 710 l 126 710 l 126 774 l 252 900 l 465 900 l 465 774 l 336 774 l 336 710 z m 1334 440 l 1124 440 l 1124 504 l 1250 630 l 1476 630 l 1476 504 l 1334 504 l 1334 440 z m 1607 0 l 1521 0 l 1521 254 l 1314 254 l 1314 378 l 1521 378 l 1521 630 l 1607 630 l 1733 507 l 1733 378 l 1671 314 l 1733 254 l 1733 125 l 1607 0 z m 747 270 l 389 270 l 389 396 l 747 396 l 747 270 z m 1476 0 l 1250 0 l 1124 125 l 1124 189 l 1334 189 l 1334 125 l 1476 125 l 1476 0 z "},"¼":{"ha":1626,"x_min":126,"x_max":1553,"o":"m 703 0 l 535 0 l 860 900 l 1028 900 l 703 0 z m 440 441 l 231 441 l 231 774 l 126 774 l 126 900 l 440 900 l 440 441 z m 1455 0 l 1245 0 l 1245 630 l 1455 630 l 1455 210 l 1553 210 l 1553 94 l 1455 94 l 1455 0 z m 1200 94 l 891 94 l 891 210 l 1200 569 l 1200 319 l 1093 210 l 1200 210 l 1200 94 z m 546 270 l 126 270 l 126 396 l 546 396 l 546 270 z "},"¾":{"ha":1826,"x_min":126,"x_max":1725,"o":"m 863 0 l 694 0 l 1019 900 l 1188 900 l 863 0 z m 336 710 l 126 710 l 126 774 l 252 900 l 478 900 l 478 774 l 336 774 l 336 710 z m 610 270 l 524 270 l 524 524 l 316 524 l 316 648 l 524 648 l 524 900 l 610 900 l 736 777 l 736 648 l 673 584 l 736 524 l 736 395 l 610 270 z m 1626 0 l 1417 0 l 1417 630 l 1626 630 l 1626 210 l 1725 210 l 1725 94 l 1626 94 l 1626 0 z m 1371 94 l 1063 94 l 1063 210 l 1371 569 l 1371 319 l 1264 210 l 1371 210 l 1371 94 z m 478 270 l 252 270 l 126 395 l 126 459 l 336 459 l 336 395 l 478 395 l 478 270 z "},".":{"ha":499,"x_min":100,"x_max":399,"o":"m 399 0 l 100 0 l 100 210 l 399 210 l 399 0 z "},",":{"ha":499,"x_min":100,"x_max":399,"o":"m 279 -180 l 100 -180 l 183 0 l 100 0 l 100 210 l 399 210 l 399 0 l 279 -180 z "},":":{"ha":499,"x_min":100,"x_max":399,"o":"m 399 511 l 100 511 l 100 720 l 399 720 l 399 511 z m 399 0 l 100 0 l 100 210 l 399 210 l 399 0 z "},";":{"ha":499,"x_min":100,"x_max":399,"o":"m 399 511 l 100 511 l 100 720 l 399 720 l 399 511 z m 279 -180 l 100 -180 l 183 0 l 100 0 l 100 210 l 399 210 l 399 0 l 279 -180 z "},"…":{"ha":1497,"x_min":100,"x_max":1397,"o":"m 399 0 l 100 0 l 100 210 l 399 210 l 399 0 z m 899 0 l 599 0 l 599 210 l 899 210 l 899 0 z m 1397 0 l 1097 0 l 1097 210 l 1397 210 l 1397 0 z "},"!":{"ha":511,"x_min":96,"x_max":415,"o":"m 396 300 l 115 300 l 96 900 l 415 900 l 396 300 z m 406 0 l 106 0 l 106 210 l 406 210 l 406 0 z "},"¡":{"ha":511,"x_min":96,"x_max":415,"o":"m 115 530 l 397 530 l 415 -71 l 96 -71 l 115 530 z m 106 829 l 406 829 l 406 620 l 106 620 l 106 829 z "},"?":{"ha":954,"x_min":54,"x_max":900,"o":"m 591 300 l 290 300 l 290 384 l 471 564 l 600 564 l 600 720 l 354 720 l 354 630 l 54 630 l 54 720 l 234 900 l 720 900 l 900 720 l 900 564 l 720 384 l 591 384 l 591 300 z m 591 0 l 290 0 l 290 210 l 591 210 l 591 0 z "},"¿":{"ha":954,"x_min":54,"x_max":900,"o":"m 362 530 l 663 530 l 663 446 l 483 265 l 353 265 l 353 109 l 600 109 l 600 199 l 900 199 l 900 109 l 720 -71 l 233 -71 l 54 109 l 54 265 l 233 446 l 362 446 l 362 530 z m 362 829 l 663 829 l 663 620 l 362 620 l 362 829 z "},"·":{"ha":492,"x_min":96,"x_max":395,"o":"m 305 315 l 185 315 l 96 404 l 96 524 l 185 614 l 305 614 l 395 524 l 395 404 l 305 315 z "},"•":{"ha":623,"x_min":101,"x_max":521,"o":"m 401 235 l 221 235 l 101 355 l 101 535 l 221 655 l 401 655 l 521 535 l 521 355 l 401 235 z "},"*":{"ha":944,"x_min":109,"x_max":835,"o":"m 472 460 l 326 313 l 196 407 l 291 591 l 109 684 l 157 834 l 360 803 l 392 1004 l 550 1004 l 581 803 l 786 836 l 835 684 l 651 591 l 747 406 l 618 313 l 472 460 z "},"#":{"ha":1152,"x_min":126,"x_max":1026,"o":"m 440 0 l 279 0 l 296 193 l 126 193 l 140 354 l 309 354 l 326 546 l 157 546 l 172 707 l 340 707 l 357 900 l 518 900 l 502 707 l 647 707 l 632 546 l 487 546 l 472 354 l 615 354 l 601 193 l 457 193 l 440 0 z m 793 0 l 632 0 l 710 900 l 871 900 l 854 707 l 1026 707 l 1011 546 l 841 546 l 825 354 l 995 354 l 980 193 l 810 193 l 793 0 z "},"/":{"ha":506,"x_min":-54,"x_max":530,"o":"m 115 -133 l -54 -133 l 361 962 l 530 962 l 115 -133 z "},"\\":{"ha":506,"x_min":-24,"x_max":561,"o":"m 561 -133 l 392 -133 l -24 962 l 146 962 l 561 -133 z "},"(":{"ha":663,"x_min":161,"x_max":567,"o":"m 567 -96 l 336 -96 l 161 84 l 161 817 l 336 996 l 567 996 l 567 817 l 456 817 l 456 84 l 567 84 l 567 -96 z "},")":{"ha":663,"x_min":97,"x_max":503,"o":"m 328 -96 l 97 -96 l 97 84 l 208 84 l 208 817 l 97 817 l 97 996 l 328 996 l 503 817 l 503 84 l 328 -96 z "},"{":{"ha":663,"x_min":59,"x_max":562,"o":"m 562 -96 l 336 -96 l 156 84 l 156 346 l 59 450 l 156 554 l 156 817 l 336 996 l 562 996 l 562 817 l 450 817 l 450 554 l 353 464 l 450 346 l 450 84 l 562 84 l 562 -96 z "},"}":{"ha":663,"x_min":101,"x_max":604,"o":"m 327 -96 l 101 -96 l 101 84 l 212 84 l 212 346 l 310 464 l 212 554 l 212 817 l 101 817 l 101 996 l 327 996 l 507 817 l 507 554 l 604 450 l 507 346 l 507 84 l 327 -96 z "},"[":{"ha":663,"x_min":186,"x_max":567,"o":"m 567 -96 l 186 -96 l 186 996 l 567 996 l 567 817 l 456 817 l 456 84 l 567 84 l 567 -96 z "},"]":{"ha":663,"x_min":96,"x_max":477,"o":"m 477 -96 l 96 -96 l 96 84 l 208 84 l 208 817 l 96 817 l 96 996 l 477 996 l 477 -96 z "},"-":{"ha":851,"x_min":126,"x_max":725,"o":"m 725 340 l 126 340 l 126 502 l 725 502 l 725 340 z "},"­":{"ha":0,"x_min":null,"x_max":null,"o":""},"–":{"ha":1101,"x_min":126,"x_max":975,"o":"m 975 340 l 126 340 l 126 502 l 975 502 l 975 340 z "},"—":{"ha":1350,"x_min":126,"x_max":1224,"o":"m 1224 340 l 126 340 l 126 502 l 1224 502 l 1224 340 z "},"_":{"ha":903,"x_min":-58,"x_max":961,"o":"m 961 -267 l -58 -267 l -58 -136 l 961 -136 l 961 -267 z "},"‚":{"ha":552,"x_min":111,"x_max":441,"o":"m 111 210 l 441 210 l 441 0 l 321 -180 l 140 -180 l 225 0 l 111 0 l 111 210 z "},"„":{"ha":952,"x_min":111,"x_max":841,"o":"m 111 210 l 441 210 l 441 0 l 321 -180 l 140 -180 l 225 0 l 111 0 l 111 210 z m 511 210 l 841 210 l 841 0 l 722 -180 l 541 -180 l 625 0 l 511 0 l 511 210 z "},"“":{"ha":964,"x_min":111,"x_max":854,"o":"m 441 510 l 111 510 l 111 720 l 231 900 l 412 900 l 327 720 l 441 720 l 441 510 z m 854 510 l 524 510 l 524 720 l 644 900 l 825 900 l 740 720 l 854 720 l 854 510 z "},"”":{"ha":962,"x_min":111,"x_max":850,"o":"m 521 900 l 850 900 l 850 690 l 731 510 l 550 510 l 635 690 l 521 690 l 521 900 z m 111 900 l 441 900 l 441 690 l 321 510 l 140 510 l 225 690 l 111 690 l 111 900 z "},"‘":{"ha":552,"x_min":111,"x_max":441,"o":"m 441 510 l 111 510 l 111 720 l 231 900 l 412 900 l 327 720 l 441 720 l 441 510 z "},"’":{"ha":552,"x_min":111,"x_max":441,"o":"m 111 900 l 441 900 l 441 690 l 321 510 l 140 510 l 225 690 l 111 690 l 111 900 z "},"«":{"ha":1168,"x_min":137,"x_max":1030,"o":"m 1030 18 l 850 18 l 566 311 l 566 416 l 850 709 l 1030 709 l 840 363 l 1030 18 z m 602 18 l 422 18 l 137 311 l 137 416 l 422 709 l 602 709 l 411 363 l 602 18 z "},"»":{"ha":1166,"x_min":138,"x_max":1029,"o":"m 745 18 l 565 18 l 755 363 l 565 708 l 745 708 l 1029 415 l 1029 311 l 745 18 z m 317 18 l 138 18 l 328 363 l 138 708 l 317 708 l 602 415 l 602 311 l 317 18 z "},"‹":{"ha":739,"x_min":137,"x_max":602,"o":"m 602 18 l 422 18 l 137 311 l 137 416 l 422 709 l 602 709 l 411 363 l 602 18 z "},"›":{"ha":739,"x_min":137,"x_max":602,"o":"m 317 18 l 137 18 l 328 363 l 137 709 l 317 709 l 602 416 l 602 311 l 317 18 z "},"\"":{"ha":922,"x_min":123,"x_max":798,"o":"m 370 450 l 154 450 l 123 900 l 401 900 l 370 450 z m 766 450 l 551 450 l 519 900 l 798 900 l 766 450 z "},"'":{"ha":524,"x_min":123,"x_max":401,"o":"m 370 450 l 154 450 l 123 900 l 401 900 l 370 450 z "}," ":{"ha":309,"x_min":null,"x_max":null,"o":""}," ":{"ha":1389,"x_min":null,"x_max":null,"o":""}," ":{"ha":1389,"x_min":null,"x_max":null,"o":""}," ":{"ha":694,"x_min":null,"x_max":null,"o":""}," ":{"ha":694,"x_min":null,"x_max":null,"o":""}," ":{"ha":1017,"x_min":null,"x_max":null,"o":""}," ":{"ha":347,"x_min":null,"x_max":null,"o":""}," ":{"ha":97,"x_min":null,"x_max":null,"o":""}," ":{"ha":72,"x_min":null,"x_max":null,"o":""}," ":{"ha":499,"x_min":null,"x_max":null,"o":""}," ":{"ha":231,"x_min":null,"x_max":null,"o":""}," ":{"ha":359,"x_min":null,"x_max":null,"o":""}," ":{"ha":359,"x_min":null,"x_max":null,"o":""}," ":{"ha":174,"x_min":null,"x_max":null,"o":""}," ":{"ha":463,"x_min":null,"x_max":null,"o":""},"​":{"ha":0,"x_min":null,"x_max":null,"o":""},"‍":{"ha":0,"x_min":null,"x_max":null,"o":""},"‌":{"ha":0,"x_min":null,"x_max":null,"o":""},"\r":{"ha":0,"x_min":null,"x_max":null,"o":""},"֏":{"ha":1032,"x_min":72,"x_max":998,"o":"m 614 123 l 439 123 l 439 213 l 614 213 l 614 305 l 439 305 l 439 395 l 614 395 l 614 720 l 530 720 l 530 900 l 734 900 l 914 720 l 914 395 l 998 395 l 998 305 l 914 305 l 914 213 l 998 213 l 998 123 l 914 123 l 914 0 l 614 0 l 614 123 z m 372 520 l 72 520 l 72 720 l 252 900 l 483 900 l 483 720 l 372 720 l 372 520 z "},"₵":{"ha":977,"x_min":66,"x_max":912,"o":"m 912 539 l 612 539 l 612 720 l 413 720 l 413 1001 l 615 1001 l 615 900 l 732 900 l 912 720 l 912 539 z m 366 0 l 246 0 l 66 180 l 66 720 l 246 900 l 366 900 l 366 0 z m 615 -121 l 413 -121 l 413 180 l 612 180 l 612 311 l 912 311 l 912 180 l 732 0 l 615 0 l 615 -121 z "},"¢":{"ha":1092,"x_min":156,"x_max":936,"o":"m 936 541 l 635 541 l 635 630 l 502 630 l 502 911 l 682 911 l 682 810 l 756 810 l 936 630 l 936 541 z m 590 -12 l 410 -12 l 410 90 l 336 90 l 156 270 l 156 630 l 336 810 l 456 810 l 456 270 l 590 270 l 590 -12 z m 756 90 l 635 90 l 635 359 l 936 359 l 936 270 l 756 90 z "},"₡":{"ha":814,"x_min":66,"x_max":912,"o":"m 912 539 l 612 539 l 612 720 l 413 720 l 413 1001 l 527 1001 l 527 900 l 616 900 l 616 1001 l 730 1001 l 730 900 l 912 720 l 912 539 z m 366 0 l 246 0 l 66 180 l 66 720 l 246 900 l 366 900 l 366 0 z m 527 -121 l 413 -121 l 413 180 l 612 180 l 612 311 l 912 311 l 912 180 l 730 0 l 730 -121 l 616 -121 l 616 0 l 527 0 l 527 -121 z "},"¤":{"ha":991,"x_min":75,"x_max":916,"o":"m 329 481 l 165 481 l 165 584 l 223 641 l 75 792 l 153 871 l 304 722 l 368 786 l 472 786 l 472 614 l 329 614 l 329 481 z m 838 481 l 674 481 l 674 614 l 528 614 l 528 786 l 635 786 l 692 727 l 838 871 l 916 792 l 773 647 l 838 584 l 838 481 z m 304 178 l 153 28 l 75 106 l 223 259 l 165 316 l 165 426 l 329 426 l 329 283 l 472 283 l 472 114 l 368 114 l 304 178 z m 916 106 l 838 28 l 692 173 l 635 114 l 528 114 l 528 283 l 674 283 l 674 426 l 838 426 l 838 316 l 773 253 l 916 106 z "},"$":{"ha":1182,"x_min":156,"x_max":1026,"o":"m 1026 630 l 726 630 l 726 720 l 502 720 l 502 1001 l 705 1001 l 705 900 l 846 900 l 1026 720 l 1026 630 z m 846 0 l 726 0 l 726 359 l 336 359 l 156 541 l 156 720 l 336 900 l 456 900 l 456 541 l 846 541 l 1026 359 l 1026 180 l 846 0 z m 680 -106 l 475 -106 l 475 0 l 336 0 l 156 180 l 156 270 l 456 270 l 456 180 l 680 180 l 680 -106 z "},"€":{"ha":1252,"x_min":132,"x_max":1096,"o":"m 526 0 l 406 0 l 227 180 l 227 321 l 132 321 l 132 418 l 227 418 l 227 517 l 144 517 l 144 614 l 227 614 l 227 752 l 406 932 l 526 932 l 526 614 l 722 614 l 722 517 l 526 517 l 526 418 l 704 418 l 704 321 l 526 321 l 526 0 z m 1096 610 l 796 610 l 796 752 l 572 752 l 572 932 l 916 932 l 1096 752 l 1096 610 z m 916 0 l 572 0 l 572 180 l 796 180 l 796 321 l 1096 321 l 1096 180 l 916 0 z "},"ƒ":{"ha":810,"x_min":114,"x_max":791,"o":"m 414 -231 l 114 -231 l 200 392 l 129 392 l 152 572 l 223 572 l 252 827 l 455 995 l 791 995 l 768 815 l 551 815 l 414 -231 z m 718 392 l 546 392 l 571 572 l 741 572 l 718 392 z "},"₴":{"ha":1002,"x_min":-9,"x_max":1019,"o":"m 366 0 l 245 0 l 66 180 l 66 311 l -9 311 l -9 400 l 66 400 l 155 492 l -9 492 l -9 582 l 654 582 l 654 900 l 755 900 l 936 720 l 936 582 l 1019 582 l 1019 492 l 911 492 l 819 400 l 1019 400 l 1019 311 l 366 311 l 366 0 z m 366 648 l 90 648 l 90 743 l 246 900 l 606 900 l 606 738 l 366 738 l 366 648 z m 785 0 l 414 0 l 414 163 l 636 163 l 636 250 l 936 250 l 936 180 l 785 0 z "},"₭":{"ha":1247,"x_min":132,"x_max":1115,"o":"m 1101 900 l 578 127 l 578 565 l 789 900 l 1101 900 z m 532 0 l 233 0 l 233 392 l 132 392 l 157 572 l 233 572 l 233 900 l 532 900 l 532 0 z m 1115 0 l 791 0 l 689 210 l 930 572 l 1053 572 l 1029 392 l 918 378 l 1115 0 z "},"₤":{"ha":1182,"x_min":156,"x_max":1026,"o":"m 576 0 l 156 0 l 156 179 l 276 179 l 276 277 l 161 277 l 161 367 l 276 367 l 276 459 l 161 459 l 161 549 l 276 549 l 276 781 l 456 960 l 576 960 l 576 549 l 720 549 l 720 459 l 576 459 l 576 367 l 720 367 l 720 277 l 576 277 l 576 0 z m 1020 692 l 749 692 l 749 781 l 622 781 l 622 960 l 840 960 l 1020 781 l 1020 692 z m 1026 0 l 622 0 l 622 179 l 1026 179 l 1026 0 z "},"₺":{"ha":814,"x_min":-27,"x_max":914,"o":"m 456 0 l 72 0 l 72 297 l -27 250 l -27 339 l 72 387 l 72 479 l -27 431 l -27 521 l 72 568 l 72 900 l 372 900 l 372 713 l 532 790 l 532 701 l 372 623 l 372 531 l 532 608 l 532 519 l 372 441 l 372 180 l 456 180 l 456 0 z m 734 0 l 503 0 l 503 180 l 614 180 l 614 380 l 914 380 l 914 180 l 734 0 z "},"₼":{"ha":1014,"x_min":72,"x_max":941,"o":"m 345 0 l 72 0 l 72 720 l 252 900 l 429 900 l 429 1078 l 589 1078 l 589 900 l 761 900 l 941 720 l 941 0 l 668 0 l 668 720 l 583 720 l 583 0 l 429 0 l 429 720 l 345 720 l 345 0 z "},"₦":{"ha":1331,"x_min":132,"x_max":1198,"o":"m 1097 0 l 778 0 l 233 900 l 549 900 l 1097 0 z m 1097 392 l 1097 85 l 836 515 l 836 900 l 1097 900 l 1097 572 l 1198 572 l 1175 392 l 1097 392 z m 494 0 l 233 0 l 233 392 l 132 392 l 157 572 l 233 572 l 233 814 l 494 387 l 494 0 z "},"₧":{"ha":1337,"x_min":132,"x_max":1204,"o":"m 909 231 l 573 231 l 573 412 l 791 412 l 791 720 l 573 720 l 573 900 l 909 900 l 1089 720 l 1089 662 l 1204 662 l 1181 482 l 1089 482 l 1089 412 l 909 231 z m 526 0 l 231 0 l 231 482 l 132 482 l 157 662 l 231 662 l 231 900 l 526 900 l 526 0 z "},"₱":{"ha":989,"x_min":-9,"x_max":1019,"o":"m 372 0 l 78 0 l 78 387 l -9 387 l -9 477 l 78 477 l 78 569 l -9 569 l -9 659 l 78 659 l 78 900 l 372 900 l 372 659 l 637 659 l 637 720 l 420 720 l 420 900 l 756 900 l 936 720 l 936 659 l 1019 659 l 1019 569 l 936 569 l 936 477 l 1019 477 l 1019 387 l 936 387 l 936 325 l 756 144 l 420 144 l 420 325 l 637 325 l 637 387 l 372 387 l 372 0 z m 372 569 l 372 477 l 637 477 l 637 569 l 372 569 z "},"₽":{"ha":814,"x_min":-21,"x_max":936,"o":"m 756 360 l 420 360 l 420 541 l 637 541 l 637 720 l 420 720 l 420 900 l 756 900 l 936 720 l 936 541 l 756 360 z m 372 0 l 78 0 l 78 102 l -21 102 l 4 282 l 78 282 l 78 360 l -21 360 l 4 540 l 78 540 l 78 900 l 372 900 l 372 0 z "},"₨":{"ha":1883,"x_min":79,"x_max":1836,"o":"m 532 270 l 427 270 l 427 444 l 652 444 l 652 720 l 427 720 l 427 900 l 769 900 l 949 720 l 949 450 l 810 311 l 980 0 l 660 0 l 532 270 z m 379 0 l 79 0 l 79 900 l 379 900 l 379 0 z m 1669 0 l 1537 0 l 1537 272 l 1213 272 l 1057 422 l 1057 559 l 1219 720 l 1339 720 l 1339 466 l 1681 466 l 1836 309 l 1836 168 l 1669 0 z m 1812 532 l 1537 532 l 1537 588 l 1386 588 l 1386 720 l 1705 720 l 1812 613 l 1812 532 z m 1489 0 l 1181 0 l 1056 149 l 1056 206 l 1356 206 l 1356 132 l 1489 132 l 1489 0 z "},"₹":{"ha":978,"x_min":132,"x_max":846,"o":"m 706 0 l 386 0 l 268 202 l 153 202 l 153 376 l 378 376 l 378 470 l 132 470 l 157 650 l 378 650 l 378 720 l 153 720 l 153 900 l 846 900 l 823 720 l 675 720 l 675 650 l 814 650 l 791 470 l 675 470 l 675 430 l 538 250 l 706 0 z "},"₪":{"ha":1391,"x_min":156,"x_max":1235,"o":"m 395 0 l 156 0 l 156 1008 l 760 1008 l 914 842 l 914 280 l 731 280 l 731 812 l 395 812 l 395 0 z m 1073 0 l 477 0 l 477 747 l 660 747 l 660 215 l 996 215 l 996 1008 l 1235 1008 l 1235 167 l 1073 0 z "},"£":{"ha":1182,"x_min":156,"x_max":1026,"o":"m 576 0 l 156 0 l 156 180 l 276 180 l 276 353 l 156 353 l 156 480 l 276 480 l 276 781 l 456 960 l 576 960 l 576 480 l 784 480 l 784 353 l 576 353 l 576 0 z m 1020 692 l 749 692 l 749 781 l 622 781 l 622 960 l 840 960 l 1020 781 l 1020 692 z m 1026 0 l 622 0 l 622 180 l 1026 180 l 1026 0 z "},"₸":{"ha":852,"x_min":35,"x_max":817,"o":"m 817 704 l 35 704 l 35 900 l 817 900 l 817 704 z m 817 453 l 35 453 l 35 649 l 817 649 l 817 453 z m 582 0 l 270 0 l 270 406 l 582 406 l 582 0 z "},"₩":{"ha":1647,"x_min":132,"x_max":1515,"o":"m 677 0 l 405 0 l 260 482 l 132 482 l 157 662 l 207 662 l 136 900 l 434 900 l 566 406 l 656 783 l 774 356 l 677 0 z m 1202 0 l 916 0 l 669 900 l 972 900 l 1202 0 z m 1359 482 l 1234 47 l 1112 526 l 1205 900 l 1478 900 l 1411 662 l 1515 662 l 1492 482 l 1359 482 z "},"¥":{"ha":1179,"x_min":132,"x_max":1047,"o":"m 738 0 l 437 0 l 437 123 l 252 123 l 252 213 l 437 213 l 437 287 l 252 287 l 252 377 l 417 377 l 132 900 l 420 900 l 707 377 l 924 377 l 924 287 l 738 287 l 738 213 l 924 213 l 924 123 l 738 123 l 738 0 z m 779 418 l 740 418 l 607 654 l 759 900 l 1047 900 l 779 418 z "},"∕":{"ha":506,"x_min":-54,"x_max":530,"o":"m 115 -133 l -54 -133 l 361 962 l 530 962 l 115 -133 z "},"+":{"ha":976,"x_min":126,"x_max":850,"o":"m 571 58 l 408 58 l 408 340 l 126 340 l 126 502 l 408 502 l 408 782 l 571 782 l 571 502 l 850 502 l 850 340 l 571 340 l 571 58 z "},"−":{"ha":851,"x_min":126,"x_max":725,"o":"m 725 340 l 126 340 l 126 502 l 725 502 l 725 340 z "},"×":{"ha":903,"x_min":127,"x_max":776,"o":"m 450 310 l 239 96 l 127 210 l 341 421 l 128 632 l 241 747 l 452 533 l 663 747 l 774 633 l 562 422 l 776 212 l 663 96 l 450 310 z "},"÷":{"ha":976,"x_min":126,"x_max":850,"o":"m 600 621 l 376 621 l 376 782 l 600 782 l 600 621 z m 850 340 l 126 340 l 126 502 l 850 502 l 850 340 z m 600 58 l 376 58 l 376 221 l 600 221 l 600 58 z "},"=":{"ha":976,"x_min":126,"x_max":850,"o":"m 850 516 l 126 516 l 126 678 l 850 678 l 850 516 z m 850 138 l 126 138 l 126 300 l 850 300 l 850 138 z "},"≠":{"ha":976,"x_min":126,"x_max":850,"o":"m 445 0 l 275 0 l 318 138 l 126 138 l 126 300 l 368 300 l 434 516 l 126 516 l 126 678 l 484 678 l 531 829 l 700 829 l 653 678 l 850 678 l 850 516 l 603 516 l 536 300 l 850 300 l 850 138 l 487 138 l 445 0 z "},">":{"ha":976,"x_min":126,"x_max":850,"o":"m 126 295 l 850 484 l 850 324 l 126 126 l 126 295 z m 126 545 l 126 713 l 813 523 l 507 444 l 126 545 z "},"<":{"ha":976,"x_min":126,"x_max":850,"o":"m 850 544 l 126 355 l 126 515 l 850 713 l 850 544 z m 850 294 l 850 126 l 163 316 l 469 395 l 850 294 z "},"≥":{"ha":926,"x_min":99,"x_max":823,"o":"m 823 694 l 823 535 l 99 724 l 99 892 l 823 694 z m 786 496 l 99 306 l 99 474 l 479 574 l 786 496 z m 823 138 l 823 -24 l 99 -24 l 99 138 l 823 138 z "},"≤":{"ha":922,"x_min":99,"x_max":823,"o":"m 823 724 l 99 535 l 99 694 l 823 892 l 823 724 z m 823 474 l 823 306 l 136 496 l 442 574 l 823 474 z m 823 -24 l 99 -24 l 99 138 l 823 138 l 823 -24 z "},"±":{"ha":976,"x_min":126,"x_max":850,"o":"m 571 300 l 408 300 l 408 454 l 126 454 l 126 617 l 408 617 l 408 773 l 571 773 l 571 617 l 850 617 l 850 454 l 571 454 l 571 300 z m 850 50 l 126 50 l 126 212 l 850 212 l 850 50 z "},"≈":{"ha":1011,"x_min":74,"x_max":941,"o":"m 782 486 l 509 486 l 351 644 l 277 644 l 136 547 l 77 606 l 237 806 l 509 806 l 670 644 l 740 644 l 881 745 l 941 684 l 782 486 z m 779 117 l 506 117 l 348 275 l 275 275 l 133 178 l 74 237 l 235 437 l 506 437 l 667 275 l 737 275 l 878 376 l 938 315 l 779 117 z "},"~":{"ha":1011,"x_min":77,"x_max":941,"o":"m 782 228 l 509 228 l 351 386 l 277 386 l 136 288 l 77 348 l 237 547 l 509 547 l 670 386 l 740 386 l 881 487 l 941 426 l 782 228 z "},"¬":{"ha":1101,"x_min":126,"x_max":975,"o":"m 975 183 l 812 183 l 812 496 l 126 496 l 126 657 l 975 657 l 975 183 z "},"^":{"ha":875,"x_min":118,"x_max":757,"o":"m 757 68 l 576 68 l 362 791 l 522 791 l 757 68 z m 298 68 l 118 68 l 323 755 l 406 462 l 298 68 z "},"∞":{"ha":1444,"x_min":64,"x_max":1380,"o":"m 1200 0 l 1000 0 l 1000 168 l 1074 168 l 1074 541 l 941 541 l 848 633 l 930 720 l 1200 720 l 1380 541 l 1380 180 l 1200 0 z m 497 0 l 244 0 l 64 180 l 64 541 l 244 720 l 445 720 l 445 541 l 370 541 l 370 168 l 499 168 l 580 87 l 497 0 z m 952 0 l 736 0 l 568 168 l 568 541 l 494 541 l 494 720 l 694 720 l 874 541 l 874 168 l 952 168 l 952 0 z "},"∅":{"ha":934,"x_min":83,"x_max":850,"o":"m 256 50 l 155 -76 l 96 -29 l 198 98 q 114 221 145 150 q 83 372 83 292 l 83 372 q 113 522 83 452 q 196 644 143 591 q 318 727 248 697 q 467 757 387 757 l 467 757 q 579 740 526 757 q 677 694 633 724 l 677 694 l 778 819 l 838 772 l 736 646 q 820 524 789 594 q 850 372 850 453 l 850 372 q 821 222 850 292 q 738 100 791 153 q 616 17 686 47 q 467 -13 547 -13 l 467 -13 q 355 4 409 -13 q 256 50 302 20 l 256 50 z m 227 372 l 227 372 q 242 282 227 325 q 285 205 257 239 l 285 205 l 594 590 q 467 628 536 628 l 467 628 q 344 593 399 628 q 258 499 290 557 q 227 372 227 441 z m 467 116 l 467 116 q 590 151 536 116 q 676 245 644 186 q 707 372 707 304 l 707 372 q 692 462 707 419 q 650 538 677 505 l 650 538 l 340 154 q 467 116 398 116 z "},"∫":{"ha":923,"x_min":94,"x_max":829,"o":"m 431 -342 l 94 -342 l 94 -162 l 311 -162 l 311 1101 l 492 1269 l 829 1269 l 829 1089 l 612 1089 l 612 -174 l 431 -342 z "},"Ω":{"ha":992,"x_min":58,"x_max":933,"o":"m 932 0 l 554 0 l 554 271 l 633 353 l 633 720 l 520 720 l 520 900 l 751 900 l 933 720 l 933 349 l 751 170 l 932 170 l 932 0 z m 437 0 l 60 0 l 60 170 l 241 170 l 58 349 l 58 720 l 241 900 l 471 900 l 471 720 l 359 720 l 359 353 l 437 271 l 437 0 z "},"∏":{"ha":992,"x_min":59,"x_max":932,"o":"m 932 718 l 59 718 l 59 900 l 932 900 l 932 718 z m 932 -115 l 634 -115 l 634 671 l 932 671 l 932 -115 z m 357 -115 l 59 -115 l 59 671 l 357 671 l 357 -115 z "},"∑":{"ha":960,"x_min":79,"x_max":895,"o":"m 323 -117 l 80 -117 l 79 35 l 307 385 l 79 748 l 79 900 l 323 900 l 591 383 l 323 -117 z m 895 630 l 595 630 l 595 720 l 455 720 l 372 900 l 895 900 l 895 630 z m 895 -117 l 370 -117 l 455 62 l 595 62 l 595 153 l 895 153 l 895 -117 z "},"√":{"ha":808,"x_min":-9,"x_max":936,"o":"m 936 1198 l 575 40 l 441 421 l 656 1198 l 936 1198 z m 545 0 l 260 0 l -9 720 l 288 720 l 545 0 z "},"∂":{"ha":918,"x_min":62,"x_max":853,"o":"m 673 0 l 479 0 l 479 180 l 553 180 l 553 815 l 479 815 l 479 995 l 673 995 l 853 815 l 853 180 l 673 0 z m 348 743 l 75 743 l 75 815 l 255 995 l 432 995 l 432 815 l 348 815 l 348 743 z m 432 0 l 241 0 l 62 180 l 62 469 l 238 633 l 505 633 l 505 465 l 363 465 l 363 180 l 432 180 l 432 0 z "},"µ":{"ha":916,"x_min":64,"x_max":845,"o":"m 364 -332 l 64 -332 l 64 720 l 364 720 l 364 180 l 498 180 l 498 100 l 437 32 l 364 90 l 364 -332 z m 845 0 l 545 0 l 545 720 l 845 720 l 845 0 z "},"%":{"ha":1622,"x_min":111,"x_max":1510,"o":"m 675 -133 l 506 -133 l 922 989 l 1091 989 l 675 -133 z m 380 395 l 247 395 l 111 531 l 111 766 l 247 900 l 380 900 l 380 766 l 337 766 l 337 529 l 380 529 l 380 395 z m 562 395 l 428 395 l 428 529 l 472 529 l 472 766 l 428 766 l 428 900 l 562 900 l 698 766 l 698 531 l 562 395 z m 1193 0 l 1059 0 l 924 136 l 924 371 l 1059 505 l 1193 505 l 1193 371 l 1149 371 l 1149 134 l 1193 134 l 1193 0 z m 1375 0 l 1240 0 l 1240 134 l 1285 134 l 1285 371 l 1240 371 l 1240 505 l 1375 505 l 1510 371 l 1510 136 l 1375 0 z "},"‰":{"ha":2070,"x_min":111,"x_max":1958,"o":"m 675 -133 l 506 -133 l 922 989 l 1091 989 l 675 -133 z m 380 395 l 247 395 l 111 531 l 111 766 l 247 900 l 380 900 l 380 766 l 337 766 l 337 529 l 380 529 l 380 395 z m 562 395 l 428 395 l 428 529 l 472 529 l 472 766 l 428 766 l 428 900 l 562 900 l 698 766 l 698 531 l 562 395 z m 1193 0 l 1059 0 l 924 136 l 924 371 l 1059 505 l 1193 505 l 1193 370 l 1149 370 l 1149 134 l 1193 134 l 1193 0 z m 1375 0 l 1240 0 l 1240 134 l 1285 134 l 1285 370 l 1240 370 l 1240 505 l 1375 505 l 1441 440 l 1507 505 l 1640 505 l 1640 370 l 1597 370 l 1597 134 l 1640 134 l 1640 0 l 1507 0 l 1441 66 l 1375 0 z m 1823 0 l 1688 0 l 1688 134 l 1733 134 l 1733 370 l 1688 370 l 1688 505 l 1823 505 l 1958 371 l 1958 136 l 1823 0 z "},"◊":{"ha":831,"x_min":119,"x_max":712,"o":"m 712 446 l 520 85 l 440 250 l 535 447 l 334 860 l 492 860 l 712 446 z m 497 33 l 338 33 l 119 446 l 311 808 l 391 643 l 296 446 l 497 33 z "},"":{"ha":1094,"x_min":186,"x_max":908,"o":"m 702 88 l 391 88 l 186 293 l 186 604 l 391 810 l 702 810 l 908 604 l 908 293 l 702 88 z m 627 366 l 702 291 l 828 291 l 828 366 l 751 366 l 751 669 l 627 625 l 627 593 l 600 593 l 600 517 l 627 517 l 627 366 z m 459 404 l 459 291 l 513 291 l 585 361 l 585 416 l 524 479 l 384 479 l 384 593 l 328 593 l 258 522 l 258 467 l 321 404 l 459 404 z m 459 536 l 459 499 l 575 499 l 575 541 l 524 593 l 403 593 l 403 536 l 459 536 z m 770 593 l 770 517 l 828 517 l 828 593 l 770 593 z m 258 353 l 321 291 l 441 291 l 441 347 l 384 347 l 384 384 l 258 384 l 258 353 z "},"@":{"ha":1075,"x_min":64,"x_max":1010,"o":"m 532 0 l 271 0 l 64 208 l 64 689 l 273 900 l 519 900 l 519 749 l 361 749 l 214 602 l 214 297 l 361 151 l 532 151 l 532 0 z m 1010 299 l 861 299 l 861 600 l 711 749 l 555 749 l 555 900 l 802 900 l 1010 689 l 1010 299 z m 802 0 l 569 0 l 569 299 l 466 299 l 466 600 l 610 600 l 610 247 l 707 151 l 922 151 l 802 0 z "},"&":{"ha":1130,"x_min":102,"x_max":1071,"o":"m 1055 0 l 723 0 l 193 614 l 193 748 l 347 900 l 481 900 l 481 665 l 719 389 l 923 548 l 1071 377 l 870 214 l 1055 0 z m 926 630 l 644 630 l 644 720 l 529 720 l 529 900 l 775 900 l 926 749 l 926 630 z m 594 0 l 254 0 l 102 149 l 102 366 l 232 499 l 372 336 l 372 173 l 515 173 l 633 33 l 594 0 z "},"¶":{"ha":1092,"x_min":119,"x_max":966,"o":"m 622 120 l 300 120 l 119 301 l 119 720 l 300 900 l 622 900 l 622 720 l 532 720 l 532 301 l 622 301 l 622 120 z m 786 -130 l 667 -130 l 667 900 l 966 900 l 966 50 l 786 -130 z "},"§":{"ha":1067,"x_min":123,"x_max":944,"o":"m 928 366 l 648 366 l 648 608 l 251 608 l 123 736 l 123 882 l 252 1010 l 509 1010 l 509 882 l 419 882 l 419 736 l 798 736 l 928 608 l 928 366 z m 944 805 l 648 805 l 648 882 l 557 882 l 557 1010 l 815 1010 l 944 882 l 944 805 z m 816 -82 l 558 -82 l 558 46 l 648 46 l 648 192 l 277 192 l 146 321 l 146 562 l 419 562 l 419 321 l 815 321 l 944 192 l 944 46 l 816 -82 z m 510 -82 l 252 -82 l 123 46 l 123 123 l 420 123 l 420 46 l 510 46 l 510 -82 z "},"©":{"ha":1076,"x_min":64,"x_max":1011,"o":"m 802 -29 l 569 -29 l 569 120 l 709 120 l 838 250 l 838 359 l 610 359 l 610 270 l 466 270 l 466 570 l 610 570 l 610 480 l 838 480 l 838 588 l 709 720 l 557 720 l 557 869 l 802 869 l 1011 660 l 1011 180 l 802 -29 z m 533 -29 l 274 -29 l 64 180 l 64 660 l 274 869 l 521 869 l 521 720 l 370 720 l 238 588 l 238 251 l 368 120 l 533 120 l 533 -29 z "},"®":{"ha":1076,"x_min":64,"x_max":1011,"o":"m 802 -29 l 736 -29 l 736 120 l 859 120 l 748 328 l 839 419 l 839 600 l 719 720 l 556 720 l 556 869 l 802 869 l 1011 660 l 1011 180 l 802 -29 z m 340 -29 l 274 -29 l 64 180 l 64 660 l 274 869 l 519 869 l 519 720 l 235 720 l 235 120 l 340 120 l 340 -29 z m 604 444 l 472 444 l 472 576 l 604 576 l 604 444 z m 700 -29 l 376 -29 l 376 120 l 472 120 l 472 300 l 524 300 l 614 120 l 700 120 l 700 -29 z "},"™":{"ha":1022,"x_min":66,"x_max":929,"o":"m 751 623 l 678 500 l 441 900 l 583 900 l 691 720 l 751 824 l 751 623 z m 448 801 l 66 801 l 66 900 l 388 900 l 448 801 z m 929 500 l 796 500 l 796 900 l 929 900 l 929 500 z m 323 500 l 185 500 l 185 760 l 323 760 l 323 500 z m 566 500 l 441 500 l 441 760 l 472 760 l 566 606 l 566 500 z "},"°":{"ha":795,"x_min":94,"x_max":702,"o":"m 537 326 l 420 326 l 420 487 l 520 487 l 520 733 l 420 733 l 420 900 l 537 900 l 702 735 l 702 491 l 537 326 z m 375 326 l 258 326 l 94 491 l 94 735 l 258 900 l 375 900 l 375 733 l 275 733 l 275 487 l 375 487 l 375 326 z "},"′":{"ha":524,"x_min":154,"x_max":449,"o":"m 370 450 l 154 450 l 170 900 l 449 900 l 370 450 z "},"″":{"ha":868,"x_min":154,"x_max":793,"o":"m 370 450 l 154 450 l 170 900 l 449 900 l 370 450 z m 713 450 l 498 450 l 514 900 l 793 900 l 713 450 z "},"|":{"ha":475,"x_min":156,"x_max":319,"o":"m 319 -133 l 156 -133 l 156 962 l 319 962 l 319 -133 z "},"¦":{"ha":473,"x_min":156,"x_max":317,"o":"m 317 473 l 156 473 l 156 962 l 317 962 l 317 473 z m 317 -133 l 156 -133 l 156 347 l 317 347 l 317 -133 z "},"†":{"ha":1022,"x_min":109,"x_max":913,"o":"m 542 -214 l 480 -214 l 377 291 l 446 557 l 200 516 l 109 626 l 200 735 l 448 692 l 401 960 l 511 1052 l 621 960 l 574 692 l 821 734 l 913 625 l 821 515 l 576 557 l 644 292 l 542 -214 z "},"‡":{"ha":1022,"x_min":109,"x_max":913,"o":"m 621 -123 l 511 -214 l 401 -123 l 448 146 l 200 104 l 109 213 l 200 323 l 446 281 l 378 416 l 444 556 l 200 515 l 109 625 l 200 734 l 448 692 l 401 960 l 511 1051 l 621 960 l 574 692 l 821 734 l 913 624 l 821 515 l 579 556 l 646 417 l 578 281 l 821 321 l 913 212 l 821 102 l 574 146 l 621 -123 z "},"№":{"ha":1952,"x_min":79,"x_max":1888,"o":"m 943 0 l 625 0 l 79 900 l 396 900 l 943 0 z m 943 900 l 943 85 l 682 515 l 682 900 l 943 900 z m 1460 281 l 1259 281 l 1079 461 l 1079 720 l 1259 900 l 1460 900 l 1460 720 l 1382 720 l 1382 450 l 1460 450 l 1460 281 z m 1708 281 l 1508 281 l 1508 450 l 1582 450 l 1582 720 l 1508 720 l 1508 900 l 1708 900 l 1888 720 l 1888 461 l 1708 281 z m 340 0 l 79 0 l 79 814 l 340 387 l 340 0 z m 1708 -2 l 1259 -2 l 1259 160 l 1708 160 l 1708 -2 z "},"̈":{"ha":0,"x_min":186,"x_max":773,"o":"m 773 813 l 545 813 l 545 1004 l 773 1004 l 773 813 z m 414 813 l 186 813 l 186 1004 l 414 1004 l 414 813 z "},"̇":{"ha":0,"x_min":71,"x_max":372,"o":"m 372 810 l 71 810 l 71 1001 l 372 1001 l 372 810 z "},"̀":{"ha":0,"x_min":82,"x_max":536,"o":"m 536 876 l 495 776 l 119 889 l 82 1032 l 207 1090 l 536 876 z "},"́":{"ha":0,"x_min":186,"x_max":640,"o":"m 604 869 l 252 762 l 186 855 l 515 1069 l 640 1012 l 604 869 z "},"̋":{"ha":0,"x_min":138,"x_max":864,"o":"m 854 930 l 579 776 l 510 862 l 739 1090 l 864 1053 l 854 930 z m 483 930 l 208 776 l 138 862 l 368 1090 l 492 1053 l 483 930 z "},"̂":{"ha":0,"x_min":117,"x_max":724,"o":"m 420 863 l 181 721 l 117 787 l 317 1014 l 524 1014 l 724 787 l 661 721 l 420 863 z "},"̌":{"ha":0,"x_min":117,"x_max":724,"o":"m 524 782 l 317 782 l 117 1008 l 180 1074 l 420 932 l 660 1074 l 724 1008 l 524 782 z "},"̆":{"ha":0,"x_min":163,"x_max":682,"o":"m 545 783 l 300 783 l 201 881 l 163 1038 l 256 1064 l 312 941 l 532 941 l 588 1064 l 682 1038 l 644 881 l 545 783 z "},"̊":{"ha":0,"x_min":190,"x_max":584,"o":"m 490 775 l 410 775 l 410 881 l 463 881 l 463 997 l 410 997 l 410 1102 l 490 1102 l 584 1009 l 584 868 l 490 775 z m 363 775 l 283 775 l 190 868 l 190 1009 l 283 1102 l 363 1102 l 363 997 l 311 997 l 311 881 l 363 881 l 363 775 z "},"̃":{"ha":0,"x_min":146,"x_max":742,"o":"m 610 801 l 418 801 l 345 903 l 299 903 l 205 825 l 146 884 l 279 1029 l 471 1029 l 544 927 l 589 927 l 683 1005 l 742 946 l 610 801 z "},"̄":{"ha":0,"x_min":157,"x_max":678,"o":"m 678 816 l 157 816 l 157 949 l 678 949 l 678 816 z "},"̉":{"ha":0,"x_min":244,"x_max":574,"o":"m 574 778 l 437 778 l 437 888 l 244 888 l 244 1080 l 456 1080 l 574 944 l 574 778 z "},"̏":{"ha":0,"x_min":33,"x_max":758,"o":"m 758 862 l 689 776 l 414 930 l 404 1053 l 529 1090 l 758 862 z m 387 862 l 317 776 l 42 930 l 33 1053 l 157 1090 l 387 862 z "},"̑":{"ha":0,"x_min":163,"x_max":682,"o":"m 312 907 l 256 783 l 163 810 l 201 966 l 300 1064 l 545 1064 l 644 966 l 682 810 l 588 783 l 532 907 l 312 907 z "},"̒":{"ha":0,"x_min":165,"x_max":465,"o":"m 465 717 l 165 717 l 165 884 l 278 1069 l 399 1069 l 357 915 l 465 915 l 465 717 z "},"̛":{"ha":0,"x_min":117,"x_max":419,"o":"m 283 582 l 117 582 l 117 719 l 228 719 l 228 912 l 419 912 l 419 701 l 283 582 z "},"̣":{"ha":0,"x_min":71,"x_max":372,"o":"m 372 -273 l 71 -273 l 71 -81 l 372 -81 l 372 -273 z "},"̤":{"ha":0,"x_min":186,"x_max":773,"o":"m 773 -245 l 545 -245 l 545 -95 l 773 -95 l 773 -245 z m 414 -245 l 186 -245 l 186 -95 l 414 -95 l 414 -245 z "},"̦":{"ha":0,"x_min":165,"x_max":465,"o":"m 351 -433 l 231 -433 l 272 -278 l 165 -278 l 165 -80 l 465 -80 l 465 -248 l 351 -433 z "},"̧":{"ha":0,"x_min":193,"x_max":524,"o":"m 405 -344 l 193 -344 l 193 -153 l 387 -153 l 387 -42 l 524 -42 l 524 -208 l 405 -344 z "},"̨":{"ha":0,"x_min":193,"x_max":524,"o":"m 524 -344 l 312 -344 l 193 -208 l 193 -42 l 330 -42 l 330 -153 l 524 -153 l 524 -344 z "},"̭":{"ha":0,"x_min":117,"x_max":724,"o":"m 420 -229 l 181 -372 l 117 -306 l 317 -79 l 524 -79 l 724 -306 l 661 -372 l 420 -229 z "},"̮":{"ha":0,"x_min":163,"x_max":682,"o":"m 545 -354 l 300 -354 l 201 -256 l 163 -100 l 256 -73 l 312 -197 l 532 -197 l 588 -73 l 682 -100 l 644 -256 l 545 -354 z "},"̱":{"ha":0,"x_min":170,"x_max":665,"o":"m 665 -211 l 170 -211 l 170 -96 l 665 -96 l 665 -211 z "},"̵":{"ha":0,"x_min":14,"x_max":508,"o":"m 508 340 l 14 340 l 14 455 l 508 455 l 508 340 z "},"¨":{"ha":959,"x_min":186,"x_max":773,"o":"m 773 806 l 545 806 l 545 997 l 773 997 l 773 806 z m 414 806 l 186 806 l 186 997 l 414 997 l 414 806 z "},"˙":{"ha":461,"x_min":71,"x_max":372,"o":"m 372 810 l 71 810 l 71 1001 l 372 1001 l 372 810 z "},"`":{"ha":745,"x_min":82,"x_max":536,"o":"m 536 876 l 495 776 l 119 889 l 82 1032 l 207 1090 l 536 876 z "},"´":{"ha":745,"x_min":186,"x_max":640,"o":"m 604 889 l 228 776 l 186 876 l 515 1090 l 640 1032 l 604 889 z "},"˝":{"ha":745,"x_min":138,"x_max":864,"o":"m 854 930 l 579 776 l 510 862 l 739 1090 l 864 1053 l 854 930 z m 483 930 l 208 776 l 138 862 l 368 1090 l 492 1053 l 483 930 z "},"ˆ":{"ha":841,"x_min":117,"x_max":724,"o":"m 420 924 l 181 782 l 117 848 l 317 1075 l 524 1075 l 724 848 l 661 782 l 420 924 z "},"ˇ":{"ha":841,"x_min":117,"x_max":724,"o":"m 524 782 l 317 782 l 117 1008 l 180 1074 l 420 932 l 660 1074 l 724 1008 l 524 782 z "},"˘":{"ha":841,"x_min":163,"x_max":682,"o":"m 545 783 l 300 783 l 201 881 l 163 1038 l 256 1064 l 312 941 l 532 941 l 588 1064 l 682 1038 l 644 881 l 545 783 z "},"˚":{"ha":777,"x_min":203,"x_max":570,"o":"m 476 814 l 410 814 l 410 920 l 463 920 l 463 1036 l 410 1036 l 410 1141 l 476 1141 l 570 1048 l 570 907 l 476 814 z m 363 814 l 296 814 l 203 907 l 203 1048 l 296 1141 l 363 1141 l 363 1036 l 311 1036 l 311 920 l 363 920 l 363 814 z "},"˜":{"ha":888,"x_min":146,"x_max":742,"o":"m 610 794 l 418 794 l 345 896 l 299 896 l 205 819 l 146 878 l 279 1023 l 471 1023 l 544 920 l 589 920 l 683 998 l 742 939 l 610 794 z "},"¯":{"ha":840,"x_min":170,"x_max":665,"o":"m 665 829 l 170 829 l 170 945 l 665 945 l 665 829 z "},"¸":{"ha":684,"x_min":193,"x_max":524,"o":"m 405 -344 l 193 -344 l 193 -153 l 387 -153 l 387 -42 l 524 -42 l 524 -208 l 405 -344 z "},"˛":{"ha":684,"x_min":268,"x_max":578,"o":"m 578 -302 l 387 -302 l 268 -166 l 268 -42 l 405 -42 l 405 -119 l 578 -119 l 578 -302 z "}}}
